<svg width="45" height="44" viewBox="0 0 45 44" fill="none" xmlns="http://www.w3.org/2000/svg">
<g clip-path="url(#clip0_48_9336)">
<path d="M44.8583 22C44.8583 23.2778 43.5439 24.4264 43.3286 25.6424C43.1076 26.8948 43.9433 28.4169 43.5156 29.5824C43.0793 30.7703 41.4476 31.4021 40.8158 32.4833C40.1813 33.5729 40.4391 35.2888 39.626 36.2492C38.813 37.2096 37.0595 37.2546 36.0906 38.0605C35.1246 38.8665 34.779 40.5683 33.6799 41.2002C32.592 41.8264 30.932 41.2732 29.7337 41.7057C28.5552 42.1297 27.643 43.6125 26.3824 43.8315C25.1558 44.045 23.7875 42.9638 22.4986 42.9638C21.2096 42.9638 19.8442 44.045 18.6147 43.8315C17.3513 43.6125 16.4391 42.1297 15.2634 41.7057C14.0651 41.2732 12.4051 41.8236 11.3173 41.2002C10.2181 40.5683 9.8725 38.8665 8.9065 38.0605C7.93766 37.2546 6.18412 37.2096 5.37109 36.2492C4.55806 35.2916 4.81868 33.5757 4.18129 32.4833C3.54956 31.4049 1.91783 30.7703 1.48157 29.5824C1.05381 28.4141 1.8895 26.892 1.66854 25.6424C1.45324 24.4264 0.138794 23.2778 0.138794 22C0.138794 20.7223 1.45324 19.5737 1.66854 18.3577C1.8895 17.108 1.05381 15.5831 1.48157 14.4177C1.91783 13.2298 3.54956 12.5979 4.18129 11.5196C4.81585 10.4299 4.55806 8.7141 5.37109 7.75367C6.18695 6.79324 7.93766 6.7483 8.9065 5.94233C9.8725 5.13636 10.2181 3.43454 11.3173 2.80268C12.4051 2.17925 14.0651 2.72967 15.2634 2.29719C16.4419 1.87314 17.3541 0.390377 18.6147 0.171331C19.8413 -0.0420974 21.2096 1.03909 22.4986 1.03909C23.7875 1.03909 25.153 -0.0420974 26.3824 0.171331C27.643 0.390377 28.5581 1.87314 29.7337 2.29719C30.932 2.72967 32.592 2.17925 33.6799 2.80268C34.779 3.43454 35.1246 5.13636 36.0906 5.94233C37.0595 6.7483 38.813 6.79324 39.626 7.75367C40.4391 8.71129 40.1784 10.4271 40.8158 11.5196C41.4476 12.5979 43.0793 13.2326 43.5156 14.4205C43.9433 15.5887 43.1076 17.1108 43.3286 18.3605C43.5439 19.5765 44.8583 20.7251 44.8583 22.0028V22Z" fill="url(#paint0_linear_48_9336)" stroke="#24292D" stroke-miterlimit="10"/>
<path d="M44.2917 22C44.2917 23.2441 43.0113 24.3646 42.8016 25.5497C42.5863 26.7685 43.4022 28.254 42.9829 29.3914C42.558 30.5484 40.9659 31.1662 40.3512 32.2165C39.7308 33.278 39.9829 34.9518 39.1926 35.8869C38.3994 36.8249 36.6912 36.867 35.7478 37.6533C34.8045 38.4368 34.4702 40.0965 33.3965 40.7115C32.3342 41.3209 30.7167 40.7845 29.5495 41.2058C28.4022 41.6186 27.5127 43.0649 26.2832 43.2783C25.0878 43.4861 23.7563 42.433 22.4985 42.433C21.2407 42.433 19.9093 43.4861 18.7138 43.2783C17.4844 43.0649 16.5948 41.6186 15.4475 41.2058C14.2804 40.7845 12.6628 41.3209 11.6005 40.7115C10.5297 40.0965 10.1926 38.4368 9.24923 37.6533C8.30306 36.867 6.59767 36.8249 5.80447 35.8869C5.0141 34.9518 5.26623 33.2808 4.64583 32.2165C4.0311 31.1634 2.44187 30.5484 2.0141 29.3914C1.59767 28.254 2.4107 26.7713 2.19541 25.5497C1.98578 24.3646 0.705322 23.2441 0.705322 22C0.705322 20.7559 1.98578 19.6354 2.19541 18.4504C2.4107 17.2316 1.59484 15.746 2.0141 14.6086C2.43903 13.4516 4.0311 12.8338 4.64583 11.7835C5.26623 10.722 5.0141 9.04826 5.80447 8.11311C6.59767 7.17514 8.30589 7.13302 9.24923 6.3467C10.1926 5.5632 10.5269 3.90351 11.6005 3.2885C12.6628 2.6791 14.2804 3.21548 15.4475 2.79424C16.5948 2.38142 17.4844 0.935165 18.7138 0.721736C19.9093 0.513924 21.2407 1.56703 22.4985 1.56703C23.7563 1.56703 25.0878 0.513924 26.2832 0.721736C27.5127 0.935165 28.4022 2.38142 29.5495 2.79424C30.7167 3.21548 32.3342 2.6791 33.3965 3.2885C34.4674 3.90351 34.8045 5.5632 35.7478 6.3467C36.694 7.13302 38.3994 7.17514 39.1926 8.11311C39.9829 9.04826 39.7308 10.7192 40.3512 11.7835C40.9659 12.8366 42.5552 13.4516 42.9829 14.6086C43.3994 15.746 42.5863 17.2288 42.8016 18.4504C43.0113 19.6354 44.2917 20.7559 44.2917 22Z" fill="#981C1F"/>
<path d="M40.6824 25.8268C42.8169 15.8717 36.4065 6.08621 26.3643 3.9702C16.3221 1.8542 6.45087 8.20899 4.31634 18.164C2.1818 28.1191 8.59223 37.9046 18.6344 40.0206C28.6766 42.1366 38.5478 35.7818 40.6824 25.8268Z" fill="url(#paint1_linear_48_9336)"/>
<path d="M40.4901 22C40.4901 31.8486 32.4362 39.8325 22.5014 39.8325C12.5665 39.8325 4.50989 31.8486 4.50989 22C4.50989 12.1514 12.5637 4.16748 22.4986 4.16748C32.4334 4.16748 40.4872 12.1514 40.4872 22H40.4901Z" stroke="#24292D" stroke-miterlimit="10"/>
<path d="M26.2426 31H19.8946V30.103C20.1246 29.9803 20.3623 29.8807 20.6076 29.804C20.853 29.712 21.1213 29.6277 21.4126 29.551V21.133L19.8946 20.949V20.052C20.1246 19.96 20.4083 19.868 20.7456 19.776C21.0983 19.684 21.4663 19.6073 21.8496 19.546C22.233 19.4693 22.6086 19.408 22.9766 19.362C23.3446 19.3007 23.6666 19.2547 23.9426 19.224H24.7246V29.551C25.0313 29.6277 25.3073 29.712 25.5526 29.804C25.798 29.8807 26.028 29.9803 26.2426 30.103V31ZM21.0216 15.728C21.0216 15.1913 21.2056 14.7697 21.5736 14.463C21.9416 14.1563 22.417 14.003 22.9996 14.003C23.5823 14.003 24.0576 14.1563 24.4256 14.463C24.7936 14.7697 24.9776 15.1913 24.9776 15.728C24.9776 16.2493 24.7936 16.6633 24.4256 16.97C24.0576 17.2767 23.5823 17.43 22.9996 17.43C22.417 17.43 21.9416 17.2767 21.5736 16.97C21.2056 16.6633 21.0216 16.2493 21.0216 15.728Z" fill="black"/>
</g>
<defs>
<linearGradient id="paint0_linear_48_9336" x1="0.141627" y1="22" x2="44.8583" y2="22" gradientUnits="userSpaceOnUse">
<stop stop-color="#B4832C"/>
<stop offset="0.15" stop-color="#E9D376"/>
<stop offset="0.29" stop-color="#BE9A38"/>
<stop offset="0.48" stop-color="#ECD87D"/>
<stop offset="0.68" stop-color="#DEC565"/>
<stop offset="1" stop-color="#ECD87D"/>
</linearGradient>
<linearGradient id="paint1_linear_48_9336" x1="3.90988" y1="21.9993" x2="41.0855" y2="21.9993" gradientUnits="userSpaceOnUse">
<stop stop-color="#C7C6C5"/>
<stop offset="0.34" stop-color="#E4E4E4"/>
<stop offset="0.71" stop-color="white"/>
<stop offset="0.99" stop-color="#BCBCBB"/>
</linearGradient>
<clipPath id="clip0_48_9336">
<rect width="45" height="44" fill="white"/>
</clipPath>
</defs>
</svg>
