<svg width="124" height="123" viewBox="0 0 124 123" fill="none" xmlns="http://www.w3.org/2000/svg">
<g clip-path="url(#clip0_194_746)">
<path d="M123.61 61.5C123.61 65.0719 119.988 68.2827 119.394 71.682C118.786 75.1832 121.088 79.4382 119.91 82.6961C118.708 86.0168 114.211 87.7831 112.47 90.8055C110.722 93.8515 111.432 98.6481 109.192 101.333C106.952 104.018 102.12 104.143 99.4499 106.396C96.788 108.649 95.8356 113.407 92.8069 115.173C89.8093 116.924 85.2349 115.377 81.933 116.586C78.6856 117.772 76.1721 121.917 72.6983 122.529C69.3183 123.126 65.5479 120.103 61.9962 120.103C58.4444 120.103 54.6818 123.126 51.294 122.529C47.8125 121.917 45.2989 117.772 42.0594 116.586C38.7574 115.377 34.183 116.916 31.1855 115.173C28.1567 113.407 27.2043 108.649 24.5425 106.396C21.8728 104.143 17.0408 104.018 14.8004 101.333C12.5601 98.6559 13.2783 93.8593 11.5219 90.8055C9.78112 87.791 5.2848 86.0168 4.08266 82.6961C2.90394 79.4303 5.20674 75.1754 4.59787 71.682C4.0046 68.2827 0.382568 65.0719 0.382568 61.5C0.382568 57.9281 4.0046 54.7173 4.59787 51.318C5.20674 47.8246 2.90394 43.5618 4.08266 40.3039C5.2848 36.9832 9.78112 35.2169 11.5219 32.2023C13.2704 29.1564 12.5601 24.3598 14.8004 21.6749C17.0486 18.9901 21.8728 18.8645 24.5425 16.6114C27.2043 14.3584 28.1567 9.60103 31.1855 7.83469C34.183 6.0919 38.7574 7.63058 42.0594 6.42162C45.3067 5.23621 47.8203 1.0912 51.294 0.478868C54.674 -0.117762 58.4444 2.90464 61.9962 2.90464C65.5479 2.90464 69.3105 -0.117762 72.6983 0.478868C76.1721 1.0912 78.6934 5.23621 81.933 6.42162C85.2349 7.63058 89.8093 6.0919 92.8069 7.83469C95.8356 9.60103 96.788 14.3584 99.4499 16.6114C102.12 18.8645 106.952 18.9901 109.192 21.6749C111.432 24.3519 110.714 29.1485 112.47 32.2023C114.211 35.2169 118.708 36.9911 119.91 40.3118C121.088 43.5775 118.786 47.8325 119.394 51.3259C119.988 54.7251 123.61 57.9359 123.61 61.5078V61.5Z" fill="url(#paint0_linear_194_746)" stroke="#24292D" stroke-miterlimit="10"/>
<path d="M122.048 61.5C122.048 64.9777 118.52 68.11 117.942 71.4229C117.349 74.83 119.597 78.9828 118.442 82.1623C117.271 85.3966 112.884 87.1237 111.19 90.0598C109.481 93.0272 110.175 97.706 107.997 100.32C105.812 102.942 101.105 103.06 98.5051 105.258C95.9057 107.448 94.9846 112.088 92.0261 113.807C89.0988 115.511 84.6415 114.011 81.4254 115.189C78.2639 116.343 75.8128 120.386 72.4249 120.982C69.1308 121.563 65.4619 118.619 61.996 118.619C58.5301 118.619 54.8612 121.563 51.567 120.982C48.1792 120.386 45.728 116.343 42.5666 115.189C39.3505 114.011 34.8932 115.511 31.9659 113.807C29.0152 112.088 28.0863 107.448 25.4868 105.258C22.8796 103.06 18.1803 102.942 15.9946 100.32C13.8167 97.706 14.5114 93.035 12.8019 90.0598C11.108 87.1159 6.72875 85.3966 5.55002 82.1623C4.40253 78.9828 6.64288 74.8378 6.04962 71.4229C5.47196 68.11 1.9436 64.9777 1.9436 61.5C1.9436 58.0223 5.47196 54.89 6.04962 51.5771C6.64288 48.17 4.39472 44.0172 5.55002 40.8378C6.72094 37.6034 11.108 35.8763 12.8019 32.9403C14.5114 29.9728 13.8167 25.294 15.9946 22.6798C18.1803 20.0578 22.8874 19.94 25.4868 17.7419C28.0863 15.5516 29.0074 10.9121 31.9659 9.19283C34.8932 7.48929 39.3505 8.98872 42.5666 7.81116C45.728 6.65715 48.1792 2.61419 51.567 2.01756C54.8612 1.43663 58.5301 4.38053 61.996 4.38053C65.4619 4.38053 69.1308 1.43663 72.4249 2.01756C75.8128 2.61419 78.2639 6.65715 81.4254 7.81116C84.6415 8.98872 89.0988 7.48929 92.0261 9.19283C94.9768 10.9121 95.9057 15.5516 98.5051 17.7419C101.112 19.94 105.812 20.0578 107.997 22.6798C110.175 25.294 109.481 29.965 111.19 32.9403C112.884 35.8842 117.263 37.6034 118.442 40.8378C119.589 44.0172 117.349 48.1622 117.942 51.5771C118.52 54.89 122.048 58.0223 122.048 61.5Z" fill="#981C1F"/>
<path d="M112.102 72.1975C117.984 44.3687 100.32 17.0137 72.648 11.0985C44.9761 5.18333 17.7755 22.9478 11.8937 50.7767C6.01182 78.6055 23.6761 105.961 51.348 111.876C79.0198 117.791 106.22 100.026 112.102 72.1975Z" fill="url(#paint1_linear_194_746)"/>
<path d="M111.573 61.5C111.573 89.0313 89.3798 111.35 62.0038 111.35C34.6278 111.35 12.4272 89.0313 12.4272 61.5C12.4272 33.9686 34.62 11.65 61.996 11.65C89.372 11.65 111.565 33.9686 111.565 61.5H111.573Z" stroke="#24292D" stroke-miterlimit="10"/>
</g>
<defs>
<linearGradient id="paint0_linear_194_746" x1="0.390374" y1="61.5" x2="123.61" y2="61.5" gradientUnits="userSpaceOnUse">
<stop stop-color="#B4832C"/>
<stop offset="0.15" stop-color="#E9D376"/>
<stop offset="0.29" stop-color="#BE9A38"/>
<stop offset="0.48" stop-color="#ECD87D"/>
<stop offset="0.68" stop-color="#DEC565"/>
<stop offset="1" stop-color="#ECD87D"/>
</linearGradient>
<linearGradient id="paint1_linear_194_746" x1="10.7737" y1="61.4979" x2="113.213" y2="61.4979" gradientUnits="userSpaceOnUse">
<stop stop-color="#C7C6C5"/>
<stop offset="0.34" stop-color="#E4E4E4"/>
<stop offset="0.71" stop-color="white"/>
<stop offset="0.99" stop-color="#BCBCBB"/>
</linearGradient>
<clipPath id="clip0_194_746">
<rect width="124" height="123" fill="white"/>
</clipPath>
</defs>
</svg>
