<svg width="217" height="86" viewBox="0 0 217 86" fill="none" xmlns="http://www.w3.org/2000/svg">
<mask id="mask0_35_5155" style="mask-type:luminance" maskUnits="userSpaceOnUse" x="72" y="55" width="74" height="31">
<path d="M88.7434 63.2523C87.9431 63.336 86.2283 64.6858 85.8854 64.9578C84.2641 66.339 82.1856 67.7516 80.1798 69.1223L80.0862 69.1851C78.5689 70.2001 77.7479 70.6605 77.3114 70.9117C76.8437 71.1732 76.7086 71.2464 76.8022 71.5185C76.8437 71.6336 76.9684 71.6964 77.1659 71.6964C77.7686 71.6964 79.1925 71.1941 80.3564 70.4407C81.2606 69.8338 82.3311 69.0596 83.3912 68.2434C81.1256 71.1104 76.5527 77.7548 73.9753 82.0344C73.1335 83.4156 72.8217 84.0957 72.749 84.4724V84.734C72.749 84.734 72.7698 84.8072 72.7906 84.8386C72.8633 84.9746 73.0088 85.0375 73.2166 85.0375C73.4245 85.0375 73.6947 84.9746 74.0585 84.87C77.2906 83.876 77.4049 83.6562 78.8807 81.0508L78.9222 80.9671C81.4373 76.4783 84.3473 71.4557 88.5459 65.1253C89.3254 64.0057 89.315 63.6395 89.2111 63.4511C89.1591 63.357 89.0448 63.2523 88.8057 63.2523C88.7849 63.2523 88.7538 63.2523 88.733 63.2523M131.458 68.8085L131.655 68.6201C134.305 66.2344 137.735 63.3883 140.021 61.6618C137.922 64.3091 133.837 70.5978 131.717 74.1868C129.888 74.3751 126.542 74.804 124.546 75.2539C126.355 73.4228 128.839 71.1732 131.458 68.8085ZM144.76 57.2462H144.687C143.908 57.3404 142.931 57.8531 141.674 58.8262C140.904 59.454 140.146 60.0714 139.377 60.6992C136.893 62.7187 134.326 64.8113 130.948 67.7097C127.332 70.8383 123.808 74.1972 122.686 75.3168C122.343 75.6202 121.553 76.3945 121.699 76.7712C121.699 76.8759 121.771 77.1165 122.125 77.1165C122.322 77.1165 122.572 77.0432 122.769 76.97L122.832 76.949C123.777 76.6665 124.733 76.4469 125.7 76.2795C127.321 75.9551 128.89 75.7249 130.907 75.5052C130.231 76.6771 129.587 77.7547 128.963 78.7906C128.111 80.2032 127.321 81.5426 126.479 83.0389C125.419 84.9537 125.315 85.4978 125.492 85.7908C125.575 85.9268 125.721 86 125.939 86C126.199 86 126.552 85.8954 127.072 85.7489C128.672 85.2676 129.587 84.7549 130.491 83.154C132.029 80.3707 133.193 78.3512 135.272 75.0447C136.051 74.9715 137.142 74.9191 138.192 74.8877C138.493 74.8773 138.722 74.8877 138.899 74.8877H139.117C139.294 74.8877 139.553 74.8877 139.616 74.6366C139.657 74.4901 139.647 74.3436 139.553 74.2181C139.346 73.9146 138.816 73.7996 138.41 73.7577C138.14 73.7368 137.828 73.7263 137.433 73.7263C136.986 73.7263 136.519 73.7368 136.082 73.7472H135.864C137.579 70.6919 140.977 64.644 145.082 58.2403C145.321 57.8322 145.477 57.5705 145.373 57.3717C145.29 57.2252 145.114 57.2148 144.989 57.2148C144.926 57.2148 144.864 57.2148 144.781 57.2252M108.749 57.2252C103.782 57.6752 96.5068 62.3419 92.2042 67.8562C89.1175 71.7696 87.4859 76.1538 87.8496 79.5754V79.6487C88.0367 81.4066 89.3566 83.1854 91.882 83.1854C92.0691 83.1854 92.2665 83.1854 92.464 83.154C95.322 82.8505 99.3751 80.8207 101.516 77.0642C102.95 74.5739 103.283 71.8742 102.337 70.1687C101.786 69.1851 100.892 68.641 99.7389 68.6096C98.2216 68.5677 96.3405 69.5932 95.3012 70.6291C95.0518 70.8698 94.6776 71.3092 94.8543 71.5917C94.8647 71.6021 94.8751 71.6127 94.8855 71.6336C94.9687 71.6964 95.0414 71.7277 95.1349 71.7277C95.2908 71.7277 95.4363 71.6232 95.6442 71.4244C96.4236 70.7128 97.6292 69.8548 98.9075 69.8548H99.0218C99.3336 69.8967 99.5518 70.0431 99.6973 70.3256C100.196 71.3092 99.6246 73.5903 98.2839 75.9969C96.3508 79.5232 94.0021 81.9611 92.3081 82.2018C91.2272 82.3273 90.6141 81.7205 90.4789 80.4544C90.1776 77.5142 92.8589 72.8055 95.4675 69.3944C100.83 62.2896 105.112 58.7948 108.936 58.3867C109.217 58.3657 109.477 58.3449 109.716 58.3449C111.057 58.3449 112.023 58.8053 112.761 59.7889C112.792 59.8307 112.823 59.883 112.855 59.9144C112.99 60.1028 113.145 60.3016 113.353 60.3016C113.395 60.3016 113.447 60.3016 113.509 60.2702C113.717 60.1341 113.779 59.6947 113.457 59.1297C112.761 57.9159 111.275 57.1835 109.477 57.1835C109.238 57.1835 108.988 57.1938 108.739 57.2252M127.3 55.2581C122.333 55.708 115.058 60.3748 110.755 65.8891C107.669 69.8025 106.037 74.1866 106.401 77.6082V77.6711C106.588 79.429 107.897 81.2078 110.433 81.2078C110.62 81.2078 110.828 81.1973 111.025 81.1763C113.883 80.8729 117.937 78.8326 120.077 75.0866C121.512 72.5963 121.834 69.8966 120.909 68.2015C120.358 67.2075 119.464 66.6738 118.3 66.632C118.259 66.632 118.217 66.632 118.176 66.632C116.679 66.632 114.871 67.647 113.873 68.662C113.624 68.9026 113.249 69.342 113.426 69.6245C113.426 69.6455 113.447 69.6455 113.457 69.6664C113.53 69.7292 113.624 69.7606 113.696 69.7606C113.873 69.7606 114.029 69.6246 114.206 69.4572C114.985 68.7457 116.201 67.8981 117.469 67.8981H117.583C117.895 67.94 118.113 68.0864 118.248 68.369C118.747 69.3421 118.176 71.6232 116.835 74.0298C114.902 77.556 112.543 80.0044 110.859 80.2346C109.778 80.3497 109.165 79.7534 109.03 78.4873C108.729 75.547 111.41 70.8383 114.018 67.4272C119.371 60.3224 123.663 56.8276 127.498 56.4195C127.778 56.3881 128.028 56.3777 128.277 56.3777C129.618 56.3777 130.585 56.8382 131.322 57.8322C131.354 57.8741 131.385 57.9159 131.426 57.9578C131.561 58.1356 131.707 58.3449 131.925 58.3449C131.967 58.3449 132.019 58.3449 132.081 58.303C132.289 58.167 132.351 57.7275 132.04 57.1625C131.343 55.9383 129.847 55.2163 128.059 55.2163C127.82 55.2163 127.56 55.2267 127.321 55.2581" fill="white"/>
</mask>
<g mask="url(#mask0_35_5155)">
<path d="M145.456 55.2163H72.749V86.021H145.456V55.2163Z" fill="url(#paint0_linear_35_5155)"/>
</g>
<path d="M10.5693 25.102C10.5693 32.2277 12.2321 43.9155 19.2472 43.9155C24.3916 43.9155 27.8731 37.7316 27.8731 26.7135C27.8731 22.0886 27.3743 16.3022 25.2749 12.2946C23.4458 8.78934 21.2945 7.73253 19.3615 7.73253C13.3857 7.73253 10.5693 15.7999 10.5693 25.102ZM36.4471 25.3846C36.4471 39.5208 27.6549 46.1442 19.0289 46.1442C9.78978 46.1442 2.10959 39.0709 2.10959 25.7717C2.10959 12.4725 10.4549 5.61884 19.2472 5.45142C29.8581 5.23168 36.4471 14.3036 36.4471 25.3846Z" fill="black"/>
<mask id="mask1_35_5155" style="mask-type:luminance" maskUnits="userSpaceOnUse" x="0" y="1" width="208" height="56">
<path d="M64.0192 54.7453V56.702C64.3726 56.6601 64.809 56.6182 65.2767 56.5555L65.2352 55.687V54.4732C64.861 54.5779 64.4661 54.672 64.0192 54.7453ZM148.813 46.6989L149.292 46.6779C149.136 46.6779 148.969 46.6989 148.813 46.6989ZM86.7169 46.7616H86.613C89.2112 46.6256 91.3624 46.5524 93.7943 46.5524C96.7251 46.5524 105.736 46.6674 111.213 46.8871C111.213 46.8139 111.233 46.7616 111.233 46.6884C105.891 46.521 98.627 46.4268 95.8937 46.4268C92.7447 46.4268 90.0426 46.5523 86.7169 46.7616ZM149.759 46.6465L149.292 46.6779C151.266 46.5838 153.241 46.5524 155.226 46.5524C156.556 46.5524 161.804 46.7197 163.083 46.7721V46.5733C161.025 46.5105 158.24 46.4268 157.336 46.4268C154.519 46.4268 152.046 46.5 149.759 46.6465ZM166.502 44.7735V46.7721C169.152 46.657 171.813 46.5524 174.411 46.5524C176.843 46.5524 179.056 46.6674 181.603 46.7721V46.5524C179.867 46.4791 178.256 46.4163 176.52 46.4163C173.985 46.4163 171.334 46.5314 168.778 46.636L167.728 46.6779V44.7108C167.302 44.7631 166.866 44.7631 166.512 44.7631M84.5553 44.8259V46.8871C84.971 46.8558 85.3763 46.8349 85.7712 46.814V44.6479C85.4074 44.7316 85.0125 44.7945 84.5553 44.8363M147.597 44.7735V46.7721C148.003 46.7407 148.408 46.7198 148.813 46.6989V44.6062C148.45 44.6794 148.055 44.7317 147.597 44.7631M142.463 39.1964C143.222 38.4849 143.835 37.7211 144.345 36.9677L144.054 36.7585C143.628 37.4805 143.118 38.3384 142.463 39.1964ZM110.381 35.9213C109.913 38.0873 109.331 39.6359 108.635 40.7555C109.737 39.9707 110.631 38.5477 111.327 35.9213H110.381ZM39.3157 33.4729C39.3677 34.9169 39.43 36.4236 39.43 37.8676C39.43 39.9289 39.3157 41.8751 39.1494 43.9887C42.4128 45.6001 45.5618 47.107 49.8747 47.107C50.5503 47.107 51.205 47.0546 51.8493 46.9814C47.2869 46.95 43.8781 45.2653 40.8642 43.7795L40.3238 43.5074L40.3758 42.9006C40.5628 40.4521 40.646 38.6419 40.646 36.8526C40.646 35.7644 40.6148 34.6448 40.5732 33.4729H39.3261H39.3157ZM42.3504 33.4729C42.3607 33.7868 42.3712 34.1007 42.3816 34.4042C42.3816 34.0903 42.3711 33.7868 42.3608 33.4729H42.3504ZM99.3233 27.9481V28.0737H100.082C102.846 28.0737 103.345 28.3457 103.73 29.5177C103.896 30.2396 104.114 32.2487 104.281 33.588H106.661C106.661 33.588 106.661 33.5043 106.661 33.4624H105.611L105.413 31.851C105.278 30.6896 105.102 29.2456 104.977 28.7015C104.79 28.1574 104.728 27.9481 102.192 27.9481H99.3233ZM162.417 29.0991C162.417 29.0991 162.449 29.1515 162.469 29.1829L168.663 41.038C168.871 41.4461 169.225 42.2623 169.391 42.8377C170.306 42.7854 170.711 42.618 170.711 42.3041C170.69 42.0634 170.316 41.1113 169.973 40.4207L163.789 28.5759C163.103 27.2994 162.854 26.86 162.417 26.7135V29.0886V29.0991ZM104.457 19.7761C104.26 21.4085 104.114 22.5699 103.896 23.3965C104.987 23.2605 105.185 22.5804 105.538 19.7761H104.457ZM117.895 15.486C116.18 18.7088 115.297 23.1139 115.297 27.2889C115.297 38.035 120.223 47.1592 131.613 47.1592C132.341 47.1592 133.016 47.1069 133.682 47.0336C123.091 47.0127 116.523 39.0604 116.523 26.2635C116.523 21.7328 117.511 17.2752 119.225 14.042C119.735 13.0584 120.337 12.1377 121.013 11.2797C119.787 12.483 118.726 13.8746 117.905 15.4755M0 26.7867C0 40.0963 7.69065 47.1592 16.9194 47.1592C17.5741 47.1592 18.2392 47.1069 18.894 47.0336C10.0705 46.9709 1.21599 40.3893 1.21599 25.7717C1.21599 20.5086 2.7749 15.0256 6.01743 10.9448C2.42155 14.3141 0 19.5773 0 26.7867ZM180.553 26.7867C180.553 40.0963 188.233 47.1592 197.472 47.1592C198.127 47.1592 198.792 47.1069 199.447 47.0336C190.623 46.9709 181.769 40.3893 181.769 25.7717C181.769 20.5086 183.328 15.0256 186.581 10.9448C182.985 14.3141 180.553 19.5773 180.553 26.7867ZM100.706 9.90895C100.165 9.92987 99.8533 9.9508 99.6663 10.0345H100.654C106.016 10.0345 107.45 11.0391 108.282 17.2753H110.662C110.662 17.2753 110.662 17.1916 110.651 17.1498H109.612L109.508 16.3755C108.718 10.474 107.606 9.91942 102.763 9.91942H100.716L100.706 9.90895ZM42.4647 9.80434C40.8642 11.3634 39.4196 13.9792 39.4196 17.7147C39.4196 24.7253 43.8989 27.4563 50.0306 30.7942C53.4602 32.6358 56.6612 34.3518 56.6612 38.035C56.6612 38.8512 56.4325 39.9603 55.8193 40.9962C57.3783 39.8765 57.8771 38.1292 57.8771 37.0201C57.8771 33.8705 55.0191 32.3428 51.7142 30.5745C46.0086 27.4668 40.6252 24.537 40.6252 16.6998C40.6252 13.3201 41.7268 10.9867 42.7972 9.49038C42.6829 9.59501 42.5582 9.69971 42.4439 9.81481M134.357 9.45896C136.779 9.65776 138.92 10.8926 140.187 13.4875C141.133 15.3814 141.455 17.5996 141.736 19.6609H144.334C144.334 19.6609 144.334 19.5772 144.334 19.5354H143.066L142.962 18.7611C142.671 16.6265 142.349 14.5652 141.497 12.8596C140.063 9.90889 137.589 9.29163 135.771 9.29163C135.292 9.29163 134.825 9.35432 134.357 9.45896ZM52.0883 9.39624C57.4822 9.79386 58.0641 14.921 58.3863 17.652H61.1508C61.1508 17.652 61.1508 17.5683 61.1508 17.5265H59.7062L59.6127 16.7417C59.1866 13.0899 58.3344 9.23926 53.5329 9.23926C53.0029 9.23926 52.5352 9.30207 52.0987 9.39624M18.0418 8.81022C19.767 9.07181 21.5961 10.2752 23.1758 13.3096C25.2752 17.3171 25.774 23.1035 25.774 27.7284C25.774 34.1635 24.5788 38.9244 22.573 41.7914C25.3583 39.5208 26.9899 34.1635 26.9899 26.703C26.9899 20.6551 26.1273 15.8104 24.4957 12.7028C23.0822 9.9927 21.3571 8.61147 19.3617 8.61147C18.894 8.61147 18.4575 8.68477 18.0418 8.79987M198.584 8.81022C200.309 9.07181 202.139 10.2752 203.718 13.3096C205.818 17.3171 206.316 23.1035 206.316 27.7284C206.316 34.1635 205.121 38.9244 203.115 41.8019C205.901 39.5313 207.543 34.174 207.543 26.7135C207.543 20.6656 206.68 15.8314 205.048 12.7132C203.635 10.0032 201.91 8.62195 199.914 8.62195C199.447 8.62195 199.01 8.69512 198.584 8.81022ZM65.5158 8.88354C68.6128 9.24976 69.5482 10.3066 69.5482 13.4875V45.4851C69.5482 48.0591 69.5066 50.2984 68.6232 51.9516C70.6394 50.675 70.7641 48.2475 70.7641 44.4597V12.4621C70.7641 9.76252 70.1509 9.07188 67.5112 8.74751L66.7213 8.65337V7.09431C66.316 7.06292 65.9107 7.05238 65.5054 7.02099V8.87306L65.5158 8.88354ZM84.7215 9.08228C87.434 9.3648 88.5357 10.474 88.5876 13.4247V39.8138C88.5668 41.0066 88.4317 41.9065 88.1719 42.6181C89.3255 42.189 89.762 41.2054 89.8036 38.7779V12.3993C89.762 9.99266 89.0449 9.18691 86.7377 8.94625L85.9374 8.86259V7.02099C85.5425 7.00006 85.1476 6.9792 84.7215 6.95828V9.07181V9.08228ZM167.832 8.91496C169.765 9.03006 171.262 9.24976 171.262 10.5786C171.262 11.3006 170.711 12.0854 170.264 12.6923L163.187 21.827C162.927 22.1513 162.709 22.4338 162.521 22.6744C162.646 22.5907 162.771 22.4757 162.927 22.3082L163.083 22.1722C163.083 22.1722 163.488 21.649 163.914 21.1049L171.667 11.1228C171.979 10.6937 172.478 10.0032 172.478 9.55322C172.478 9.17653 172.041 8.90449 169.89 8.77893L169.048 8.72656V7.04194C168.653 7.01055 168.248 6.97919 167.832 6.9478V8.89401V8.91496ZM147.701 8.86259C150.798 9.19742 151.568 10.474 151.682 13.7596V39.2593C151.64 40.7242 151.516 41.7914 151.235 42.6076C152.441 42.1995 152.815 41.1741 152.898 38.2234V12.755C152.794 9.77289 152.201 9.01956 149.707 8.74751L148.917 8.66384V7.01052C148.512 6.97913 148.107 6.96872 147.701 6.93733V8.88354V8.86259ZM122.541 1.02539L129.452 4.8132H133.983L134.212 4.68764H131.323L124.64 1.02539H122.53H122.541Z" fill="white"/>
</mask>
<g mask="url(#mask1_35_5155)">
<path d="M103.778 -103.459L-27.6397 28.8549L103.778 161.169L235.196 28.8549L103.778 -103.459Z" fill="url(#paint1_linear_35_5155)"/>
</g>
<path d="M44.46 32.4475C44.512 35.618 44.5743 38.8512 46.8399 41.0799C48.6067 42.8064 50.706 42.9738 52.0363 42.9738C57.347 42.9738 58.7811 39.0814 58.7811 37.0201C58.7811 33.3474 55.5802 31.6208 52.1402 29.7792C45.9981 26.4414 41.5188 23.7104 41.5188 16.6998C41.5188 12.9643 42.953 10.3485 44.5639 8.78939C47.6609 5.67125 51.974 5.67114 53.3042 5.67114C57.0144 5.67114 60.1634 6.39321 63.2604 7.06288C63.2084 8.67427 63.2085 10.2961 63.2085 11.9075C63.2085 13.5189 63.2084 15.0257 63.2604 16.6371H60.496C60.1634 13.8014 59.5606 8.3394 53.5224 8.3394C49.542 8.3394 47.7753 11.0181 47.7753 13.6236C47.7753 16.522 50.0928 17.9032 51.7037 18.8553C53.9693 20.1319 56.235 21.3038 58.4486 22.6431C60.6623 24.0348 65.0272 26.8703 65.0272 33.5461C65.0272 41.2263 59.4983 46.0711 51.9739 46.0711C47.6609 46.0711 44.5119 44.5642 41.2486 42.9528C41.4149 40.8392 41.5188 38.893 41.5188 36.8317C41.5188 35.3877 41.4669 33.881 41.4045 32.437H44.4496L44.46 32.4475Z" fill="black"/>
<path d="M67.6253 6.01646C70.2859 6.22573 72.8841 6.33029 75.4822 6.33029C78.0804 6.33029 80.7929 6.22573 83.4951 6.01646V7.97314C80.3461 8.28704 79.5146 9.29157 79.5146 12.5771V35.1051C79.4003 42.5133 79.4003 45.2129 77.6855 48.5926C74.5365 54.8394 68.675 55.4149 66.1288 55.6765V53.7198C71.5434 52.8723 71.6577 49.2205 71.6577 44.4596V12.462C71.6577 9.29159 70.712 8.23474 67.6149 7.85805V6.00598L67.6253 6.01646Z" fill="black"/>
<path d="M86.8313 5.95374C91.3625 6.17347 93.6281 6.28864 98.7725 6.28864C107.398 6.28864 108.51 6.23625 112.21 5.95374C112.262 10.2961 112.325 11.3007 112.761 16.25H110.381C109.55 10.0137 108.116 9.00914 102.753 9.00914H100.706C99.0427 9.06146 98.4919 9.34402 98.4919 11.0182V24.3278H102.587C105.902 24.3801 105.964 23.7104 106.567 18.7611H108.885C108.718 21.377 108.552 23.7732 108.552 26.2217C108.552 28.3353 108.666 30.449 108.77 32.5731H106.39C106.224 31.2338 106.006 29.2352 105.84 28.5132C105.455 27.3413 104.956 27.0693 102.192 27.0693H98.4295V40.766C98.3776 42.21 98.8141 42.6599 100.529 42.7122H103.907C108.168 42.5448 110.932 42.0949 112.481 34.9169H114.912C114.081 39.3744 113.915 40.5358 113.312 45.8827C107.835 45.663 98.8245 45.548 95.8937 45.548C92.963 45.548 90.2505 45.663 86.6546 45.8827V43.8214C89.5853 43.6017 90.635 42.4821 90.687 38.8093V12.4203C90.635 9.46955 89.523 8.36039 86.8209 8.07787V5.96421L86.8313 5.95374Z" fill="black"/>
<path d="M148.263 37.2922C146.33 40.358 142.568 46.1444 133.723 46.1444C122.333 46.1444 117.407 37.0201 117.407 26.2741C117.407 22.0991 118.29 17.7044 120.005 14.4711C122.936 8.78941 128.797 5.50391 134.659 5.50391C137.205 5.50391 139.803 6.17355 142.235 6.7909C144.23 7.29316 144.667 7.34545 146.434 7.68028C146.319 9.45909 146.267 11.2483 146.267 13.0271C146.267 14.9211 146.319 16.815 146.434 18.6566H143.835C143.555 16.5952 143.222 14.3665 142.287 12.483C140.905 9.6474 138.473 8.42315 135.76 8.42315C132.216 8.42315 129.452 10.7043 127.799 13.8748C126.417 16.543 125.752 20.3831 125.752 24.2337C125.752 34.8647 130.013 42.6077 136.644 42.6077C137.756 42.6077 139.138 42.3879 140.52 41.6554C143.565 40.1487 145.114 37.5328 146.163 35.754L148.263 37.3132V37.2922Z" fill="black"/>
<path d="M136.093 3.78781H131.561L124.65 0H128.963L133.879 1.72651L138.857 0H143.118L136.093 3.78781Z" fill="black"/>
<path d="M149.811 5.89099C152.461 6.11073 155.06 6.22577 157.72 6.22577C160.204 6.22577 162.75 6.11073 165.296 5.89099V7.89991C162.366 8.33938 161.753 9.459 161.586 12.3574V23.8256C162.366 23.7732 162.864 23.7104 163.582 22.9361C163.748 22.821 164.247 22.1514 165.296 20.8225L172.374 11.6877C172.81 11.0808 173.372 10.2962 173.372 9.57419C173.372 8.23485 171.875 8.01502 169.942 7.91039V5.96418C172.156 6.1316 174.089 6.29909 176.136 6.29909C178.069 6.29909 180.002 6.1316 181.998 5.96418V7.97323C178.901 8.5278 178.516 8.97775 174.588 13.8747L169.277 20.6655L179.067 38.8722C181.28 42.8274 181.717 43.497 183.712 43.769V45.7676C181.166 45.6525 178.963 45.5479 176.521 45.5479C173.922 45.5479 171.262 45.663 168.612 45.7676V43.769C169.713 43.769 171.594 43.769 171.594 42.3146C171.594 41.8751 171.044 40.5882 170.763 40.0336L164.569 28.1783C163.519 26.2321 163.239 25.7299 161.524 25.7822V39.6465C161.576 42.1473 162.137 43.769 165.172 43.769V45.7676C163.904 45.7153 158.645 45.5479 157.315 45.5479C154.769 45.5479 152.233 45.6002 149.687 45.7676V43.769C152.95 43.5388 153.667 42.3774 153.781 38.2547V12.755C153.667 9.46946 152.898 8.19298 149.801 7.85815V5.91194L149.811 5.89099Z" fill="black"/>
<path d="M191.122 25.102C191.122 32.2277 192.775 43.9155 199.8 43.9155C204.945 43.9155 208.426 37.7316 208.426 26.7135C208.426 22.0886 207.927 16.3022 205.828 12.2946C203.999 8.78934 201.847 7.73253 199.914 7.73253C193.939 7.73253 191.122 15.7999 191.122 25.102ZM217 25.3846C217 39.5208 208.208 46.1442 199.582 46.1442C190.343 46.1442 182.663 39.0709 182.663 25.7717C182.663 12.4725 191.008 5.61884 199.8 5.45142C210.411 5.23168 217 14.3036 217 25.3846Z" fill="black"/>
<defs>
<linearGradient id="paint0_linear_35_5155" x1="71.5729" y1="69.1776" x2="144.565" y2="69.1776" gradientUnits="userSpaceOnUse">
<stop stop-color="#B4832C"/>
<stop offset="0.15" stop-color="#E3CC6B"/>
<stop offset="0.29" stop-color="#BF9B3A"/>
<stop offset="0.48" stop-color="#E8D270"/>
<stop offset="0.68" stop-color="#DFC667"/>
<stop offset="1" stop-color="#C2993D"/>
</linearGradient>
<linearGradient id="paint1_linear_35_5155" x1="45.7321" y1="82.8648" x2="162.937" y2="-33.5465" gradientUnits="userSpaceOnUse">
<stop stop-color="#BE8B2E"/>
<stop offset="0.15" stop-color="#E6D174"/>
<stop offset="0.29" stop-color="#BF9B3A"/>
<stop offset="0.48" stop-color="#DBC669"/>
<stop offset="0.68" stop-color="#DFC667"/>
<stop offset="1" stop-color="#C2993D"/>
</linearGradient>
</defs>
</svg>
