<svg width="166" height="46" viewBox="0 0 166 46" fill="none" xmlns="http://www.w3.org/2000/svg">
<g clip-path="url(#clip0_73_3056)">
<mask id="mask0_73_3056" style="mask-type:luminance" maskUnits="userSpaceOnUse" x="134" y="22" width="32" height="15">
<path d="M141.317 26.1458C140.97 26.1826 140.213 26.7718 140.066 26.8875C139.357 27.4871 138.442 28.1078 137.559 28.7022L137.517 28.7285C136.849 29.1704 136.491 29.3755 136.297 29.4807C136.092 29.5964 136.029 29.628 136.076 29.7437C136.092 29.7963 136.15 29.8226 136.239 29.8226C136.507 29.8226 137.128 29.6017 137.643 29.2756C138.037 29.0126 138.51 28.6707 138.973 28.3182C137.979 29.5701 135.971 32.4632 134.841 34.3305C134.315 35.1932 134.252 35.4246 134.32 35.5562C134.352 35.614 134.415 35.6456 134.504 35.6456C134.594 35.6456 134.714 35.6193 134.877 35.5719C136.297 35.1353 136.349 35.0459 136.996 33.9045L137.017 33.8677C138.121 31.9109 139.399 29.7174 141.239 26.9611C141.58 26.4719 141.575 26.3141 141.533 26.23C141.512 26.1879 141.465 26.1405 141.36 26.1405C141.349 26.1405 141.338 26.1405 141.323 26.1405M160.07 28.5707L160.159 28.4918C161.321 27.4503 162.83 26.2089 163.834 25.4567C162.914 26.614 161.121 29.3597 160.185 30.922C159.386 31.0062 157.914 31.1903 157.042 31.3849C157.835 30.5853 158.924 29.6017 160.075 28.5707M165.994 23.521C165.994 23.521 165.942 23.521 165.905 23.5263H165.873C165.532 23.5631 165.101 23.7893 164.549 24.2153C164.212 24.4889 163.876 24.7624 163.545 25.0307C162.451 25.9144 161.326 26.8244 159.844 28.0868C158.256 29.4492 156.71 30.9167 156.216 31.4059C156.064 31.5427 155.717 31.8741 155.78 32.0424C155.78 32.0897 155.811 32.1949 155.964 32.1949C156.053 32.1949 156.158 32.1634 156.248 32.1318H156.274C156.689 32.0003 157.11 31.9056 157.53 31.832C158.24 31.6952 158.929 31.59 159.817 31.4953C159.518 32.0056 159.239 32.4737 158.966 32.9314C158.592 33.5468 158.245 34.1307 157.877 34.7829C157.415 35.6193 157.367 35.856 157.441 35.9875C157.478 36.0453 157.541 36.0769 157.636 36.0769C157.751 36.0769 157.909 36.0348 158.135 35.9664C158.839 35.756 159.239 35.5299 159.633 34.8355C160.306 33.6257 160.821 32.7367 161.731 31.2955C162.073 31.2639 162.551 31.2429 163.008 31.2271C163.14 31.2218 163.24 31.2271 163.319 31.2271H163.413C163.492 31.2271 163.608 31.2271 163.629 31.1166C163.65 31.0535 163.639 30.9851 163.597 30.9325C163.508 30.801 163.276 30.7484 163.098 30.7326C162.982 30.7221 162.84 30.7221 162.672 30.7221C162.477 30.7221 162.267 30.7221 162.078 30.7326H161.983C162.73 29.4071 164.207 26.7981 165.994 24.026V23.521H165.989H165.994ZM150.097 23.5157C147.915 23.7104 144.724 25.746 142.837 28.1499C141.48 29.8594 140.765 31.7689 140.923 33.2575V33.289C141.007 34.057 141.586 34.8303 142.695 34.8303C142.779 34.8303 142.863 34.8303 142.952 34.8197C144.209 34.6882 145.986 33.7993 146.922 32.1634C147.552 31.0798 147.694 29.8963 147.284 29.1598C147.042 28.7285 146.648 28.4918 146.144 28.476C145.481 28.455 144.65 28.9074 144.198 29.3545C144.093 29.4597 143.925 29.6543 144.004 29.7753C144.009 29.7805 144.009 29.7858 144.02 29.7911C144.056 29.8174 144.088 29.8331 144.125 29.8331C144.198 29.8331 144.256 29.7858 144.351 29.7016C144.693 29.3913 145.223 29.0178 145.786 29.0178H145.833C145.97 29.0336 146.065 29.102 146.128 29.223C146.343 29.6543 146.096 30.6432 145.507 31.6952C144.656 33.2364 143.625 34.299 142.884 34.4042C142.411 34.4568 142.143 34.1938 142.085 33.6415C141.954 32.358 143.126 30.3066 144.272 28.8179C146.622 25.7197 148.504 24.1943 150.186 24.0207C150.312 24.0102 150.423 23.9997 150.528 23.9997C151.117 23.9997 151.543 24.1996 151.863 24.6309C151.879 24.6519 151.89 24.6677 151.905 24.6888C151.963 24.7677 152.031 24.8571 152.126 24.8571C152.147 24.8571 152.168 24.8571 152.194 24.8413C152.289 24.7834 152.31 24.5888 152.173 24.3416C151.869 23.8103 151.217 23.4894 150.423 23.4894C150.318 23.4894 150.207 23.4947 150.097 23.5052M158.245 22.6583C156.064 22.853 152.873 24.8886 150.985 27.2925C149.629 29.002 148.914 30.9115 149.077 32.4053V32.4369C149.161 33.2049 149.739 33.9781 150.843 33.9781C150.927 33.9781 151.017 33.9729 151.101 33.9676C152.357 33.8361 154.134 32.9471 155.07 31.3112C155.701 30.2277 155.843 29.0441 155.433 28.3077C155.191 27.8764 154.797 27.6397 154.292 27.6239C154.276 27.6239 154.255 27.6239 154.239 27.6239C153.582 27.6239 152.789 28.071 152.347 28.5076C152.237 28.6128 152.074 28.8074 152.147 28.9231C152.147 28.9337 152.158 28.9337 152.163 28.9389C152.194 28.9652 152.231 28.981 152.268 28.981C152.347 28.981 152.415 28.9231 152.494 28.8495C152.836 28.5392 153.367 28.1657 153.929 28.1657H153.977C154.113 28.1815 154.208 28.2498 154.266 28.3708C154.487 28.7969 154.234 29.7911 153.645 30.8431C152.799 32.3843 151.763 33.4468 151.022 33.552C150.549 33.5994 150.276 33.3416 150.218 32.7893C150.081 31.5059 151.259 29.4544 152.405 27.9658C154.755 24.8676 156.637 23.3422 158.319 23.1686C158.445 23.1528 158.556 23.1475 158.661 23.1475C159.25 23.1475 159.675 23.3474 159.996 23.7788C160.012 23.7945 160.028 23.8156 160.038 23.8366C160.096 23.9155 160.164 24.0102 160.254 24.0102C160.275 24.0102 160.296 24.0102 160.322 23.9944C160.417 23.9366 160.438 23.7419 160.301 23.5C159.996 22.9634 159.339 22.6478 158.55 22.6478C158.445 22.6478 158.335 22.6531 158.224 22.6636" fill="white"/>
</mask>
<g mask="url(#mask0_73_3056)">
<path d="M166 22.6426H134.247V36.0822H166V22.6426Z" fill="url(#paint0_linear_73_3056)"/>
</g>
<path d="M43.5088 24.7992C43.5088 27.8605 44.2238 32.8892 47.2624 32.8892C49.4862 32.8892 50.995 30.2329 50.995 25.4935C50.995 23.5052 50.7794 21.0171 49.8699 19.2971C49.0814 17.7874 48.1509 17.3351 47.3097 17.3351C44.7285 17.3351 43.5088 20.8067 43.5088 24.7992ZM54.7012 24.9201C54.7012 30.9956 50.9003 33.8466 47.1678 33.8466C43.1724 33.8466 39.8499 30.8062 39.8499 25.0885C39.8499 19.3707 43.4615 16.4251 47.2624 16.3567C51.8519 16.262 54.7012 20.1597 54.7012 24.9254" fill="#020000"/>
<mask id="mask1_73_3056" style="mask-type:luminance" maskUnits="userSpaceOnUse" x="38" y="14" width="91" height="25">
<path d="M66.6242 37.5392V38.3808C66.7767 38.365 66.9659 38.344 67.1657 38.3177L67.1499 37.9442V37.4235C66.987 37.4708 66.8135 37.5076 66.6242 37.5392ZM103.298 34.0833L103.508 34.0728C103.44 34.0728 103.366 34.078 103.298 34.0833ZM76.4393 34.1096H76.3972C77.517 34.0517 78.4528 34.0202 79.4989 34.0202C80.7659 34.0202 84.6667 34.0675 87.0324 34.1622C87.0324 34.1306 87.0376 34.1043 87.0429 34.078C84.735 34.0044 81.5913 33.9676 80.4084 33.9676C79.0468 33.9676 77.8797 34.0202 76.4393 34.1096ZM103.708 34.0622L103.508 34.0728C104.365 34.0307 105.217 34.0149 106.074 34.0149C106.647 34.0149 108.918 34.0885 109.47 34.1096V34.0254C108.581 33.9939 107.372 33.9623 106.983 33.9623C105.764 33.9623 104.696 33.9939 103.708 34.057M110.952 33.2522V34.1148C112.098 34.0675 113.25 34.0202 114.375 34.0202C115.426 34.0202 116.383 34.0675 117.482 34.1148V34.0202C116.73 33.9886 116.036 33.9623 115.284 33.9623C114.185 33.9623 113.039 34.0096 111.935 34.057L111.478 34.078V33.2311C111.294 33.2522 111.105 33.2522 110.952 33.2522ZM75.5088 33.2785V34.1622C75.6928 34.1517 75.8662 34.1411 76.0345 34.1306V33.1996C75.8768 33.2364 75.7033 33.2627 75.5088 33.2785ZM102.772 33.2522V34.1148C102.946 34.1043 103.124 34.0938 103.298 34.0833V33.1838C103.14 33.2154 102.972 33.2417 102.772 33.2522ZM100.554 30.8588C100.88 30.5537 101.148 30.2224 101.369 29.9015L101.242 29.8121C101.058 30.1224 100.838 30.4906 100.554 30.8588ZM86.6749 29.4491C86.4751 30.3802 86.2228 31.0482 85.9231 31.5269C86.4015 31.1902 86.7853 30.5748 87.0902 29.4491H86.6802H86.6749ZM55.9417 28.3971C55.968 29.0178 55.9891 29.6648 55.9891 30.2907C55.9891 31.1744 55.9417 32.0108 55.8681 32.9208C57.2771 33.6151 58.6439 34.2621 60.5049 34.2621C60.7993 34.2621 61.078 34.2411 61.3566 34.2043C59.3852 34.1885 57.9079 33.4678 56.6041 32.8261L56.3676 32.7104L56.3886 32.4526C56.4727 31.4006 56.5095 30.6221 56.5095 29.8489C56.5095 29.3807 56.4937 28.9021 56.478 28.3971H55.9365H55.9417ZM57.2508 28.3971C57.2508 28.5339 57.2613 28.6654 57.2613 28.7969C57.2613 28.6654 57.256 28.5286 57.2508 28.3971ZM81.8962 26.0195V26.0721H82.2274C83.426 26.0721 83.6415 26.1931 83.8045 26.6928C83.8781 27.0032 83.9727 27.8658 84.0411 28.4392H85.0662C85.0662 28.4392 85.0662 28.4024 85.0662 28.3866H84.6141L84.53 27.6922C84.4722 27.1925 84.3933 26.5718 84.3407 26.3404C84.2619 26.1089 84.2303 26.0143 83.1369 26.0143H81.8962V26.0195ZM109.186 26.5192C109.186 26.5192 109.196 26.5403 109.207 26.5561L111.883 31.6531C111.972 31.8319 112.125 32.1791 112.198 32.4263C112.598 32.4053 112.766 32.3317 112.766 32.2002C112.756 32.1002 112.598 31.6847 112.451 31.3901L109.775 26.2983C109.475 25.746 109.37 25.5566 109.186 25.4988V26.5192ZM84.1147 22.511C84.0306 23.2106 83.9675 23.7103 83.8729 24.068C84.346 24.0049 84.4301 23.7156 84.5826 22.511H84.1147ZM89.9291 20.67C89.1878 22.0587 88.804 23.947 88.804 25.7407C88.804 30.3591 90.9332 34.2832 95.8591 34.2832C96.1745 34.2832 96.4689 34.2621 96.7528 34.2306C92.1739 34.22 89.3298 30.801 89.3298 25.3041C89.3298 23.3579 89.7556 21.4432 90.4968 20.0493C90.7176 19.6285 90.9752 19.234 91.2696 18.8658C90.7387 19.3813 90.2813 19.9809 89.9238 20.67M38.9349 25.5251C38.9349 31.2428 42.2574 34.2832 46.2529 34.2832C46.5367 34.2832 46.8206 34.2621 47.1045 34.2253C43.2878 34.199 39.4607 31.3691 39.4607 25.0832C39.4607 22.8214 40.1388 20.4648 41.5372 18.708C39.9811 20.1545 38.9297 22.4163 38.9297 25.5198M117.03 25.5251C117.03 31.2428 120.352 34.2832 124.347 34.2832C124.631 34.2832 124.915 34.2621 125.199 34.2253C121.382 34.199 117.555 31.3691 117.555 25.0832C117.555 22.8214 118.228 20.4648 119.637 18.708C118.081 20.1545 117.03 22.4163 117.03 25.5198M82.4902 18.2661C82.2589 18.2766 82.1222 18.2819 82.0381 18.3187H82.4639C84.7823 18.3187 85.4079 18.75 85.7654 21.4274H86.7958C86.7958 21.4274 86.7958 21.3906 86.7958 21.3748H86.349L86.3069 21.0435C85.9652 18.5028 85.4868 18.2661 83.3892 18.2661H82.506H82.4902ZM57.3033 18.224C56.6094 18.8921 55.9891 20.0177 55.9891 21.6221C55.9891 24.6361 57.9289 25.8091 60.5785 27.2451C62.061 28.0341 63.4489 28.7758 63.4489 30.3539C63.4489 30.7063 63.349 31.1797 63.0862 31.6268C63.7591 31.1429 63.9746 30.3959 63.9746 29.9173C63.9746 28.5654 62.7392 27.9079 61.3093 27.1452C58.8437 25.8091 56.5148 24.5519 56.5148 21.1855C56.5148 19.7337 56.9879 18.729 57.4558 18.082C57.4032 18.1293 57.3507 18.1714 57.3033 18.2188M97.0472 18.0767C98.0934 18.1609 99.0239 18.6922 99.5654 19.8073C99.9702 20.6226 100.117 21.5747 100.233 22.4637H101.358C101.358 22.4637 101.358 22.4269 101.358 22.4111H100.811L100.764 22.0797C100.638 21.1644 100.496 20.2807 100.133 19.5443C99.5128 18.2766 98.4403 18.0084 97.657 18.0084C97.4468 18.0084 97.247 18.0347 97.0472 18.0767ZM61.467 18.0504C63.8011 18.224 64.0535 20.428 64.1902 21.601H65.3835C65.3835 21.601 65.3835 21.5642 65.3835 21.5484H64.7579L64.7159 21.2118C64.5319 19.639 64.1639 17.9873 62.0821 17.9873C61.8508 17.9873 61.651 18.0136 61.4617 18.0557M46.7365 17.798C47.483 17.9137 48.2716 18.4239 48.9603 19.7337C49.8698 21.4537 50.0853 23.947 50.0853 25.9301C50.0853 28.6969 49.5701 30.7431 48.6974 31.974C49.9013 30.9956 50.611 28.6969 50.611 25.4882C50.611 22.8898 50.2378 20.8067 49.5333 19.4707C48.9235 18.3029 48.177 17.7138 47.3148 17.7138C47.1098 17.7138 46.9258 17.7454 46.7418 17.7927M124.831 17.798C125.572 17.9137 126.366 18.4239 127.05 19.7337C127.959 21.4537 128.175 23.947 128.175 25.9301C128.175 28.6969 127.659 30.7431 126.787 31.9792C127.991 31.0008 128.7 28.7022 128.7 25.4935C128.7 22.895 128.327 20.812 127.623 19.4759C127.013 18.3082 126.266 17.7191 125.404 17.7191C125.199 17.7191 125.015 17.7506 124.831 17.798ZM67.2708 17.8295C68.6114 17.9873 69.0162 18.445 69.0162 19.8073V33.5625C69.0162 34.6671 69.0004 35.6298 68.6167 36.3451C69.4894 35.7981 69.5419 34.7513 69.5419 33.1259V19.3707C69.5419 18.2082 69.2791 17.9137 68.133 17.7769L67.7913 17.7348V17.0668C67.6178 17.0563 67.4391 17.051 67.2656 17.0352V17.8295H67.2708ZM75.5771 17.9137C76.7494 18.0347 77.2278 18.5133 77.2489 19.781V31.1218C77.2436 31.6373 77.1805 32.0213 77.0701 32.3264C77.5696 32.1423 77.7588 31.7215 77.7746 30.68V19.3444C77.7536 18.3134 77.4434 17.961 76.4445 17.8611L76.0976 17.8243V17.03C75.9293 17.0195 75.7559 17.0142 75.5719 17.0037V17.9137H75.5771ZM111.525 17.8453C112.361 17.8926 113.008 17.9873 113.008 18.5607C113.008 18.871 112.766 19.2077 112.577 19.4707L109.517 23.3947C109.407 23.5367 109.312 23.6525 109.228 23.7629C109.281 23.7261 109.338 23.6788 109.407 23.6051L109.475 23.5473C109.475 23.5473 109.654 23.3211 109.833 23.0896L113.187 18.7974C113.323 18.6133 113.534 18.3134 113.534 18.1241C113.534 17.961 113.344 17.8453 112.414 17.7927L112.051 17.7717V17.0458C111.878 17.03 111.704 17.0195 111.525 17.0037V17.84V17.8453ZM102.82 17.819C104.16 17.961 104.491 18.5133 104.544 19.923V30.8851C104.528 31.5163 104.476 31.974 104.355 32.3211C104.875 32.1476 105.038 31.7057 105.075 30.4328V19.4812C105.033 18.1977 104.775 17.8716 103.697 17.7559L103.356 17.7191V17.0089C103.182 16.9984 103.009 16.9932 102.83 16.9774V17.8137L102.82 17.819ZM91.9373 14.4473L94.9286 16.0726H96.8895L96.9894 16.02H95.7434L92.852 14.4473H91.9425H91.9373Z" fill="white"/>
</mask>
<g mask="url(#mask1_73_3056)">
<path d="M83.819 -30.4581L26.9771 26.4163L83.819 83.2906L140.661 26.4163L83.819 -30.4581Z" fill="url(#paint1_linear_73_3056)"/>
</g>
<path d="M58.1662 27.9605C58.1925 29.3229 58.2135 30.7116 59.1966 31.6689C59.9641 32.4106 60.8683 32.4842 61.4466 32.4842C63.744 32.4842 64.3643 30.8115 64.3643 29.9226C64.3643 28.3445 62.9765 27.6029 61.494 26.8138C58.8391 25.3778 56.9045 24.2048 56.9045 21.1908C56.9045 19.5864 57.5248 18.4608 58.2188 17.7927C59.5593 16.4514 61.4256 16.4514 61.9986 16.4514C63.6021 16.4514 64.9637 16.7618 66.3042 17.0511C66.2779 17.7454 66.2779 18.4397 66.2779 19.1341C66.2779 19.8284 66.2779 20.4754 66.3042 21.1697H65.1108C64.9689 19.9494 64.7061 17.6034 62.0985 17.6034C60.3794 17.6034 59.6119 18.7553 59.6119 19.8758C59.6119 21.1224 60.616 21.7168 61.3099 22.1271C62.293 22.6794 63.2709 23.1791 64.2277 23.7525C65.1845 24.3521 67.0718 25.5725 67.0718 28.4392C67.0718 31.7426 64.6798 33.8256 61.4256 33.8256C59.5593 33.8256 58.1977 33.1786 56.7888 32.4842C56.8624 31.5742 56.9097 30.7379 56.9097 29.8542C56.9097 29.2335 56.8834 28.5865 56.8624 27.9658H58.1767L58.1662 27.9605Z" fill="#020000"/>
<path d="M68.1804 16.5934C69.3265 16.6828 70.4515 16.7301 71.5765 16.7301C72.7016 16.7301 73.8739 16.6881 75.0462 16.5934V17.435C73.6846 17.5718 73.3272 18.0031 73.3272 19.4128V29.0967C73.2798 32.2791 73.2798 33.4415 72.5386 34.8933C71.177 37.576 68.6378 37.8232 67.5391 37.9389V37.0973C69.8837 36.7344 69.931 35.1669 69.931 33.1207V19.3655C69.931 18.0031 69.5263 17.5455 68.1857 17.3877V16.5934H68.1804Z" fill="#020000"/>
<path d="M76.4922 16.5671C78.4531 16.6618 79.4362 16.7092 81.6599 16.7092C85.3925 16.7092 85.8709 16.6829 87.4743 16.5671C87.4953 18.4345 87.5216 18.8658 87.7109 20.9962H86.6805C86.323 18.3188 85.7027 17.8874 83.379 17.8874H82.4958C81.7756 17.9085 81.539 18.0295 81.539 18.7501V24.4678H83.3107C84.7459 24.4941 84.7669 24.2048 85.035 22.0745H86.0391C85.9655 23.2001 85.8972 24.2259 85.8972 25.2832C85.8972 26.1932 85.9445 27.1032 85.9918 28.0132H84.9614C84.8878 27.4398 84.7932 26.5771 84.7196 26.2668C84.5513 25.7618 84.3358 25.6461 83.1424 25.6461H81.518V31.5322C81.4917 32.1529 81.6862 32.3475 82.4275 32.3685H83.8889C85.7289 32.2949 86.9276 32.1055 87.5952 29.0178H88.6466C88.2892 30.9325 88.2156 31.4375 87.9527 33.7309C85.5817 33.6362 81.6862 33.5889 80.4192 33.5889C79.1523 33.5889 77.9799 33.6362 76.4238 33.7309V32.8472C77.6908 32.7525 78.1429 32.2738 78.1692 30.6905V19.3497C78.1429 18.0821 77.6645 17.6034 76.4974 17.4824V16.5724L76.4922 16.5671Z" fill="#020000"/>
<path d="M103.062 30.0382C102.226 31.3532 100.596 33.8413 96.7691 33.8413C91.8431 33.8413 89.714 29.9172 89.714 25.2989C89.714 23.5052 90.0978 21.6115 90.839 20.2281C92.106 17.7874 94.6399 16.3724 97.1791 16.3724C98.2778 16.3724 99.4029 16.6617 100.454 16.9248C101.316 17.1404 101.506 17.1615 102.273 17.3087C102.226 18.0715 102.2 18.8394 102.2 19.6074C102.2 20.4227 102.226 21.238 102.273 22.0271H101.148C101.027 21.1434 100.885 20.186 100.481 19.3707C99.8813 18.1504 98.8298 17.6243 97.6575 17.6243C96.1277 17.6243 94.9291 18.6027 94.2141 19.9704C93.6148 21.1171 93.3309 22.7687 93.3309 24.4204C93.3309 28.9915 95.1709 32.3158 98.0413 32.3158C98.5197 32.3158 99.119 32.2212 99.7183 31.9108C101.033 31.2638 101.7 30.1382 102.158 29.3754L103.067 30.0435L103.062 30.0382Z" fill="#020000"/>
<path d="M97.7996 15.6414H95.8387L92.8474 14.0107H94.7137L96.8428 14.7524L98.9982 14.0107H100.838L97.7996 15.6414Z" fill="#020000"/>
<path d="M103.734 16.546C104.88 16.6407 106.005 16.688 107.157 16.688C108.229 16.688 109.333 16.6407 110.432 16.546V17.4087C109.165 17.598 108.902 18.0767 108.828 19.3234V24.2521C109.165 24.2258 109.38 24.2047 109.691 23.8681C109.764 23.8208 109.98 23.5315 110.432 22.9581L113.492 19.0341C113.681 18.771 113.923 18.4344 113.923 18.1241C113.923 17.5507 113.276 17.456 112.44 17.4087V16.5723C113.397 16.646 114.233 16.7143 115.121 16.7143C115.957 16.7143 116.793 16.6407 117.655 16.5723V17.435C116.315 17.6717 116.146 17.8663 114.448 19.9704L112.151 22.8897L116.383 30.7168C117.34 32.4158 117.529 32.7051 118.391 32.8261V33.6887C117.292 33.6414 116.336 33.5941 115.284 33.5941C114.159 33.5941 113.013 33.6414 111.862 33.6887V32.8261C112.34 32.8261 113.155 32.8261 113.155 32.2054C113.155 32.016 112.919 31.4637 112.798 31.227L110.116 26.13C109.664 25.2936 109.543 25.0779 108.802 25.099V31.0587C108.828 32.137 109.065 32.8313 110.379 32.8313V33.694C109.827 33.673 107.556 33.5993 106.983 33.5993C105.884 33.5993 104.786 33.6256 103.682 33.694V32.8313C105.091 32.7367 105.406 32.2317 105.453 30.459V19.4969C105.406 18.0872 105.07 17.5349 103.729 17.3929V16.5565L103.734 16.546Z" fill="#020000"/>
<path d="M121.599 24.7992C121.599 27.8605 122.314 32.8892 125.352 32.8892C127.576 32.8892 129.085 30.2329 129.085 25.4935C129.085 23.5052 128.869 21.0171 127.96 19.2971C127.171 17.7874 126.235 17.3351 125.399 17.3351C122.818 17.3351 121.599 20.8067 121.599 24.7992ZM132.791 24.9201C132.791 30.9956 128.99 33.8466 125.258 33.8466C121.262 33.8466 117.94 30.8062 117.94 25.0885C117.94 19.3707 121.551 16.4251 125.352 16.3567C129.942 16.262 132.791 20.1597 132.791 24.9254" fill="#020000"/>
<mask id="mask2_73_3056" style="mask-type:luminance" maskUnits="userSpaceOnUse" x="-1" y="6" width="34" height="35">
<path d="M0.342703 7.87736C-0.125182 8.00887 -0.372266 8.17193 -0.482666 8.4139V10.034C-0.251352 13.3689 0.62133 23.9365 3.13949 29.7068C6.15708 36.6344 12.1975 39.5643 14.8839 40.4059H17.339C20.0254 39.5643 26.0711 36.6344 29.0834 29.7068C32.0274 22.9476 32.7213 9.6132 32.7739 9.01881C32.8265 8.41916 32.6688 8.09303 31.8802 7.87736C31.0864 7.6617 24.7936 6.40979 16.1141 6.40979C7.43456 6.40979 1.13653 7.6617 0.347961 7.87736" fill="white"/>
</mask>
<g mask="url(#mask2_73_3056)">
<path d="M16.1679 -10.2471L-17.4741 23.4141L16.1679 57.0752L49.8099 23.4141L16.1679 -10.2471Z" fill="url(#paint2_linear_73_3056)"/>
</g>
<path d="M30.0243 9.56063C29.3304 9.37126 24.4255 8.39814 17.5281 8.26664L15.1467 8.25085H14.7524V8.26664C10.4468 8.34554 6.99811 8.74531 4.84269 9.07144C3.33915 9.29762 2.45595 9.49224 2.19835 9.56063C1.44133 9.77103 1.15744 10.1392 1.21527 10.8441C1.21527 10.8809 1.22579 10.9598 1.23104 11.0913C1.29413 12.0434 1.37298 13.0218 1.4571 14.0054C1.55173 15.0206 1.65687 16.0516 1.77778 17.0615C1.84087 17.5876 1.90921 18.1241 1.98281 18.6711C2.05641 19.1972 2.13527 19.7337 2.21938 20.2702C2.30349 20.8015 2.38761 21.3328 2.48224 21.8588C2.57161 22.3743 2.67675 22.9055 2.78715 23.4421C2.96589 24.3152 3.14464 25.0832 3.33389 25.7881L3.46006 26.2141C3.77023 27.2977 4.10143 28.2551 4.45366 29.0651C7.81296 36.7817 15.2255 38.8489 16.1034 38.8489C16.9814 38.8489 24.3939 36.7817 27.7532 29.0651C28.1055 28.2551 28.4419 27.2925 28.7521 26.1984H28.7679L28.8783 25.7881C30.2031 20.7805 30.7656 14.4315 30.9811 11.0913C30.9916 10.9651 30.9969 10.8809 30.9969 10.8441C31.06 10.1445 30.7761 9.77103 30.0138 9.56063" fill="#020000"/>
<path d="M16.1035 23.5416L16.1132 23.5513L16.1035 23.5367V23.5416Z" fill="#F6F9EA"/>
<path d="M16.0615 23.5893C16.0931 23.5577 16.1246 23.5262 16.1562 23.4999C16.1246 23.5314 16.0931 23.563 16.0615 23.5893Z" fill="#F6F9EA"/>
<path d="M16.0615 23.5904C16.0936 23.5585 16.1256 23.5318 16.1523 23.4999C16.1203 23.5318 16.0882 23.5585 16.0615 23.5904Z" fill="#F6F9EA"/>
<mask id="mask3_73_3056" style="mask-type:luminance" maskUnits="userSpaceOnUse" x="2" y="10" width="29" height="27">
<path d="M15.3516 33.5099L15.5304 33.531C15.6302 33.5415 15.6565 33.6625 15.6565 33.8834V35.5351C15.6565 35.7665 15.6355 35.8665 15.5304 35.877L15.2885 35.9085C15.2412 35.9559 15.2675 36.019 15.3043 36.04C15.441 36.0348 15.7354 36.019 15.8773 36.019C16.0508 36.019 16.4188 36.0295 16.5029 36.04C16.5555 36.019 16.5713 35.9559 16.524 35.9085L16.2611 35.877C16.156 35.8665 16.1192 35.7613 16.1192 35.5351V33.5731C16.6133 33.5205 17.0129 33.7203 17.0129 34.1569C17.0129 34.5146 16.7395 34.825 16.2874 34.8513C16.2874 34.9302 16.4398 34.9459 16.5397 34.9459C16.934 34.9459 17.4755 34.6987 17.4755 34.1569C17.4755 33.7256 17.1075 33.3784 16.34 33.3784C16.1665 33.3784 16.0456 33.3942 15.9089 33.3942C15.7301 33.3942 15.4725 33.3837 15.3832 33.3732C15.3306 33.3942 15.3148 33.4573 15.3621 33.4994M11.2826 26.7244C12.2184 27.1031 12.0817 27.8869 11.3352 28.2814C10.0892 28.9389 8.38593 30.1119 9.82112 32.3474C9.82112 32.3474 9.36375 32.3369 9.34272 32.8156C9.3217 33.2574 9.74227 33.2785 9.74227 33.2785C9.43735 33.1049 9.83689 32.5421 10.5466 33.1733C11.1722 33.7309 12.3183 33.7151 12.2026 33.6993C11.1827 33.5678 10.7569 32.884 10.6465 32.7209C9.75278 31.3638 11.1722 29.7384 11.4981 30.5064C11.7084 31.0166 11.188 31.1639 11.2511 31.1639C11.7557 31.1902 12.3393 30.0751 11.556 29.7226C11.0513 29.4965 10.7674 29.7384 10.6149 29.9804C10.4993 30.1645 10.4572 30.3539 10.4625 30.3223C10.4888 29.8173 10.8305 29.5228 11.4508 29.244C12.0712 28.9652 12.9018 28.1972 12.4024 27.282C12.1237 26.7717 11.5244 26.7349 11.3404 26.7349C11.3036 26.7349 11.2826 26.7349 11.2826 26.7349M19.9201 27.2714C19.4206 28.192 20.2513 28.9547 20.8716 29.2335C21.4919 29.5122 21.8337 29.8068 21.8599 30.3118C21.8599 30.3433 21.8231 30.154 21.7075 29.9699C21.555 29.7279 21.2711 29.4859 20.7665 29.7121C19.9831 30.0646 20.5614 31.1797 21.0714 31.1534C21.1345 31.1534 20.614 31.0061 20.8243 30.4959C21.145 29.7279 22.5697 31.3585 21.6707 32.7104C21.5603 32.8735 21.1397 33.5573 20.1198 33.6888C20.0094 33.7046 21.1502 33.7203 21.7758 33.1628C22.4855 32.5368 22.8903 33.0944 22.5854 33.268C22.5854 33.268 23.0113 33.2469 22.985 32.8051C22.9587 32.3317 22.5013 32.3369 22.5013 32.3369C23.9312 30.1066 22.2279 28.9284 20.9873 28.2709C20.2407 27.8763 20.1041 27.0979 21.0398 26.7139C21.0398 26.7139 21.0188 26.7139 20.982 26.7139C20.798 26.7139 20.1987 26.7559 19.9201 27.2609M16.1297 26.5035L15.4883 26.2562C15.8931 26.6455 15.7774 29.1388 15.7774 29.1388C15.7774 29.1388 14.6051 29.6595 13.8323 29.7226V30.2276H18.427V29.7226C17.6542 29.6595 16.4819 29.1388 16.4819 29.1388C16.4819 29.1388 16.3715 26.6455 16.771 26.2562L16.1297 26.5035ZM16.177 18.6922C16.1454 18.6922 16.1192 18.6922 16.0876 18.6922C16.0876 18.6922 16.0876 18.6922 16.0824 18.6922C15.1151 18.7027 13.9795 18.7816 13.9795 18.7816C14.2529 18.9815 14.1215 21.2539 13.5642 23.1107C13.1909 24.3521 13.7219 25.2831 14.3002 25.4304C14.6209 25.5093 14.9521 25.6829 15.4147 25.746C15.6197 25.7881 15.8195 25.8039 15.9614 25.8091C15.9614 25.8091 15.9825 25.8091 16.0245 25.8091H16.1244C16.1244 25.8091 16.1612 25.8091 16.177 25.8091C16.1928 25.8091 16.2138 25.8091 16.2296 25.8091H16.3294C16.3715 25.8091 16.3925 25.8091 16.3925 25.8091C16.5397 25.8039 16.7342 25.7881 16.9393 25.746C17.4072 25.6881 17.7384 25.5093 18.059 25.4304C18.5217 25.3199 19.2577 24.2469 18.795 23.1107C18.059 21.317 18.1011 18.9815 18.3745 18.7816C18.3745 18.7816 17.2389 18.7027 16.2716 18.6922H16.2664C16.2401 18.6922 16.2085 18.6922 16.177 18.6922ZM4.76377 26.4509C4.76377 26.4509 4.74274 26.393 4.76377 26.3667C4.76902 26.3614 5.39462 25.5566 6.12011 24.715C6.35668 24.4362 6.42502 24.4205 6.47233 24.4362C6.50388 24.4415 6.5249 24.4678 6.53542 24.4994C6.58273 24.6572 6.15165 25.3725 5.87302 25.6566C5.31051 26.2247 4.86365 26.4614 4.84788 26.4719C4.83737 26.4719 4.82685 26.4772 4.81634 26.4772C4.79531 26.4772 4.77954 26.4666 4.76377 26.4509ZM5.2632 29.0546C5.2632 29.0546 5.23691 28.9915 5.25794 28.9652C5.26845 28.9494 6.45131 27.3872 7.05587 26.2983C7.08742 26.2142 7.56582 24.9359 7.67096 23.8366C7.73405 23.1685 7.79713 23.1422 7.84444 23.1265C7.87599 23.1159 7.90753 23.1212 7.93382 23.1422C8.09153 23.2737 8.1073 24.5888 7.95484 25.3094C7.5185 27.4029 5.37359 29.0441 5.35257 29.0651C5.34205 29.0757 5.32628 29.0809 5.31051 29.0809C5.29474 29.0809 5.27371 29.0757 5.2632 29.0599M3.89108 21.6747C3.85954 21.6536 3.85428 21.6115 3.87006 21.58C3.87006 21.5747 4.2328 20.9277 4.25908 20.5069C4.30114 19.8599 4.40103 19.8599 4.44834 19.8547C4.53771 19.8547 4.56926 19.9599 4.6008 20.1703C4.7112 20.9488 4.012 21.6431 3.98046 21.6694C3.96469 21.6852 3.94891 21.6905 3.92788 21.6905C3.91211 21.6905 3.89634 21.6852 3.88057 21.6747M4.95828 21.5116C4.92674 21.4853 4.92148 21.4432 4.94251 21.4117C4.94251 21.4064 5.29474 20.8594 5.32102 20.4385C5.33154 20.286 5.32102 20.1335 5.32102 19.9862C5.31577 19.8073 5.30525 19.6285 5.32102 19.4391C5.34731 19.1866 5.43668 19.0078 5.58388 18.9078C5.77314 18.7816 5.98342 18.8395 5.99394 18.8395C6.03074 18.85 6.05176 18.8868 6.04651 18.9236C6.04125 18.9604 6.00971 18.9868 5.97291 18.9868C5.97291 18.9868 5.97291 18.9868 5.96239 18.9868C5.88879 18.9868 5.83622 19.0078 5.79416 19.0551C5.71531 19.1446 5.64171 19.3602 5.72056 19.902C5.83622 20.6805 5.08971 21.4695 5.05817 21.5011C5.0424 21.5169 5.02137 21.5274 5.00559 21.5274C4.98982 21.5274 4.97405 21.5221 4.95828 21.5116ZM10.1103 20.4333C9.96832 20.3807 9.73701 20.3912 9.77381 20.144C9.80535 19.9546 9.91575 19.7915 10.1208 19.7758C10.3994 19.7495 10.5887 19.6758 10.5519 19.3392C10.5361 19.2129 10.6465 19.1551 10.7516 19.1235C11.188 18.992 11.6191 18.8552 12.0554 18.7343C12.2289 18.6869 12.4287 18.7027 12.3866 18.9552C12.2972 19.4602 12.1816 19.9651 11.8031 20.3491C11.5612 20.5911 11.2616 20.5806 10.9356 20.5753C10.8936 20.5753 10.8515 20.5806 10.8095 20.5806C10.5781 20.5806 10.3416 20.5227 10.1103 20.4333ZM9.5425 18.4607C9.51621 18.3924 9.60032 18.2977 9.73175 18.2503C9.85792 18.203 9.98409 18.224 10.0051 18.2924C10.0314 18.3608 9.94729 18.4555 9.82112 18.5028C9.77381 18.5186 9.72649 18.5291 9.68969 18.5291C9.61609 18.5291 9.56352 18.5081 9.54775 18.4607M15.0414 16.0621C14.9048 16.767 14.8417 16.6513 14.3317 17.0826C13.3276 18.0031 12.0607 18.4607 10.8042 18.9026C10.3153 19.0762 10.6517 18.5607 10.5414 18.3976C10.2995 18.3503 10.2522 18.1609 10.2049 17.961C10.0682 17.3719 9.82638 17.1825 9.22181 17.1931C8.34387 17.2036 7.85496 17.677 7.72353 18.6448C7.69199 18.8921 7.73404 19.3076 7.53427 19.3234C7.23987 19.3497 7.3345 18.9184 7.20833 18.7132C7.14525 18.608 7.10845 18.5449 7.0769 18.3766C6.89816 17.4561 5.28948 17.7559 4.70594 18.2083C4.54297 18.3345 3.92789 18.8553 3.69657 19.1077C3.35486 19.4865 2.78183 19.8705 2.16675 20.0756C2.16675 20.0756 2.16675 20.0809 2.16675 20.0861C2.25086 20.6332 2.34023 21.175 2.44012 21.722C2.4664 21.8746 2.49269 22.0218 2.52423 22.1691C2.68195 22.2901 2.8712 22.2165 3.03417 22.1165C3.24446 21.985 3.3864 21.843 3.644 22.085C3.79646 22.227 4.04354 22.0744 4.23805 21.9745C4.39051 21.8956 4.49565 21.8062 4.69542 21.9955C4.94777 22.227 5.23165 21.985 5.45771 21.8272C5.64171 21.6957 5.78365 21.5379 5.98868 21.7799C6.19371 22.0271 6.07805 22.3322 5.90457 22.4269C4.932 22.9371 4.15394 23.7209 3.19714 24.2416C3.14457 24.3363 3.07097 24.3784 2.98686 24.3941C3.092 24.857 3.2024 25.3147 3.32332 25.7618C3.32332 25.7618 3.33383 25.7618 3.33909 25.7618C3.66503 26.9821 4.04354 28.1183 4.46937 29.0967C4.748 29.7332 5.05291 30.3328 5.38411 30.9009C5.59439 30.6537 5.80994 30.3591 6.04651 29.9594C6.63005 28.9547 7.69199 27.8921 8.08627 26.7665C8.29656 26.1615 8.67507 25.5672 8.89061 24.9675C9.16924 24.189 8.94844 23.2106 9.45838 22.9844C9.83164 22.8161 9.82112 22.4163 9.84741 22.0902C9.8737 21.722 10.0892 21.6589 10.4204 21.7536C10.9619 21.9061 11.5034 22.0534 12.0501 22.1639C12.66 22.2901 12.4812 22.4111 13.0805 22.1218C13.1804 22.0744 13.3487 21.8114 13.3697 21.6063C13.4065 21.2381 13.5957 20.6752 13.601 20.1703C13.6063 19.639 13.6273 19.1077 13.2435 18.6711C13.0648 18.4713 13.1331 18.4187 13.3697 18.3713C14.3475 18.1925 14.705 18.0189 15.6881 18.1767C15.9667 18.224 16.0561 18.1872 15.9194 17.8821C15.5461 17.0405 15.5724 16.909 15.2097 16.0463C15.1203 16.0621 15.1308 16.0569 15.0414 16.0726M27.464 26.4666C27.464 26.4666 27.0014 26.2247 26.4389 25.6513C26.1603 25.3673 25.7292 24.6519 25.7765 24.4941C25.787 24.4625 25.808 24.4415 25.8396 24.431C25.8922 24.4205 25.9552 24.431 26.1918 24.7098C26.912 25.5514 27.5376 26.3509 27.5482 26.3614C27.5692 26.3877 27.5692 26.4246 27.5482 26.4456C27.5324 26.4614 27.5166 26.4719 27.4956 26.4719C27.4851 26.4719 27.4746 26.4719 27.464 26.4666ZM26.9594 29.0599C26.9594 29.0599 24.7882 27.3977 24.3571 25.3042C24.2099 24.5888 24.2204 23.2685 24.3781 23.137C24.4044 23.1159 24.4359 23.1107 24.4675 23.1212C24.5148 23.1422 24.5779 23.1633 24.641 23.8313C24.7461 24.9307 25.2245 26.2089 25.256 26.2931C25.8606 27.3819 27.0435 28.9441 27.054 28.9599C27.075 28.9862 27.0698 29.0231 27.0487 29.0494C27.0382 29.0599 27.0172 29.0704 27.0014 29.0704C26.9856 29.0704 26.9751 29.0704 26.9594 29.0546M28.3209 21.6694C28.2894 21.6378 27.5902 20.9488 27.7059 20.1703C27.7374 19.9599 27.769 19.8547 27.8583 19.8547C27.9056 19.8547 28.0055 19.8599 28.0476 20.5069C28.0791 20.9277 28.4366 21.5747 28.4366 21.58C28.4576 21.6115 28.4471 21.6536 28.4156 21.6747C28.3998 21.6852 28.384 21.6905 28.3683 21.6905C28.3472 21.6905 28.3315 21.6799 28.3157 21.6694M26.2654 18.9236C26.2602 18.8868 26.2812 18.85 26.318 18.8395C26.3285 18.8395 26.5388 18.7816 26.728 18.9078C26.8752 19.0078 26.9646 19.1866 26.9909 19.4391C27.0119 19.6285 27.0014 19.8126 26.9909 19.9862C26.9856 20.1335 26.9804 20.286 26.9909 20.4385C27.0172 20.8541 27.3694 21.4064 27.3694 21.4117C27.3904 21.4432 27.3852 21.4906 27.3536 21.5116C27.3379 21.5221 27.3221 21.5274 27.3063 21.5274C27.2853 21.5274 27.2643 21.5169 27.2538 21.5011C27.2222 21.4695 26.4757 20.6805 26.5914 19.902C26.6702 19.3602 26.5914 19.1393 26.5178 19.0551C26.4757 19.0078 26.4179 18.9868 26.3443 18.9868C26.3075 18.9868 26.2759 18.9604 26.2707 18.9236M20.5089 20.3544C20.1251 19.9651 20.0147 19.4602 19.9253 18.9604C19.8833 18.7132 20.083 18.6922 20.2565 18.7395C20.6929 18.8605 21.1239 18.9973 21.5603 19.1288C21.6654 19.1603 21.7706 19.2182 21.7601 19.3444C21.7233 19.6811 21.9125 19.7547 22.1911 19.781C22.3962 19.8021 22.5118 19.9599 22.5434 20.1492C22.5802 20.3965 22.3489 20.3859 22.2069 20.4385C21.9388 20.5437 21.6549 20.6069 21.3815 20.5806C21.3185 20.5806 21.2606 20.5806 21.1975 20.5806C20.9399 20.5806 20.7034 20.549 20.5089 20.3544ZM22.4961 18.5028C22.3699 18.4555 22.2858 18.3661 22.3121 18.2924C22.3383 18.224 22.4593 18.203 22.5907 18.2503C22.7169 18.2977 22.801 18.3871 22.7747 18.4607C22.7589 18.5028 22.7011 18.5291 22.6327 18.5291C22.5907 18.5291 22.5486 18.5239 22.5013 18.5028M16.3925 17.8769C16.2558 18.182 16.3505 18.2188 16.6238 18.1714C17.6122 18.0136 17.9697 18.182 18.9422 18.3661C19.1841 18.4081 19.2472 18.4607 19.0684 18.6659C18.6846 19.1025 18.7057 19.639 18.7109 20.165C18.7162 20.67 18.9054 21.2328 18.9422 21.601C18.9633 21.8062 19.1315 22.0692 19.2314 22.1165C19.8307 22.4058 19.6467 22.2848 20.2618 22.1586C20.8085 22.0481 21.3553 21.9009 21.8915 21.7483C22.2227 21.6536 22.433 21.7168 22.4593 22.085C22.4855 22.4111 22.475 22.8109 22.8483 22.9792C23.3582 23.2054 23.1374 24.1837 23.416 24.9622C23.6316 25.5619 24.0048 26.1615 24.2204 26.7612C24.6147 27.8816 25.6766 28.9441 26.2602 29.9541C26.4967 30.3539 26.7123 30.6484 26.9226 30.9009C27.2485 30.3328 27.5587 29.7332 27.8373 29.0967C28.2631 28.1131 28.6416 26.9769 28.9676 25.7618H28.9781C29.0937 25.3147 29.2094 24.8623 29.3145 24.3941C29.2252 24.3784 29.1516 24.3363 29.099 24.2416C28.1422 23.7209 27.3589 22.9371 26.3916 22.4269C26.2181 22.3374 26.1077 22.0271 26.3075 21.7799C26.5125 21.5326 26.6544 21.6957 26.8384 21.8272C27.0645 21.985 27.3484 22.227 27.6007 21.9955C27.8005 21.8114 27.9056 21.8956 28.0581 21.9745C28.2474 22.0744 28.4997 22.227 28.6521 22.085C28.9097 21.843 29.0464 21.985 29.262 22.1165C29.4249 22.2165 29.6142 22.2901 29.7719 22.1691C29.9033 21.4748 30.019 20.7752 30.1294 20.0756C29.5143 19.8705 28.9413 19.4865 28.5943 19.1077C28.363 18.8553 27.7479 18.3345 27.585 18.2083C27.0014 17.7559 25.3927 17.4561 25.214 18.3766C25.1824 18.5502 25.1404 18.6133 25.0826 18.7132C24.9564 18.9236 25.051 19.3497 24.7566 19.3234C24.5568 19.3076 24.6042 18.8921 24.5674 18.6448C24.4359 17.677 23.947 17.2088 23.0691 17.1931C22.4645 17.1825 22.2279 17.3719 22.0913 17.961C22.0439 18.1557 21.9914 18.3503 21.7548 18.3976C21.6444 18.5607 21.9809 19.0762 21.4919 18.9026C20.2407 18.4607 18.9685 18.0031 17.9644 17.0826C17.4545 16.6513 17.3966 16.7722 17.2547 16.0621C17.1653 16.0463 17.1758 16.0516 17.0865 16.0358C16.7237 16.9037 16.75 17.03 16.3768 17.8716M13.2067 11.9961C13.1016 12.0066 12.865 12.1907 12.8229 12.2222C12.6021 12.4063 12.3235 12.5957 12.0501 12.7851H12.0396C11.8346 12.9271 11.7242 12.9902 11.6611 13.027C11.598 13.0639 11.577 13.0744 11.5928 13.1059C11.5928 13.1217 11.6138 13.1322 11.6401 13.1322C11.7242 13.1322 11.9135 13.0639 12.0712 12.9639C12.1921 12.885 12.3393 12.7798 12.4812 12.6694C12.1763 13.0533 11.556 13.9476 11.2037 14.5262C11.0408 14.7944 11.0197 14.8628 11.046 14.9049C11.0565 14.9207 11.0776 14.9312 11.1039 14.9312C11.1301 14.9312 11.1669 14.9207 11.2195 14.9102C11.6559 14.7734 11.6716 14.7471 11.8714 14.3947V14.3842C12.2184 13.7792 12.6127 13.1059 13.1804 12.2538C13.2856 12.1013 13.2856 12.0539 13.2698 12.0276C13.2645 12.0171 13.2488 12.0013 13.2172 12.0013C13.2172 12.0013 13.212 12.0013 13.2067 12.0013M6.12011 13.3163C5.04765 14.5788 4.38 13.4163 4.58503 13.0007C4.63234 12.9061 3.84903 13.5425 4.80583 14.3368C4.95303 14.4578 4.02777 15.0154 3.44423 14.2158C3.44423 14.2158 4.13291 15.6992 5.55759 14.7524C5.85199 14.5577 6.09382 14.5314 6.09382 14.5314C6.09382 14.5314 6.10959 15.0995 6.60376 15.2836C7.1873 15.5046 7.84444 14.9259 7.69725 14.4788C7.69199 14.4683 7.74456 14.7524 7.2609 14.7944C6.89816 14.826 6.55645 13.774 7.69725 12.8482C8.64878 12.0802 10.4204 11.9224 10.4204 11.9224C10.4204 11.9224 10.2627 11.9119 10.0104 11.9119C9.15872 11.9119 7.18205 12.0592 6.12011 13.3111M21.6917 11.9277C21.6917 11.9277 23.4634 12.0855 24.4149 12.8535C25.5557 13.7792 25.214 14.8313 24.8512 14.7997C24.3676 14.7576 24.4202 14.4736 24.4149 14.4841C24.2677 14.9312 24.9248 15.5046 25.5084 15.2889C26.0078 15.0995 26.0183 14.5367 26.0183 14.5367C26.0183 14.5367 26.2602 14.563 26.5546 14.7576C27.9792 15.7097 28.6679 14.2211 28.6679 14.2211C28.0844 15.0259 27.1591 14.4631 27.3063 14.3421C28.2631 13.5478 27.4746 12.9061 27.5271 13.006C27.7374 13.4268 27.0645 14.584 25.9973 13.3216C24.9354 12.0644 22.9639 11.9224 22.107 11.9224C21.8494 11.9224 21.697 11.9329 21.697 11.9329M18.9896 12.743L19.0158 12.7167C19.3733 12.3958 19.8412 12.0118 20.1514 11.7804C19.8675 12.1381 19.3155 12.985 19.0264 13.4636C18.7793 13.4899 18.3272 13.5478 18.0538 13.6057C18.3009 13.3584 18.6373 13.0586 18.9896 12.7377M20.7927 11.186H20.7822C20.6771 11.1965 20.5457 11.2649 20.3722 11.3964C20.267 11.4806 20.1671 11.5647 20.062 11.6489C19.7255 11.9224 19.3786 12.2012 18.9212 12.5904C18.4323 13.0113 17.9539 13.4636 17.8014 13.6162C17.7541 13.6583 17.649 13.7582 17.6648 13.8108C17.6648 13.8266 17.6753 13.8581 17.7226 13.8581C17.7489 13.8581 17.7857 13.8476 17.812 13.8371H17.8225C17.9486 13.795 18.0801 13.7687 18.2115 13.7424C18.4323 13.7003 18.6426 13.6688 18.916 13.6372C18.8213 13.795 18.7372 13.937 18.6531 14.0791C18.5374 14.2684 18.4323 14.4473 18.3166 14.6524C18.1747 14.9102 18.1589 14.9838 18.18 15.0206C18.1905 15.0417 18.2115 15.0469 18.2378 15.0469C18.2746 15.0469 18.3219 15.0364 18.3902 15.0154C18.6058 14.9522 18.732 14.8786 18.8529 14.6682C19.0632 14.2947 19.2209 14.0212 19.4995 13.5741C19.6046 13.5636 19.7518 13.5583 19.8938 13.5531C19.9358 13.5531 19.9621 13.5531 19.9884 13.5531C19.9989 13.5531 20.0094 13.5531 20.0147 13.5531C20.0357 13.5531 20.0725 13.5531 20.083 13.5162C20.0883 13.4952 20.083 13.4741 20.0725 13.4584C20.0462 13.4163 19.9726 13.4005 19.9148 13.3953C19.878 13.3953 19.836 13.3953 19.7834 13.3953C19.7203 13.3953 19.6572 13.3953 19.5994 13.3953H19.5678C19.7991 12.985 20.2618 12.1696 20.8138 11.307C20.8453 11.2544 20.8663 11.2176 20.8506 11.1913C20.8401 11.1702 20.8138 11.1702 20.798 11.1702C20.7875 11.1702 20.7822 11.1702 20.7717 11.1702M15.9141 11.1807C15.2412 11.2439 14.2581 11.8698 13.6746 12.6115C13.2593 13.1375 13.0385 13.7266 13.0858 14.1895V14.2C13.1121 14.4368 13.2908 14.6735 13.6325 14.6735C13.6588 14.6735 13.6851 14.6735 13.7114 14.6735C14.1004 14.6314 14.6472 14.3578 14.9363 13.8529C15.1308 13.5162 15.1729 13.1533 15.0467 12.9271C14.9731 12.7956 14.8522 12.722 14.6945 12.7167C14.4895 12.7114 14.2319 12.8482 14.0952 12.9902C14.0636 13.0218 14.0111 13.0796 14.0321 13.1217C14.0426 13.127 14.0531 13.1322 14.0636 13.1322C14.0847 13.1322 14.1004 13.1217 14.132 13.0902C14.2371 12.9955 14.4001 12.8798 14.5736 12.8798H14.5841C14.6314 12.885 14.6577 12.9061 14.6787 12.9429C14.7471 13.0744 14.6682 13.3795 14.4895 13.7056C14.2266 14.179 13.9112 14.5104 13.6799 14.542C13.5327 14.5577 13.4485 14.4788 13.4328 14.3052C13.3907 13.9107 13.7535 13.2795 14.1057 12.8166C14.8312 11.8593 15.4094 11.3911 15.9299 11.3385C15.9667 11.3385 16.0035 11.3333 16.035 11.3333C16.219 11.3333 16.3452 11.3964 16.4504 11.5279C16.4504 11.5332 16.4609 11.5384 16.4609 11.5437C16.4819 11.57 16.5029 11.5963 16.5292 11.5963C16.5292 11.5963 16.5397 11.5963 16.5502 11.5963C16.5765 11.5752 16.587 11.5174 16.545 11.4437C16.4504 11.2807 16.2506 11.1807 16.0035 11.1807C15.972 11.1807 15.9352 11.1807 15.9036 11.186M18.427 10.9177C17.7541 10.9756 16.771 11.6068 16.1875 12.3485C15.7669 12.8745 15.5514 13.4636 15.5987 13.9265V13.937C15.625 14.1737 15.8037 14.4105 16.1454 14.4105C16.1717 14.4105 16.198 14.4105 16.2243 14.4105C16.6133 14.3684 17.1601 14.0948 17.4492 13.5899C17.6437 13.2532 17.6858 12.8903 17.5596 12.6641C17.486 12.5326 17.3651 12.4589 17.2074 12.4537H17.1916C16.9918 12.4537 16.7448 12.5905 16.6081 12.7272C16.5765 12.7588 16.524 12.8219 16.545 12.8587C16.5555 12.8692 16.566 12.8692 16.5765 12.8692C16.5976 12.8692 16.6186 12.8535 16.6449 12.8272C16.75 12.7325 16.913 12.6168 17.0865 12.6168H17.1022C17.1443 12.622 17.1758 12.6431 17.1916 12.6799C17.26 12.8114 17.1811 13.1165 17.0024 13.4426C16.7395 13.916 16.4188 14.2474 16.1928 14.279C16.0456 14.2947 15.9614 14.2158 15.9457 14.0422C15.9036 13.6477 16.2664 13.0113 16.6186 12.5536C17.3441 11.5963 17.9224 11.1281 18.4428 11.0755C18.4796 11.0703 18.5164 11.0703 18.548 11.0703C18.732 11.0703 18.8581 11.1334 18.9633 11.2649C18.9633 11.2649 18.9738 11.2754 18.979 11.2807C18.9948 11.307 19.0158 11.3333 19.0474 11.3333C19.0526 11.3333 19.0632 11.3333 19.0684 11.328C19.0947 11.307 19.1052 11.2491 19.0632 11.1755C18.9685 11.0124 18.7688 10.9125 18.5217 10.9125C18.4901 10.9125 18.4533 10.9125 18.4218 10.9125" fill="white"/>
</mask>
<g mask="url(#mask3_73_3056)">
<path d="M30.1401 10.9125H2.17749V36.0453H30.1401V10.9125Z" fill="url(#paint3_linear_73_3056)"/>
</g>
</g>
<defs>
<linearGradient id="paint0_linear_73_3056" x1="134.631" y1="30.0496" x2="166.515" y2="30.0496" gradientUnits="userSpaceOnUse">
<stop stop-color="#B4832C"/>
<stop offset="0.15" stop-color="#E3CC6B"/>
<stop offset="0.29" stop-color="#BF9B3A"/>
<stop offset="0.48" stop-color="#E8D270"/>
<stop offset="0.68" stop-color="#DFC667"/>
<stop offset="1" stop-color="#C2993D"/>
</linearGradient>
<linearGradient id="paint1_linear_73_3056" x1="15841.3" y1="-15738.1" x2="15891" y2="-15787.8" gradientUnits="userSpaceOnUse">
<stop stop-color="#B4832C"/>
<stop offset="0.15" stop-color="#E3CC6B"/>
<stop offset="0.29" stop-color="#BF9B3A"/>
<stop offset="0.48" stop-color="#E8D270"/>
<stop offset="0.68" stop-color="#DFC667"/>
<stop offset="1" stop-color="#C2993D"/>
</linearGradient>
<linearGradient id="paint2_linear_73_3056" x1="6.33226" y1="32.3764" x2="38.7325" y2="-0.00537733" gradientUnits="userSpaceOnUse">
<stop stop-color="#BD8B2E"/>
<stop offset="0.15" stop-color="#E8D476"/>
<stop offset="0.29" stop-color="#BF9B3A"/>
<stop offset="0.48" stop-color="#E8D370"/>
<stop offset="0.68" stop-color="#DFC667"/>
<stop offset="1" stop-color="#EDD97D"/>
</linearGradient>
<linearGradient id="paint3_linear_73_3056" x1="-1.78139" y1="22.3083" x2="32.5739" y2="22.3083" gradientUnits="userSpaceOnUse">
<stop stop-color="#B4832C"/>
<stop offset="0.15" stop-color="#E8D476"/>
<stop offset="0.29" stop-color="#BF9B3A"/>
<stop offset="0.48" stop-color="#EDD97D"/>
<stop offset="0.68" stop-color="#DFC667"/>
<stop offset="1" stop-color="#EDD97D"/>
</linearGradient>
<clipPath id="clip0_73_3056">
<rect width="166" height="35" fill="white" transform="translate(0 6)"/>
</clipPath>
</defs>
</svg>
