<svg width="253" height="124" viewBox="0 0 253 124" fill="none" xmlns="http://www.w3.org/2000/svg">
<path d="M61.9398 87.9949C60.0423 87.9949 58.0093 87.8596 55.8859 87.5665C53.7625 87.2735 51.6617 86.8451 49.6061 86.2815C47.5956 85.7178 45.6756 85.064 43.9136 84.32C41.9483 83.5084 40.2089 82.4938 38.7858 81.3665L36.3914 79.4502L41.4062 63.3978H48.9962L50.3289 64.9535C50.713 65.4044 51.2777 66.0131 52.0006 66.7796C52.7686 67.5913 53.5818 68.448 54.4402 69.3273C55.3212 70.2516 56.1796 71.1535 57.0154 72.0553C57.422 72.5062 57.806 72.912 58.1674 73.3178C58.5966 73.408 59.0484 73.4756 59.5454 73.5884C60.1779 73.7011 61.3525 73.8364 63.3856 73.8364C64.7409 73.8364 65.9607 73.5433 67.0902 72.9571C68.3552 72.3033 69.4395 71.424 70.3882 70.2742C71.3822 69.0793 72.1954 67.6589 72.8053 66.0807C73.3926 64.5251 73.6863 62.8567 73.6863 61.0982C73.6863 58.9564 73.37 57.1076 72.7375 55.5745C72.1276 54.1091 71.337 52.9367 70.3431 51.9898C69.3039 51.0204 68.1067 50.3215 66.7062 49.8029C65.2379 49.2844 63.5889 49.0138 61.8269 49.0138H50.1031V40.0633L67.0676 17.3825H55.3212L50.984 28.7004H41.4062L40.7059 25.0705C40.3897 23.4698 40.096 21.7113 39.8475 19.8851C39.5764 18.0815 39.3506 16.3004 39.1247 14.5418C38.8988 12.7607 38.6955 11.0022 38.5599 9.33382C38.4018 7.59782 38.3114 5.97455 38.3114 4.48655V0H90.7638V9.40145L72.8505 33.2996C74.6124 33.6829 76.284 34.224 77.8427 34.9004C81.1181 36.3207 83.9418 38.2371 86.2459 40.6269C88.55 43.0167 90.3346 45.8349 91.5544 49.0138C92.7516 52.1476 93.3389 55.5745 93.3389 59.2044C93.3389 63.5782 92.4354 67.6364 90.6508 71.2211C88.8889 74.7607 86.517 77.8044 83.5804 80.3069C80.6889 82.7644 77.3231 84.6807 73.6185 85.9884C69.9139 87.296 66.0059 87.9724 61.9398 87.9724V87.9949Z" fill="url(#paint0_linear_192_445)"/>
<path d="M64.3117 87.9949C62.4142 87.9949 60.3811 87.8596 58.2577 87.5665C56.1343 87.2735 54.0335 86.8451 51.9779 86.2815C49.9449 85.7178 48.0474 85.064 46.2854 84.32C44.3201 83.5084 42.6034 82.4938 41.1576 81.3665L38.7632 79.4502L43.7554 63.3978H51.3454L52.6782 64.9535C53.0622 65.4044 53.6269 66.0131 54.3498 66.7796C55.1404 67.5913 55.931 68.448 56.7894 69.3273C57.6704 70.2516 58.5288 71.1535 59.3646 72.0553C59.7712 72.5062 60.1552 72.912 60.5167 73.3178C60.9459 73.408 61.3976 73.4756 61.8946 73.5884C62.5271 73.7011 63.7018 73.8364 65.7348 73.8364C67.0901 73.8364 68.31 73.5433 69.4394 72.9571C70.6818 72.3033 71.7887 71.4015 72.7375 70.2742C73.7314 69.0793 74.5446 67.6589 75.1545 66.0807C75.7418 64.5251 76.0355 62.8567 76.0355 61.0982C76.0355 58.9564 75.7193 57.1076 75.0868 55.5745C74.4768 54.1316 73.6862 52.9142 72.6923 51.9898C71.6532 51.0429 70.4334 50.2989 69.0554 49.8029C67.5871 49.2844 65.9381 49.0138 64.1761 49.0138H52.4749V40.0633L69.4394 17.3825H57.693L53.3559 28.7004H43.778L43.0777 25.0705C42.7615 23.4698 42.4678 21.7113 42.2193 19.8851C41.9483 18.0815 41.7224 16.3004 41.4965 14.5418C41.2706 12.7607 41.0673 11.0022 40.9318 9.33382C40.7736 7.59782 40.6833 5.97455 40.6833 4.48655V0H93.1356V9.40145L75.2223 33.2996C76.9843 33.6829 78.6559 34.224 80.2145 34.9004C83.49 36.3207 86.3136 38.2371 88.6177 40.6269C90.9218 43.0167 92.7064 45.8349 93.9262 49.0138C95.1235 52.1476 95.7108 55.5745 95.7108 59.2044C95.7108 63.5782 94.8072 67.6364 93.0226 71.2436C91.2607 74.7833 88.8888 77.8269 85.9522 80.3295C83.0608 82.7869 79.695 84.7033 75.9903 86.0109C72.2857 87.3186 68.3551 87.9949 64.3117 87.9949Z" fill="white"/>
<path d="M64.1761 78.3004C66.2543 78.3004 68.1744 77.8494 69.959 76.9025C71.7435 75.9782 73.3022 74.7156 74.6349 73.1374C75.9677 71.5367 77.0294 69.7105 77.7974 67.6364C78.5655 65.5622 78.9721 63.3753 78.9721 61.0982C78.9721 58.3702 78.5429 55.9578 77.6845 53.8836C76.8261 51.8094 75.6741 50.096 74.1832 48.7207C72.6923 47.3454 70.9755 46.3084 69.0102 45.6094C67.0449 44.9105 64.9216 44.5498 62.6174 44.5498H55.3889V41.5513L74.0702 16.5709L77.8426 12.6931V12.2422L71.8339 12.9185H53.0396L48.7024 24.2364H45.924C45.6303 22.6807 45.3592 21.0124 45.0882 19.2313C44.8171 17.4502 44.5912 15.6916 44.3653 13.9556C44.1394 12.2196 43.9587 10.5287 43.8006 8.90544C43.6424 7.28217 43.5747 5.79417 43.5747 4.46399H87.0591V7.91344L68.4907 32.6684L63.7017 37.5607V37.7862L67.4741 37.0196C70.9529 37.1774 74.0702 37.8313 76.8261 39.0262C79.5594 40.2211 81.8861 41.7767 83.7836 43.7382C85.6811 45.6996 87.1268 47.9993 88.1207 50.6145C89.1147 53.2524 89.6116 56.1156 89.6116 59.2269C89.6116 62.9244 88.8662 66.2836 87.3979 69.2822C85.907 72.2807 83.9191 74.8284 81.4569 76.9476C78.9721 79.0669 76.1258 80.6902 72.8956 81.84C69.6653 82.9898 66.2769 83.5535 62.7078 83.5535C60.991 83.5535 59.1839 83.4182 57.2638 83.1702C55.3437 82.8996 53.4462 82.5163 51.5939 81.9978C49.7416 81.4793 48.0248 80.8931 46.4209 80.2167C44.8171 79.5404 43.4843 78.7738 42.3549 77.8945L45.4722 67.9069H47.6859C48.1377 68.4254 48.7476 69.1018 49.5157 69.9134C50.2837 70.7251 51.1195 71.5818 51.9553 72.4611C52.8137 73.3404 53.6495 74.2422 54.4627 75.1214C55.2759 76.0007 55.9762 76.7898 56.5861 77.4436C57.3316 77.6014 58.2803 77.7818 59.4775 78.0073C60.6522 78.2327 62.2108 78.3454 64.1535 78.3454L64.1761 78.3004Z" fill="#231F20"/>
<path d="M183.493 87.9949C178.297 87.9949 173.734 86.9127 169.939 84.7484C166.144 82.584 163.027 79.4502 160.678 75.392C158.464 71.5818 156.837 66.96 155.843 61.6167C154.895 56.5214 154.398 50.6371 154.398 44.1214C154.398 30.0305 156.77 19.5694 161.671 12.152C166.89 4.26108 174.457 0.270538 184.148 0.270538C194.539 0.270538 202.287 4.23854 207.211 12.0844C211.775 19.3665 214.011 29.8502 214.011 44.1214C214.011 58.3927 211.616 68.6734 206.669 76.0909C201.406 83.9818 193.613 87.9724 183.515 87.9724L183.493 87.9949ZM184.148 13.8429C181.573 13.8429 178.681 14.5193 176.716 19.4793C174.705 24.552 173.689 32.8713 173.689 44.2342C173.689 49.2618 173.937 53.8611 174.412 57.9644C174.886 61.8873 175.632 65.2465 176.626 67.9971C177.507 70.4094 178.613 72.2356 179.878 73.408C180.85 74.3098 181.934 74.7156 183.38 74.7156C187.333 74.7156 189.818 72.9345 191.489 68.944C193.613 63.8487 194.697 55.5294 194.697 44.2342C194.697 39.184 194.494 34.5396 194.065 30.4364C193.658 26.5811 192.958 23.2444 191.919 20.584C191.015 18.2393 189.863 16.4582 188.508 15.2633C187.401 14.2938 185.955 13.8429 184.125 13.8429H184.148Z" fill="url(#paint1_linear_192_445)"/>
<path d="M185.819 87.9949C180.624 87.9949 176.061 86.9127 172.289 84.7484C168.494 82.584 165.376 79.4502 163.004 75.392C160.791 71.5818 159.164 66.96 158.17 61.6167C157.221 56.5214 156.724 50.6371 156.724 44.1214C156.724 30.2334 159.187 19.4793 163.998 12.152C169.216 4.26108 176.784 0.270538 186.475 0.270538C196.866 0.270538 204.614 4.23854 209.538 12.0844C214.034 19.2764 216.338 30.0531 216.338 44.1214C216.338 58.1898 213.875 68.7862 208.996 76.0909C203.733 83.9818 195.939 87.9724 185.842 87.9724L185.819 87.9949ZM186.475 13.8429C182.838 13.8429 180.601 15.5338 179.043 19.4793C177.032 24.552 176.016 32.8713 176.016 44.2342C176.016 49.2618 176.264 53.8836 176.739 57.9644C177.213 61.8873 177.958 65.2465 178.952 67.9971C179.833 70.4094 180.94 72.2356 182.205 73.408C183.154 74.3098 184.283 74.7156 185.707 74.7156C189.705 74.7156 192.122 72.9796 193.816 68.944C195.939 63.8487 197.024 55.5294 197.024 44.2342C197.024 39.184 196.82 34.5396 196.391 30.4364C196.007 26.5811 195.284 23.2444 194.245 20.584C193.342 18.2393 192.19 16.4582 190.834 15.2633C189.705 14.2938 188.304 13.8429 186.452 13.8429H186.475Z" fill="white"/>
<path d="M159.571 44.1214C159.571 31.0451 161.762 21.1927 166.122 14.5643C170.481 7.95853 176.761 4.64435 184.916 4.64435C193.726 4.64435 200.164 7.89089 204.252 14.4065C208.341 20.9222 210.374 30.8196 210.374 44.1214C210.374 57.4233 208.16 67.0502 203.755 73.6785C199.35 80.2843 192.845 83.5985 184.261 83.5985C179.811 83.5985 176.038 82.7193 172.898 80.9382C169.758 79.1571 167.228 76.5869 165.241 73.2051C163.275 69.8233 161.83 65.6974 160.926 60.8276C160.022 55.9578 159.571 50.3891 159.571 44.144V44.1214ZM170.052 44.2342C170.052 49.4422 170.301 54.1993 170.82 58.4829C171.317 62.7665 172.153 66.4414 173.282 69.5076C174.412 72.5964 175.858 74.9636 177.642 76.632C179.427 78.3004 181.595 79.1345 184.148 79.1345C189.908 79.1345 193.952 76.3164 196.323 70.6574C198.695 64.9985 199.87 56.2058 199.87 44.2567C199.87 39.0487 199.644 34.2916 199.215 30.008C198.786 25.7243 197.972 22.072 196.82 19.0283C195.646 15.9847 194.11 13.64 192.167 11.9716C190.247 10.3033 187.807 9.46908 184.893 9.46908C179.427 9.46908 175.586 12.2873 173.373 17.9011C171.159 23.5149 170.052 32.3076 170.052 44.2567V44.2342Z" fill="#231F20"/>
<path d="M123.36 87.9949C118.752 87.9949 114.55 87.1607 110.936 85.5149C107.276 83.8466 104.137 81.5018 101.607 78.5033C99.1217 75.5724 97.2468 72.0778 96.0044 68.1098C94.8072 64.2771 94.1973 60.0611 94.1973 55.552C94.1973 48.3149 95.4171 41.5513 97.8341 35.464C100.229 29.4444 103.459 24.0109 107.435 19.344C111.41 14.6771 116.041 10.7542 121.191 7.66547C126.342 4.57674 131.786 2.38983 137.365 1.14983L141.07 0.338196L145.068 11.2051L140.957 12.6706C137.524 13.888 134.225 15.5789 131.131 17.6982C128.059 19.7949 125.28 22.2975 122.84 25.1382C120.423 27.9789 118.368 31.1804 116.764 34.6975C116.719 34.7877 116.674 34.9004 116.628 34.9906C119.429 33.9535 122.524 33.4349 125.845 33.4349C129.437 33.4349 132.848 34.0437 135.987 35.216C139.218 36.4335 141.996 38.2146 144.3 40.4916C146.582 42.7687 148.389 45.5644 149.677 48.8335C150.942 52.0575 151.597 55.7324 151.597 59.7455C151.597 63.5557 150.919 67.2306 149.586 70.6124C148.231 74.0167 146.311 77.0604 143.849 79.6306C141.364 82.2233 138.359 84.2975 134.881 85.7855C131.402 87.2509 127.539 88.0175 123.405 88.0175L123.36 87.9949ZM113.263 52.824C113.195 53.4778 113.172 54.2444 113.172 55.0786V58.3251C113.172 60.264 113.443 62.2931 113.963 64.3447C114.46 66.3062 115.228 68.1324 116.244 69.7557C117.193 71.2662 118.323 72.4836 119.746 73.4306C120.92 74.2422 122.276 74.6255 123.925 74.6255C125.393 74.6255 126.568 74.3324 127.516 73.7236C128.601 73.0473 129.459 72.1455 130.159 70.9957C130.95 69.6655 131.56 68.1098 131.967 66.3738C132.396 64.5026 132.622 62.5862 132.622 60.6924C132.622 56.5215 131.695 53.2749 129.798 50.7949C128.149 48.6531 125.958 47.6386 122.863 47.6386C120.401 47.6386 118.368 48.2022 116.696 49.3746C115.16 50.4567 114.008 51.6066 113.308 52.824H113.263Z" fill="url(#paint2_linear_192_445)"/>
<path d="M125.642 87.9949C121.033 87.9949 116.832 87.1607 113.218 85.5149C109.558 83.8466 106.418 81.5018 103.888 78.5033C101.403 75.5724 99.5284 72.0778 98.286 68.1098C97.0888 64.2771 96.4789 60.0611 96.4789 55.552C96.4789 48.3149 97.6987 41.5513 100.116 35.464C102.51 29.4444 105.74 24.0109 109.716 19.344C113.692 14.6771 118.323 10.7542 123.473 7.66547C128.623 4.57674 134.067 2.38983 139.647 1.14983L143.352 0.338196L147.35 11.2051L143.239 12.6706C139.805 13.888 136.507 15.5789 133.412 17.6982C130.34 19.7949 127.562 22.2975 125.122 25.1382C122.705 27.9789 120.649 31.1804 119.046 34.6975C119 34.7877 118.955 34.9004 118.91 34.9906C121.711 33.9535 124.806 33.4349 128.126 33.4349C131.718 33.4349 135.129 34.0437 138.269 35.216C141.477 36.4335 144.278 38.2146 146.582 40.4916C148.863 42.7687 150.671 45.5644 151.958 48.8335C153.223 52.0575 153.878 55.7324 153.878 59.7455C153.878 63.5557 153.201 67.2306 151.845 70.6124C150.49 74.0167 148.57 77.0378 146.108 79.6306C143.623 82.2233 140.618 84.2975 137.14 85.7855C133.661 87.2509 129.798 88.0175 125.664 88.0175L125.642 87.9949ZM115.544 52.824C115.476 53.4778 115.454 54.2444 115.454 55.0786V58.3251C115.454 60.264 115.725 62.2931 116.245 64.3447C116.741 66.3062 117.51 68.1324 118.526 69.7557C119.452 71.2437 120.627 72.4836 122.027 73.4306C123.225 74.2422 124.535 74.6255 126.206 74.6255C127.675 74.6255 128.849 74.3324 129.798 73.7236C130.882 73.0473 131.741 72.1455 132.441 70.9957C133.232 69.6655 133.842 68.1098 134.248 66.3738C134.677 64.5026 134.903 62.5862 134.903 60.6924C134.903 56.5666 133.955 53.2524 132.08 50.7949C130.431 48.6531 128.239 47.6386 125.145 47.6386C122.682 47.6386 120.649 48.2022 118.978 49.3746C117.442 50.4567 116.29 51.6066 115.589 52.824H115.544Z" fill="white"/>
<path d="M147.982 59.7454C147.982 63.0371 147.418 66.1258 146.266 69.0342C145.114 71.9425 143.51 74.4676 141.432 76.6545C139.353 78.8414 136.846 80.5549 133.909 81.8175C130.973 83.08 127.72 83.6887 124.128 83.6887C120.107 83.6887 116.561 82.9898 113.489 81.592C110.416 80.1942 107.819 78.2553 105.695 75.7527C103.572 73.2502 101.991 70.2742 100.906 66.8473C99.822 63.4203 99.3025 59.6553 99.3025 55.5745C99.3025 48.856 100.409 42.6785 102.646 37.0647C104.859 31.4509 107.819 26.4684 111.523 22.1396C115.205 17.8109 119.452 14.2262 124.218 11.3629C128.985 8.49963 133.954 6.49308 139.105 5.34326L140.279 8.56726C136.484 9.91999 132.87 11.7687 129.482 14.0909C126.071 16.4131 123.021 19.1411 120.356 22.2974C117.668 25.4538 115.431 28.9709 113.647 32.8713C111.862 36.7716 110.755 40.9651 110.303 45.4742C111.456 43.5353 113.489 41.7767 116.425 40.1534C119.362 38.5527 122.773 37.7411 126.636 37.7411C129.708 37.7411 132.577 38.2371 135.242 39.2516C137.885 40.2662 140.144 41.6865 142.019 43.5353C143.871 45.4065 145.339 47.6836 146.424 50.4116C147.508 53.1396 148.028 56.2509 148.028 59.7454H147.982ZM137.659 60.6924C137.659 55.5745 136.417 51.4036 133.954 48.1796C131.492 44.9331 128.013 43.3098 123.586 43.3098C120.22 43.3098 117.329 44.1665 114.934 45.8349C112.54 47.5258 110.823 49.4196 109.829 51.4938C109.694 52.5084 109.603 53.6807 109.603 55.056V58.3025C109.603 60.6022 109.897 62.9694 110.507 65.3818C111.117 67.7942 112.043 70.0036 113.308 72.0102C114.55 74.0167 116.132 75.6851 118.029 76.9702C119.927 78.2553 122.14 78.9091 124.648 78.9091C126.929 78.9091 128.917 78.3905 130.566 77.3534C132.215 76.3164 133.548 74.9185 134.587 73.2051C135.626 71.4691 136.394 69.5076 136.891 67.3207C137.388 65.1338 137.637 62.9018 137.637 60.6698L137.659 60.6924Z" fill="#231F20"/>
<path d="M252.729 112.569C216.496 100.62 173.079 84.0044 126.364 84.0044C79.6498 84.0044 36.2332 100.643 0 112.569C33.5677 94.5782 77.8427 78.2778 126.364 78.2778C174.886 78.2778 219.161 94.5782 252.729 112.569Z" fill="white"/>
<mask id="mask0_192_445" style="mask-type:luminance" maskUnits="userSpaceOnUse" x="78" y="100" width="93" height="26">
<path d="M106.599 124.203V125.06C106.757 125.06 106.938 125.015 107.164 124.992V124.609V124.068C107.005 124.113 106.825 124.158 106.621 124.18M144.255 120.663H144.458C144.391 120.663 144.323 120.663 144.255 120.663ZM116.696 120.686H116.651C117.803 120.618 118.752 120.596 119.836 120.596C121.146 120.596 125.145 120.641 127.584 120.753C127.584 120.731 127.584 120.686 127.584 120.663C125.212 120.596 121.982 120.551 120.785 120.551C119.384 120.551 118.187 120.596 116.719 120.686M144.684 120.641H144.481C145.362 120.618 146.243 120.596 147.124 120.596C147.711 120.596 150.038 120.663 150.603 120.686V120.596C149.699 120.573 148.457 120.528 148.05 120.528C146.808 120.528 145.701 120.551 144.684 120.618M152.139 119.807V120.686C153.313 120.641 154.488 120.596 155.64 120.596C156.724 120.596 157.696 120.641 158.825 120.686V120.596C158.057 120.573 157.334 120.551 156.566 120.551C155.437 120.551 154.262 120.596 153.133 120.641H152.658V119.784C152.478 119.784 152.274 119.807 152.116 119.807M115.725 119.829V120.731C115.906 120.731 116.086 120.708 116.267 120.708V119.761C116.109 119.807 115.928 119.829 115.725 119.852M143.736 119.807V120.686C143.916 120.686 144.097 120.686 144.278 120.663V119.739C144.12 119.784 143.939 119.807 143.736 119.807ZM141.454 117.349C141.793 117.033 142.064 116.695 142.29 116.38L142.154 116.289C141.974 116.605 141.748 116.988 141.454 117.372M127.2 115.906C126.997 116.853 126.726 117.529 126.432 118.025C126.929 117.687 127.313 117.056 127.629 115.906H127.2ZM95.6205 114.824C95.643 115.455 95.6656 116.109 95.6656 116.763C95.6656 117.665 95.6205 118.521 95.5527 119.468C96.9984 120.167 98.3989 120.844 100.319 120.844C100.613 120.844 100.906 120.821 101.2 120.776C99.167 120.776 97.6535 120.032 96.3207 119.356L96.0722 119.243V118.972C96.1852 117.89 96.2078 117.101 96.2078 116.312C96.2078 115.839 96.2078 115.343 96.1852 114.824H95.6205ZM122.298 112.389V112.434H122.637C123.857 112.434 124.083 112.547 124.264 113.065C124.331 113.381 124.444 114.26 124.512 114.847H125.574C125.574 114.847 125.574 114.824 125.574 114.801H125.122L125.032 114.08C124.964 113.561 124.896 112.93 124.828 112.705C124.738 112.457 124.715 112.367 123.586 112.367H122.321L122.298 112.389ZM150.309 112.908C150.309 112.908 150.309 112.908 150.309 112.953L153.065 118.183C153.155 118.364 153.313 118.724 153.381 118.972C153.788 118.972 153.969 118.882 153.969 118.747C153.969 118.634 153.788 118.228 153.652 117.913L150.896 112.705C150.58 112.141 150.49 111.938 150.287 111.893V112.953L150.309 112.908ZM124.557 108.804C124.467 109.526 124.399 110.044 124.309 110.405C124.806 110.337 124.874 110.044 125.032 108.804H124.557ZM130.543 106.911C129.775 108.331 129.391 110.27 129.391 112.096C129.391 116.831 131.583 120.844 136.643 120.844C136.959 120.844 137.275 120.844 137.569 120.799C132.87 120.799 129.956 117.281 129.956 111.645C129.956 109.661 130.385 107.7 131.153 106.257C131.379 105.828 131.65 105.423 131.944 105.039C131.402 105.558 130.928 106.189 130.566 106.888M78.1589 111.893C78.1589 117.755 81.5699 120.866 85.6812 120.866C85.9748 120.866 86.2685 120.866 86.5622 120.799C82.6542 120.776 78.7011 117.868 78.7011 111.442C78.7011 109.12 79.4014 106.708 80.8471 104.904C79.2432 106.392 78.1815 108.714 78.1815 111.871M158.373 111.893C158.373 117.755 161.784 120.866 165.896 120.866C166.189 120.866 166.483 120.866 166.777 120.799C162.869 120.776 158.938 117.868 158.938 111.442C158.938 109.12 159.638 106.708 161.062 104.904C159.458 106.392 158.396 108.714 158.396 111.871M122.908 104.453C122.66 104.453 122.524 104.453 122.434 104.521H122.863C125.235 104.521 125.89 104.972 126.252 107.7H127.313V107.655H126.861L126.816 107.316C126.477 104.724 125.98 104.476 123.812 104.476H122.908V104.453ZM97.0436 104.408C96.3207 105.084 95.6882 106.257 95.6882 107.88C95.6882 110.969 97.6761 112.164 100.409 113.652C101.945 114.463 103.346 115.23 103.346 116.831C103.346 117.191 103.256 117.687 102.985 118.138C103.662 117.642 103.888 116.876 103.888 116.38C103.888 114.982 102.623 114.328 101.155 113.539C98.6248 112.164 96.2304 110.879 96.2304 107.429C96.2304 105.941 96.7273 104.904 97.2017 104.25C97.1565 104.295 97.0888 104.34 97.0436 104.385M137.84 104.25C138.924 104.34 139.873 104.881 140.438 106.031C140.844 106.865 141.002 107.835 141.115 108.759H142.267V108.714H141.703L141.657 108.376C141.522 107.429 141.386 106.527 141.002 105.783C140.37 104.476 139.263 104.205 138.45 104.205C138.224 104.205 138.021 104.228 137.817 104.273M101.313 104.228C103.707 104.408 103.978 106.663 104.114 107.857H105.334V107.812H104.701L104.656 107.474C104.475 105.873 104.091 104.16 101.945 104.16C101.72 104.16 101.494 104.183 101.313 104.228ZM86.1781 103.98C86.9462 104.092 87.7594 104.633 88.4597 105.964C89.3858 107.722 89.6117 110.27 89.6117 112.321C89.6117 115.162 89.0922 117.259 88.1886 118.521C89.431 117.529 90.1538 115.162 90.1538 111.871C90.1538 109.21 89.7698 107.068 89.047 105.716C88.4145 104.521 87.6464 103.912 86.7655 103.912C86.5622 103.912 86.3589 103.957 86.1781 104.002M166.37 103.98C167.138 104.092 167.951 104.633 168.652 105.964C169.578 107.722 169.804 110.27 169.804 112.321C169.804 115.162 169.284 117.259 168.381 118.521C169.623 117.529 170.346 115.162 170.346 111.871C170.346 109.21 169.962 107.068 169.239 105.716C168.606 104.521 167.838 103.912 166.957 103.912C166.754 103.912 166.551 103.957 166.37 104.002M107.277 104.002C108.654 104.16 109.061 104.633 109.061 106.031V120.122C109.061 121.249 109.061 122.241 108.654 122.963C109.558 122.399 109.603 121.34 109.603 119.671V105.58C109.603 104.385 109.332 104.092 108.158 103.935L107.819 103.889V103.213C107.638 103.213 107.457 103.213 107.277 103.191V104.002ZM115.793 104.092C116.99 104.205 117.487 104.701 117.509 106.009V117.62C117.509 118.138 117.442 118.544 117.329 118.86C117.848 118.679 118.029 118.251 118.052 117.169V105.558C118.052 104.498 117.713 104.137 116.696 104.025L116.335 103.98V103.168C116.154 103.168 115.996 103.168 115.793 103.145V104.07V104.092ZM152.726 104.025C153.585 104.07 154.24 104.16 154.24 104.769C154.24 105.084 153.991 105.423 153.788 105.693L150.648 109.706C150.535 109.841 150.445 109.977 150.354 110.067C150.399 110.044 150.467 109.977 150.535 109.909L150.603 109.841C150.603 109.841 150.783 109.616 150.964 109.368L154.398 104.972C154.533 104.791 154.759 104.476 154.759 104.295C154.759 104.137 154.556 104.002 153.607 103.957H153.246V103.191C153.065 103.191 152.884 103.168 152.704 103.145V104.002L152.726 104.025ZM143.781 104.002C145.159 104.16 145.498 104.724 145.543 106.167V117.394C145.543 118.048 145.475 118.521 145.339 118.86C145.882 118.679 146.04 118.228 146.085 116.921V105.693C146.04 104.385 145.769 104.047 144.662 103.935L144.3 103.889V103.168C144.12 103.168 143.939 103.168 143.758 103.123V103.98L143.781 104.002ZM132.599 100.553L135.671 102.221H137.682L137.795 102.176H136.507L133.548 100.553H132.599Z" fill="white"/>
</mask>
<g mask="url(#mask0_192_445)">
<path d="M124.267 54.5236L65.8857 112.792L124.267 171.06L182.649 112.792L124.267 54.5236Z" fill="url(#paint3_linear_192_445)"/>
</g>
<path d="M94.3554 111.262C94.3554 117.484 90.4475 120.393 86.6299 120.393C82.5186 120.393 79.1077 117.281 79.1077 111.42C79.1077 105.558 82.8123 102.559 86.7203 102.469C91.4414 102.379 94.3554 106.369 94.3554 111.239M82.8575 111.149C82.8575 114.283 83.6029 119.423 86.7203 119.423C89.0018 119.423 90.5604 116.695 90.5604 111.848C90.5604 109.819 90.3345 107.271 89.4084 105.49C88.5952 103.957 87.6464 103.484 86.788 103.484C84.1451 103.484 82.8801 107.046 82.8801 111.127" fill="white"/>
<path d="M97.9246 114.373C97.9472 115.771 97.9698 117.191 98.9863 118.161C99.7769 118.927 100.703 118.995 101.29 118.995C103.64 118.995 104.295 117.281 104.295 116.38C104.295 114.756 102.872 113.99 101.358 113.201C98.6249 111.735 96.637 110.518 96.637 107.452C96.637 105.806 97.2695 104.656 97.9924 103.98C99.3703 102.604 101.29 102.604 101.878 102.604C103.527 102.604 104.927 102.92 106.305 103.213C106.305 103.935 106.305 104.633 106.305 105.355C106.305 106.076 106.305 106.73 106.305 107.429H105.085C104.927 106.167 104.656 103.777 101.991 103.777C100.229 103.777 99.4381 104.949 99.4381 106.099C99.4381 107.384 100.477 107.993 101.177 108.399C102.194 108.962 103.188 109.481 104.182 110.067C105.176 110.676 107.096 111.938 107.096 114.869C107.096 118.251 104.634 120.393 101.29 120.393C99.3703 120.393 97.9698 119.739 96.524 119.017C96.5918 118.093 96.637 117.236 96.637 116.312C96.637 115.681 96.6144 115.004 96.5918 114.373H97.9472H97.9246Z" fill="white"/>
<path d="M108.203 102.74C109.377 102.83 110.529 102.875 111.681 102.875C112.833 102.875 114.053 102.83 115.251 102.74V103.596C113.85 103.732 113.489 104.183 113.489 105.625V115.545C113.443 118.815 113.443 119.987 112.675 121.475C111.275 124.225 108.677 124.473 107.548 124.609V123.752C109.965 123.391 110.01 121.768 110.01 119.671V105.58C110.01 104.183 109.581 103.709 108.225 103.551V102.74H108.203Z" fill="white"/>
<path d="M116.741 102.717C118.752 102.807 119.768 102.875 122.05 102.875C125.89 102.875 126.364 102.852 128.013 102.717C128.036 104.633 128.059 105.062 128.262 107.249H127.2C126.839 104.498 126.184 104.07 123.812 104.07H122.908C122.163 104.092 121.914 104.205 121.914 104.949V110.811H123.744C125.212 110.833 125.235 110.54 125.506 108.353H126.545C126.477 109.503 126.387 110.563 126.387 111.645C126.387 112.569 126.432 113.516 126.477 114.441H125.416C125.348 113.855 125.235 112.975 125.167 112.637C124.986 112.119 124.783 112.006 123.541 112.006H121.869V118.025C121.847 118.657 122.05 118.86 122.795 118.882H124.286C126.184 118.815 127.404 118.612 128.081 115.455H129.165C128.804 117.417 128.714 117.935 128.443 120.28C126.003 120.19 122.005 120.122 120.717 120.122C119.429 120.122 118.21 120.167 116.606 120.28V119.378C117.916 119.288 118.368 118.792 118.39 117.169V105.558C118.368 104.25 117.871 103.777 116.674 103.641V102.717H116.741Z" fill="white"/>
<path d="M144.029 116.515C143.171 117.868 141.499 120.415 137.569 120.415C132.509 120.415 130.318 116.402 130.318 111.668C130.318 109.819 130.702 107.88 131.47 106.482C132.78 103.98 135.378 102.537 137.975 102.537C139.105 102.537 140.257 102.83 141.341 103.1C142.222 103.326 142.425 103.348 143.216 103.484C143.171 104.273 143.148 105.062 143.148 105.828C143.148 106.663 143.171 107.497 143.216 108.308H142.064C141.951 107.407 141.793 106.415 141.386 105.58C140.776 104.34 139.692 103.777 138.495 103.777C136.914 103.777 135.694 104.791 134.948 106.189C134.339 107.361 134.045 109.052 134.045 110.743C134.045 115.41 135.942 118.837 138.879 118.837C139.376 118.837 139.986 118.747 140.596 118.431C141.951 117.777 142.629 116.628 143.103 115.839L144.029 116.515Z" fill="white"/>
<path d="M138.63 101.77H136.597L133.525 100.102H135.445L137.637 100.846L139.85 100.102H141.748L138.63 101.77Z" fill="white"/>
<path d="M144.707 102.695C145.882 102.785 147.034 102.83 148.208 102.83C149.315 102.83 150.445 102.785 151.574 102.695V103.574C150.264 103.777 149.993 104.273 149.925 105.535V110.585C150.264 110.563 150.49 110.54 150.806 110.202C150.874 110.157 151.1 109.864 151.574 109.278L154.714 105.265C154.917 104.994 155.166 104.656 155.166 104.34C155.166 103.754 154.511 103.664 153.652 103.596V102.74C154.646 102.807 155.482 102.897 156.408 102.897C157.267 102.897 158.125 102.83 159.006 102.74V103.619C157.628 103.867 157.47 104.07 155.708 106.212L153.359 109.21L157.696 117.236C158.667 118.972 158.87 119.265 159.751 119.401V120.28C158.622 120.235 157.651 120.19 156.566 120.19C155.414 120.19 154.24 120.235 153.042 120.28V119.401C153.539 119.401 154.375 119.401 154.375 118.769C154.375 118.567 154.127 118.003 154.014 117.777L151.258 112.547C150.783 111.69 150.67 111.465 149.902 111.487V117.597C149.925 118.702 150.174 119.423 151.529 119.423V120.303C150.964 120.28 148.637 120.212 148.05 120.212C146.921 120.212 145.791 120.235 144.662 120.303V119.423C146.107 119.333 146.424 118.815 146.469 116.988V105.761C146.424 104.318 146.062 103.754 144.707 103.596V102.74V102.695Z" fill="white"/>
<path d="M174.547 111.262C174.547 117.484 170.639 120.393 166.822 120.393C162.711 120.393 159.3 117.281 159.3 111.42C159.3 105.558 163.004 102.559 166.912 102.469C171.633 102.379 174.547 106.369 174.547 111.239M163.072 111.149C163.072 114.283 163.817 119.423 166.935 119.423C169.216 119.423 170.775 116.695 170.775 111.848C170.775 109.819 170.549 107.271 169.623 105.49C168.81 103.957 167.861 103.484 167.003 103.484C164.36 103.484 163.095 107.046 163.095 111.127" fill="white"/>
<path d="M252.729 112.569C216.496 100.62 173.079 85.3345 126.364 85.3345C79.6498 85.3345 36.2332 100.643 0 112.569C33.5677 94.5782 77.8427 79.608 126.364 79.608C174.886 79.608 219.161 94.5782 252.729 112.569Z" fill="url(#paint4_linear_192_445)"/>
<path d="M252.729 112.569C216.496 100.62 173.079 93.6764 126.364 93.6764C79.6498 93.6764 36.2332 100.643 0 112.569C33.5677 94.5782 77.8427 83.6662 126.364 83.6662C174.886 83.6662 219.161 94.5782 252.729 112.569Z" fill="#231F20"/>
<defs>
<linearGradient id="paint0_linear_192_445" x1="36.3914" y1="43.9862" x2="93.3389" y2="43.9862" gradientUnits="userSpaceOnUse">
<stop stop-color="#BE8B2C"/>
<stop offset="0.15" stop-color="#E6D176"/>
<stop offset="0.29" stop-color="#BD9837"/>
<stop offset="0.48" stop-color="#DAC669"/>
<stop offset="0.68" stop-color="#DDC467"/>
<stop offset="1" stop-color="#C2983C"/>
</linearGradient>
<linearGradient id="paint1_linear_192_445" x1="154.398" y1="44.1214" x2="214.011" y2="44.1214" gradientUnits="userSpaceOnUse">
<stop stop-color="#BE8B2C"/>
<stop offset="0.15" stop-color="#E6D176"/>
<stop offset="0.29" stop-color="#BD9837"/>
<stop offset="0.48" stop-color="#DAC669"/>
<stop offset="0.68" stop-color="#DDC467"/>
<stop offset="1" stop-color="#C2983C"/>
</linearGradient>
<linearGradient id="paint2_linear_192_445" x1="94.1747" y1="44.144" x2="151.551" y2="44.144" gradientUnits="userSpaceOnUse">
<stop stop-color="#BE8B2C"/>
<stop offset="0.15" stop-color="#E6D176"/>
<stop offset="0.29" stop-color="#BD9837"/>
<stop offset="0.48" stop-color="#DAC669"/>
<stop offset="0.68" stop-color="#DDC467"/>
<stop offset="1" stop-color="#C2983C"/>
</linearGradient>
<linearGradient id="paint3_linear_192_445" x1="107.199" y1="128.306" x2="163.284" y2="72.1114" gradientUnits="userSpaceOnUse">
<stop stop-color="#BD8B2E"/>
<stop offset="0.15" stop-color="#E8D476"/>
<stop offset="0.29" stop-color="#BF9B3A"/>
<stop offset="0.48" stop-color="#E8D370"/>
<stop offset="0.68" stop-color="#DFC667"/>
<stop offset="1" stop-color="#EDD97D"/>
</linearGradient>
<linearGradient id="paint4_linear_192_445" x1="0" y1="96.0887" x2="252.729" y2="96.0887" gradientUnits="userSpaceOnUse">
<stop stop-color="#BE8B2C"/>
<stop offset="0.15" stop-color="#E6D176"/>
<stop offset="0.29" stop-color="#BD9837"/>
<stop offset="0.48" stop-color="#DAC669"/>
<stop offset="0.68" stop-color="#DDC467"/>
<stop offset="1" stop-color="#C2983C"/>
</linearGradient>
</defs>
</svg>
