<svg width="148" height="72" viewBox="0 0 148 72" fill="none" xmlns="http://www.w3.org/2000/svg">
<path d="M36.6502 50.657C35.5501 50.657 34.3715 50.5791 33.1405 50.4103C31.9094 50.2415 30.6915 49.9949 29.4998 49.6703C28.3342 49.3458 27.2211 48.9693 26.1996 48.5409C25.0602 48.0735 24.0518 47.4893 23.2268 46.8402L21.8386 45.7367L24.7459 36.4933H29.1462L29.9188 37.3891C30.1415 37.6487 30.4689 37.9992 30.8879 38.4406C31.3332 38.908 31.8047 39.4013 32.3023 39.9076C32.8131 40.4399 33.3107 40.9592 33.7953 41.4785C34.031 41.7381 34.2536 41.9718 34.4632 42.2055C34.712 42.2574 34.9739 42.2964 35.262 42.3613C35.6287 42.4262 36.3097 42.5041 37.4883 42.5041C38.2741 42.5041 38.9813 42.3353 39.6361 41.9978C40.3694 41.6213 40.9981 41.115 41.5481 40.4529C42.1243 39.7648 42.5958 38.9469 42.9494 38.0382C43.2898 37.1424 43.4601 36.1817 43.4601 35.1691C43.4601 33.9357 43.2767 32.8712 42.9101 31.9884C42.5565 31.1446 42.0981 30.4695 41.5219 29.9242C40.9195 29.366 40.2254 28.9635 39.4134 28.6649C38.5622 28.3663 37.6062 28.2106 36.5847 28.2106H29.7879V23.0566L39.623 9.99638H32.8131L30.2986 16.5135H24.7459L24.34 14.4233C24.1566 13.5016 23.9864 12.489 23.8423 11.4374C23.6852 10.3988 23.5542 9.37323 23.4232 8.36061C23.2923 7.335 23.1744 6.32239 23.0958 5.36169C23.0042 4.36206 22.9518 3.42733 22.9518 2.5705V0H53.3607V5.41362L42.9755 19.1749C43.997 19.3956 44.9661 19.7071 45.8698 20.0966C47.7687 20.9145 49.4057 22.018 50.7415 23.3941C52.0772 24.7702 53.1118 26.393 53.819 28.2235C54.5131 30.0281 54.8536 32.0014 54.8536 34.0915C54.8536 36.6101 54.3298 38.9469 53.2952 41.0111C52.2737 43.0493 50.8986 44.802 49.1961 46.243C47.5198 47.6581 45.5685 48.7616 43.4208 49.5145C41.2731 50.2675 39.0075 50.657 36.6502 50.657Z" fill="url(#paint0_linear_48_9305)"/>
<path d="M38.0254 50.657C36.9254 50.657 35.7467 50.5791 34.5157 50.4103C33.2847 50.2415 32.0667 49.9949 30.875 49.6703C29.6964 49.3458 28.5963 48.9693 27.5748 48.5409C26.4355 48.0735 25.4402 47.4893 24.602 46.8402L23.2139 45.7367L26.1081 36.4933H30.5083L31.281 37.3891C31.5036 37.6487 31.831 37.9992 32.2501 38.4406C32.7085 38.908 33.1668 39.4013 33.6645 39.9076C34.1752 40.4399 34.6729 40.9592 35.1574 41.4785C35.3931 41.7381 35.6158 41.9718 35.8253 42.2055C36.0741 42.2574 36.336 42.2964 36.6242 42.3613C36.9908 42.4262 37.6718 42.5041 38.8505 42.5041C39.6362 42.5041 40.3434 42.3353 40.9982 41.9978C41.7185 41.6213 42.3602 41.102 42.9102 40.4529C43.4864 39.7648 43.9579 38.9469 44.3115 38.0382C44.652 37.1424 44.8222 36.1817 44.8222 35.1691C44.8222 33.9357 44.6389 32.8712 44.2722 31.9884C43.9186 31.1575 43.4603 30.4565 42.884 29.9242C42.2816 29.379 41.5744 28.9506 40.7756 28.6649C39.9243 28.3663 38.9683 28.2106 37.9468 28.2106H31.1631V23.0566L40.9982 9.99638H34.1883L31.6739 16.5135H26.1212L25.7152 14.4233C25.5319 13.5016 25.3616 12.489 25.2176 11.4374C25.0604 10.3988 24.9294 9.37323 24.7985 8.36061C24.6675 7.335 24.5497 6.32239 24.4711 5.36169C24.3794 4.36206 24.327 3.42733 24.327 2.5705V0H54.7359V5.41362L44.3508 19.1749C45.3723 19.3956 46.3414 19.7071 47.245 20.0966C49.1439 20.9145 50.7809 22.018 52.1167 23.3941C53.4525 24.7702 54.4871 26.393 55.1943 28.2235C55.8883 30.0281 56.2288 32.0014 56.2288 34.0915C56.2288 36.6101 55.705 38.9469 54.6704 41.0241C53.6489 43.0623 52.2739 44.8149 50.5714 46.256C48.8951 47.671 46.9438 48.7745 44.796 49.5275C42.6483 50.2805 40.3696 50.6699 38.0254 50.6699V50.657Z" fill="white"/>
<path d="M37.947 45.0747C39.1518 45.0747 40.265 44.815 41.2996 44.2698C42.3341 43.7375 43.2378 43.0105 44.0104 42.1017C44.7831 41.18 45.3986 40.1284 45.8439 38.934C46.2891 37.7397 46.5249 36.4804 46.5249 35.1692C46.5249 33.5983 46.276 32.2092 45.7784 31.0148C45.2807 29.8205 44.6128 28.8338 43.7485 28.0419C42.8842 27.25 41.8889 26.6528 40.7495 26.2503C39.6102 25.8479 38.3791 25.6402 37.0434 25.6402H32.8526V23.9135L43.683 9.52912L45.8701 7.29616V7.03651L42.3865 7.42598H31.4907L28.9762 13.9431H27.3654C27.1952 13.0473 27.038 12.0866 26.8809 11.061C26.7237 10.0354 26.5928 9.02281 26.4618 8.02317C26.3308 7.02353 26.2261 6.04986 26.1344 5.11513C26.0427 4.1804 26.0034 3.32357 26.0034 2.55762H51.2132V4.54391L40.4483 18.7985L37.672 21.6156V21.7455L39.859 21.3041C41.8758 21.3949 43.683 21.7714 45.2807 22.4595C46.8653 23.1476 48.2142 24.0433 49.3143 25.1728C50.4144 26.3023 51.2525 27.6265 51.8287 29.1324C52.4049 30.6513 52.6931 32.3001 52.6931 34.0917C52.6931 36.2207 52.2609 38.1551 51.4097 39.8818C50.5453 41.6084 49.3929 43.0754 47.9654 44.2957C46.5248 45.5161 44.8748 46.4508 43.002 47.1129C41.1293 47.775 39.1649 48.0996 37.0957 48.0996C36.1004 48.0996 35.0528 48.0217 33.9396 47.8789C32.8265 47.7231 31.7264 47.5024 30.6525 47.2038C29.5787 46.9052 28.5834 46.5676 27.6535 46.1782C26.7237 45.7887 25.9511 45.3473 25.2963 44.841L27.1035 39.0898H28.3869C28.6488 39.3884 29.0024 39.7779 29.4477 40.2453C29.893 40.7126 30.3775 41.2059 30.8621 41.7123C31.3597 42.2186 31.8443 42.7379 32.3157 43.2442C32.7872 43.7505 33.1931 44.2049 33.5467 44.5813C33.9789 44.6722 34.5289 44.7761 35.223 44.9059C35.904 45.0357 36.8076 45.1006 37.9339 45.1006L37.947 45.0747Z" fill="#231F20"/>
<path d="M107.119 50.6569C104.107 50.6569 101.462 50.0338 99.2619 48.7875C97.0617 47.5412 95.2545 45.7366 93.8925 43.3998C92.6091 41.2058 91.6662 38.5444 91.09 35.4676C90.54 32.5336 90.2518 29.1452 90.2518 25.3933C90.2518 17.2794 91.6269 11.2556 94.4687 6.98442C97.4939 2.44062 101.868 0.129761 107.486 0.129761C113.51 0.129761 118.002 2.41465 120.857 6.93249C123.503 11.1258 124.799 17.1626 124.799 25.3804C124.799 33.5982 123.411 39.5181 120.543 43.7893C117.491 48.3331 112.973 50.6309 107.119 50.6309V50.6569ZM107.499 7.97108C106.006 7.97108 104.33 8.36055 103.191 11.2167C102.025 14.1377 101.436 18.9282 101.436 25.4712C101.436 28.3663 101.58 31.0147 101.855 33.3775C102.13 35.6364 102.562 37.5707 103.138 39.1546C103.649 40.5437 104.291 41.5953 105.024 42.2703C105.587 42.7896 106.216 43.0233 107.054 43.0233C109.346 43.0233 110.786 41.9977 111.755 39.6998C112.986 36.7658 113.615 31.9754 113.615 25.4712C113.615 22.5632 113.497 19.8888 113.248 17.5261C113.013 15.3061 112.607 13.3847 112.004 11.8528C111.48 10.5026 110.813 9.47703 110.027 8.78896C109.385 8.23072 108.547 7.97108 107.486 7.97108H107.499Z" fill="url(#paint1_linear_48_9305)"/>
<path d="M108.469 50.6569C105.457 50.6569 102.811 50.0338 100.624 48.7875C98.4241 47.5412 96.6168 45.7366 95.2418 43.3998C93.9583 41.2058 93.0154 38.5444 92.4392 35.4676C91.8892 32.5336 91.6011 29.1452 91.6011 25.3933C91.6011 17.3962 93.0285 11.2037 95.818 6.98442C98.8431 2.44062 103.217 0.129761 108.835 0.129761C114.86 0.129761 119.351 2.41465 122.206 6.93249C124.812 11.0738 126.148 17.2794 126.148 25.3804C126.148 33.4813 124.721 39.583 121.892 43.7893C118.841 48.3331 114.323 50.6309 108.469 50.6309V50.6569ZM108.848 7.97108C106.74 7.97108 105.444 8.94475 104.54 11.2167C103.374 14.1377 102.785 18.9282 102.785 25.4712C102.785 28.3663 102.929 31.0277 103.204 33.3775C103.479 35.6364 103.911 37.5707 104.488 39.1546C104.998 40.5437 105.64 41.5953 106.373 42.2703C106.923 42.7896 107.578 43.0233 108.403 43.0233C110.721 43.0233 112.122 42.0237 113.105 39.6998C114.336 36.7658 114.964 31.9754 114.964 25.4712C114.964 22.5632 114.846 19.8888 114.598 17.5261C114.375 15.3061 113.956 13.3847 113.354 11.8528C112.83 10.5026 112.162 9.47703 111.376 8.78896C110.721 8.23072 109.909 7.97108 108.835 7.97108H108.848Z" fill="white"/>
<path d="M93.2643 25.4065C93.2643 17.8767 94.5346 12.2035 97.0621 8.38666C99.5896 4.58284 103.23 2.67444 107.958 2.67444C113.065 2.67444 116.798 4.54389 119.168 8.29578C121.539 12.0477 122.717 17.7469 122.717 25.4065C122.717 33.066 121.434 38.6095 118.88 42.4263C116.326 46.2301 112.555 48.1385 107.578 48.1385C104.998 48.1385 102.811 47.6322 100.991 46.6066C99.1706 45.581 97.7038 44.101 96.5514 42.1536C95.412 40.2063 94.5739 37.8305 94.05 35.0263C93.5262 32.2222 93.2643 29.0155 93.2643 25.4194V25.4065ZM99.3408 25.4584C99.3408 28.4573 99.4849 31.1966 99.7861 33.6632C100.074 36.1299 100.559 38.246 101.214 40.0116C101.868 41.7901 102.706 43.1533 103.741 44.114C104.776 45.0747 106.033 45.555 107.513 45.555C110.852 45.555 113.196 43.9322 114.571 40.6737C115.947 37.4151 116.628 32.352 116.628 25.4714C116.628 22.4725 116.497 19.7332 116.248 17.2666C115.999 14.7999 115.527 12.6968 114.86 10.9442C114.179 9.19156 113.288 7.8414 112.162 6.88071C111.049 5.92002 109.634 5.43967 107.945 5.43967C104.776 5.43967 102.549 7.06246 101.266 10.2951C99.9825 13.5277 99.3408 18.5908 99.3408 25.4714V25.4584Z" fill="#231F20"/>
<path d="M72.2581 50.6569C69.5865 50.6569 67.1507 50.1765 65.0553 49.2288C62.9338 48.2681 61.1134 46.918 59.6467 45.1913C58.2061 43.5036 57.1191 41.4913 56.3989 39.2065C55.7048 36.9995 55.3512 34.5718 55.3512 31.9753C55.3512 27.808 56.0584 23.9133 57.4597 20.4081C58.8478 16.9418 60.7205 13.8131 63.0254 11.1257C65.3303 8.43839 68.015 6.17947 71.0009 4.40089C73.9868 2.62231 77.1429 1.36303 80.3776 0.649005L82.5254 0.181641L84.8433 6.43911L82.4599 7.28297C80.4693 7.98401 78.5573 8.95768 76.7631 10.178C74.9821 11.3854 73.3713 12.8264 71.9569 14.4622C70.5556 16.098 69.3639 17.9414 68.4341 19.9667C68.4079 20.0186 68.3817 20.0835 68.3555 20.1355C69.9794 19.5383 71.7736 19.2397 73.6987 19.2397C75.7809 19.2397 77.7584 19.5902 79.5788 20.2653C81.4515 20.9663 83.0623 21.9919 84.3981 23.3031C85.7208 24.6143 86.7685 26.2242 87.5149 28.1066C88.2483 29.9631 88.6281 32.0792 88.6281 34.39C88.6281 36.584 88.2352 38.7002 87.4625 40.6475C86.6768 42.6078 85.5636 44.3604 84.1362 45.8404C82.6956 47.3334 80.9538 48.5278 78.9371 49.3846C76.9203 50.2284 74.6809 50.6698 72.2843 50.6698L72.2581 50.6569ZM66.4042 30.4174C66.3649 30.7939 66.3518 31.2353 66.3518 31.7157V33.5851C66.3518 34.7016 66.509 35.87 66.8102 37.0514C67.0983 38.1809 67.5435 39.2324 68.1329 40.1672C68.6829 41.037 69.3377 41.738 70.1627 42.2833C70.8437 42.7506 71.6295 42.9713 72.5855 42.9713C73.4367 42.9713 74.1177 42.8026 74.6678 42.452C75.2964 42.0626 75.794 41.5433 76.2 40.8812C76.6584 40.1152 77.012 39.2195 77.2477 38.2198C77.4965 37.1423 77.6275 36.0388 77.6275 34.9483C77.6275 32.5465 77.0905 30.6771 75.9905 29.249C75.0345 28.0157 73.7641 27.4315 71.97 27.4315C70.5425 27.4315 69.3639 27.7561 68.3948 28.4312C67.5043 29.0543 66.8364 29.7164 66.4304 30.4174H66.4042Z" fill="url(#paint2_linear_48_9305)"/>
<path d="M73.5938 50.6569C70.9222 50.6569 68.4864 50.1765 66.391 49.2288C64.2695 48.2681 62.4491 46.918 60.9824 45.1913C59.5418 43.5036 58.4549 41.4913 57.7346 39.2065C57.0405 36.9995 56.6869 34.5718 56.6869 31.9753C56.6869 27.808 57.3941 23.9133 58.7953 20.4081C60.1835 16.9418 62.0562 13.8131 64.3611 11.1257C66.666 8.43839 69.3507 6.17947 72.3366 4.40089C75.3225 2.62231 78.4786 1.36303 81.7133 0.649005L83.8611 0.181641L86.1791 6.43911L83.7956 7.28297C81.805 7.98401 79.893 8.95768 78.0988 10.178C76.3178 11.3854 74.707 12.8264 73.2926 14.4622C71.8913 16.098 70.6996 17.9414 69.7698 19.9667C69.7436 20.0186 69.7174 20.0835 69.6912 20.1355C71.3151 19.5383 73.1093 19.2397 75.0344 19.2397C77.1166 19.2397 79.0941 19.5902 80.9145 20.2653C82.7741 20.9663 84.398 21.9919 85.7338 23.3031C87.0565 24.6143 88.1042 26.2242 88.8506 28.1066C89.584 29.9631 89.9638 32.0792 89.9638 34.39C89.9638 36.584 89.5709 38.7002 88.7851 40.6475C87.9994 42.6078 86.8862 44.3475 85.4588 45.8404C84.0182 47.3334 82.2764 48.5278 80.2597 49.3846C78.2429 50.2284 76.0035 50.6698 73.6069 50.6698L73.5938 50.6569ZM67.7399 30.4174C67.7006 30.7939 67.6875 31.2353 67.6875 31.7157V33.5851C67.6875 34.7016 67.8447 35.87 68.1459 37.0514C68.434 38.1809 68.8793 39.2324 69.4686 40.1672C70.0055 41.024 70.6865 41.738 71.4984 42.2833C72.1925 42.7506 72.9521 42.9713 73.9212 42.9713C74.7724 42.9713 75.4534 42.8026 76.0035 42.452C76.6321 42.0626 77.1297 41.5433 77.5357 40.8812C77.9941 40.1152 78.3476 39.2195 78.5834 38.2198C78.8322 37.1423 78.9632 36.0388 78.9632 34.9483C78.9632 32.5725 78.4131 30.6641 77.3262 29.249C76.3702 28.0157 75.0998 27.4315 73.3057 27.4315C71.8782 27.4315 70.6996 27.7561 69.7305 28.4312C68.84 29.0543 68.1721 29.7164 67.7661 30.4174H67.7399Z" fill="white"/>
<path d="M86.5328 34.39C86.5328 36.2854 86.2054 38.064 85.5375 39.7387C84.8696 41.4135 83.9398 42.8675 82.7349 44.1268C81.5301 45.386 80.0764 46.3727 78.374 47.0997C76.6715 47.8267 74.7857 48.1772 72.7034 48.1772C70.3723 48.1772 68.3163 47.7748 66.5352 46.9699C64.7541 46.165 63.2481 45.0485 62.0171 43.6075C60.7861 42.1664 59.8693 40.4528 59.2407 38.4795C58.6121 36.5061 58.3109 34.3381 58.3109 31.9883C58.3109 28.1196 58.9526 24.5624 60.2491 21.3298C61.5325 18.0972 63.2481 15.2281 65.3958 12.7355C67.5305 10.2429 69.9925 8.17875 72.7558 6.52999C75.519 4.88124 78.4002 3.72582 81.386 3.06372L82.067 4.92019C79.8669 5.69913 77.7715 6.76368 75.8071 8.10085C73.8297 9.43803 72.0617 11.0089 70.5164 12.8264C68.9579 14.6439 67.6615 16.6692 66.6269 18.9151C65.5923 21.1611 64.9506 23.5758 64.6887 26.1722C65.3566 25.0557 66.5352 24.0431 68.2377 23.1084C69.9401 22.1867 71.9176 21.7193 74.1571 21.7193C75.9381 21.7193 77.6013 22.0049 79.1466 22.5891C80.6789 23.1733 81.9885 23.9912 83.0754 25.0558C84.1493 26.1333 85.0005 27.4445 85.6291 29.0154C86.2577 30.5862 86.5589 32.3778 86.5589 34.39H86.5328ZM80.561 34.9483C80.561 32.0013 79.8407 29.5996 78.4133 27.7431C76.9858 25.8736 74.969 24.9389 72.4022 24.9389C70.4509 24.9389 68.7746 25.4322 67.3864 26.3929C65.9983 27.3666 65.003 28.4571 64.4267 29.6515C64.3482 30.2357 64.2958 30.9108 64.2958 31.7027V33.5721C64.2958 34.8963 64.466 36.2595 64.8196 37.6486C65.1732 39.0377 65.7102 40.31 66.4435 41.4654C67.1638 42.6208 68.0805 43.5815 69.1806 44.3215C70.2806 45.0615 71.5641 45.438 73.0177 45.438C74.3404 45.438 75.4928 45.1394 76.4489 44.5422C77.4049 43.945 78.1775 43.1401 78.7799 42.1535C79.3824 41.1538 79.8276 40.0244 80.1157 38.7651C80.4038 37.5058 80.5479 36.2205 80.5479 34.9353L80.561 34.9483Z" fill="#231F20"/>
<path d="M147.259 64.8208C126.253 57.9402 101.083 48.3722 74 48.3722C46.9175 48.3722 21.747 57.9532 0.741089 64.8208C20.2017 54.4609 45.8699 45.0747 74 45.0747C102.13 45.0747 127.798 54.4609 147.259 64.8208Z" fill="white"/>
<mask id="mask0_48_9305" style="mask-type:luminance" maskUnits="userSpaceOnUse" x="46" y="57" width="54" height="15">
<path d="M62.5543 71.5066V72C62.6459 72 62.7507 71.974 62.8817 71.961V71.7403V71.4287C62.79 71.4547 62.6852 71.4807 62.5673 71.4936M84.3853 69.4684H84.5031C84.4638 69.4684 84.4245 69.4684 84.3853 69.4684ZM68.3951 69.4814H68.3689C69.0368 69.4424 69.5868 69.4295 70.2154 69.4295C70.975 69.4295 73.293 69.4554 74.7073 69.5203C74.7073 69.5074 74.7073 69.4814 74.7073 69.4684C73.3322 69.4295 71.4595 69.4035 70.7654 69.4035C69.9535 69.4035 69.2594 69.4295 68.4082 69.4814M84.6341 69.4554H84.5162C85.027 69.4424 85.5377 69.4295 86.0484 69.4295C86.3889 69.4295 87.7378 69.4684 88.0652 69.4814V69.4295C87.5414 69.4165 86.8211 69.3905 86.5854 69.3905C85.8651 69.3905 85.2234 69.4035 84.6341 69.4424M88.9427 68.9751V69.4814C89.6236 69.4554 90.3046 69.4295 90.9725 69.4295C91.6011 69.4295 92.1643 69.4554 92.8191 69.4814V69.4295C92.3738 69.4165 91.9547 69.4035 91.5095 69.4035C90.8547 69.4035 90.1737 69.4295 89.5189 69.4554H89.2439V68.9621C89.1391 68.9621 89.0212 68.9751 88.9296 68.9751M67.8319 68.9881V69.5074C67.9367 69.5074 68.0415 69.4944 68.1462 69.4944V68.9491C68.0546 68.9751 67.9498 68.9881 67.8319 69.001M84.071 68.9751V69.4814C84.1757 69.4814 84.2805 69.4814 84.3853 69.4684V68.9361C84.2936 68.9621 84.1888 68.9751 84.071 68.9751ZM82.7483 67.56C82.9447 67.3783 83.1019 67.1835 83.2328 67.0018L83.1542 66.9498C83.0495 67.1316 82.9185 67.3523 82.7483 67.573M74.4847 66.7291C74.3668 67.2744 74.2097 67.6639 74.0394 67.9495C74.3275 67.7547 74.5502 67.3912 74.7335 66.7291H74.4847ZM56.1896 66.119C56.2027 66.4825 56.2158 66.859 56.2158 67.2355C56.2158 67.7547 56.1896 68.2481 56.1503 68.7933C56.9885 69.1958 57.8004 69.5852 58.9136 69.5852C59.0838 69.5852 59.2541 69.5723 59.4243 69.5463C58.2457 69.5463 57.3682 69.1179 56.5956 68.7284L56.4515 68.6635V68.5077C56.517 67.8846 56.5301 67.4302 56.5301 66.9758C56.5301 66.7032 56.5301 66.4176 56.517 66.119H56.1896ZM71.6429 64.7169V64.7429H71.8393C72.5465 64.7429 72.6774 64.8078 72.7822 65.1064C72.8215 65.2881 72.887 65.7944 72.9263 66.132H73.5418C73.5418 66.132 73.5418 66.119 73.5418 66.106H73.2799L73.2275 65.6906C73.1882 65.392 73.1489 65.0285 73.1096 64.8986C73.0572 64.7558 73.0441 64.7039 72.3893 64.7039H71.656L71.6429 64.7169ZM87.895 65.0025C87.895 65.0025 87.895 65.0025 87.895 65.0285L89.4927 68.0403C89.5451 68.1442 89.6367 68.3519 89.676 68.4947C89.9118 68.4947 90.0165 68.4428 90.0165 68.3649C90.0165 68.3 89.9118 68.0663 89.8332 67.8846L88.2355 64.8856C88.0521 64.5611 87.9997 64.4443 87.8819 64.4183V65.0285L87.895 65.0025ZM72.9656 62.6397C72.9132 63.0551 72.8739 63.3537 72.8215 63.5615C73.1096 63.5225 73.1489 63.3537 73.2406 62.6397H72.9656ZM76.4229 61.5492C75.9776 62.3671 75.755 63.4836 75.755 64.5351C75.755 67.2614 77.0253 69.5723 79.9588 69.5723C80.1422 69.5723 80.3255 69.5723 80.4957 69.5463C77.7718 69.5463 76.0824 67.5211 76.0824 64.2755C76.0824 63.133 76.3312 62.0036 76.7765 61.1727C76.9075 60.9261 77.0646 60.6924 77.2348 60.4717C76.9205 60.7703 76.6455 61.1338 76.436 61.5362M46.0664 64.4183C46.0664 67.7937 48.0439 69.5852 50.4274 69.5852C50.5976 69.5852 50.7679 69.5852 50.9381 69.5463C48.6725 69.5333 46.3807 67.8586 46.3807 64.1586C46.3807 62.8215 46.7867 61.4324 47.6248 60.3938C46.695 61.2506 46.0795 62.5878 46.0795 64.4053M92.5571 64.4183C92.5571 67.7937 94.5346 69.5852 96.9181 69.5852C97.0884 69.5852 97.2586 69.5852 97.4289 69.5463C95.1632 69.5333 92.8845 67.8586 92.8845 64.1586C92.8845 62.8215 93.2905 61.4324 94.1156 60.3938C93.1858 61.2506 92.5702 62.5878 92.5702 64.4053M71.9965 60.1341C71.8524 60.1341 71.7738 60.1341 71.7214 60.1731H71.9703C73.3453 60.1731 73.7251 60.4327 73.9347 62.0036H74.5502V61.9776H74.2883L74.2621 61.7829C74.0656 60.2899 73.7775 60.1471 72.5203 60.1471H71.9965V60.1341ZM57.0016 60.1082C56.5825 60.4976 56.2158 61.1727 56.2158 62.1074C56.2158 63.886 57.3682 64.5741 58.9529 65.4309C59.8434 65.8983 60.6553 66.3397 60.6553 67.2614C60.6553 67.4691 60.603 67.7547 60.4458 68.0144C60.8387 67.7288 60.9696 67.2874 60.9696 67.0018C60.9696 66.1969 60.2363 65.8204 59.385 65.366C57.9183 64.5741 56.5301 63.8341 56.5301 61.8478C56.5301 60.991 56.8182 60.3938 57.0932 60.0173C57.067 60.0432 57.0277 60.0692 57.0016 60.0952M80.666 60.0303C81.2946 60.0822 81.8446 60.3938 82.172 61.0559C82.4078 61.5362 82.4994 62.0945 82.5649 62.6267H83.2328V62.6008H82.9054L82.8792 62.406C82.8006 61.8608 82.7221 61.3415 82.4994 60.9131C82.1327 60.1601 81.491 60.0043 81.0196 60.0043C80.8886 60.0043 80.7708 60.0173 80.6529 60.0433M59.4767 60.0173C60.8649 60.1211 61.022 61.4194 61.1006 62.1074H61.8078V62.0815H61.4411L61.4149 61.8867C61.3101 60.965 61.0875 59.9783 59.8434 59.9783C59.7124 59.9783 59.5815 59.9913 59.4767 60.0173ZM50.7155 59.8615C51.1607 59.9264 51.6322 60.238 52.0382 61.0039C52.5751 62.0166 52.7061 63.4836 52.7061 64.6649C52.7061 66.3007 52.4049 67.5081 51.881 68.2351C52.6013 67.6639 53.0204 66.3007 53.0204 64.4053C53.0204 62.8734 52.7977 61.6401 52.3787 60.8611C52.012 60.1731 51.5667 59.8226 51.056 59.8226C50.9381 59.8226 50.8203 59.8485 50.7155 59.8745M97.2062 59.8615C97.6515 59.9264 98.1229 60.238 98.5289 61.0039C99.0659 62.0166 99.1968 63.4836 99.1968 64.6649C99.1968 66.3007 98.8956 67.5081 98.3718 68.2351C99.092 67.6639 99.5111 66.3007 99.5111 64.4053C99.5111 62.8734 99.2885 61.6401 98.8694 60.8611C98.5027 60.1731 98.0575 59.8226 97.5467 59.8226C97.4289 59.8226 97.311 59.8485 97.2062 59.8745M62.934 59.8745C63.7329 59.9654 63.9686 60.238 63.9686 61.0429V69.1568C63.9686 69.8059 63.9686 70.3772 63.7329 70.7926C64.2567 70.468 64.2829 69.8579 64.2829 68.8972V60.7832C64.2829 60.0952 64.1258 59.9264 63.4448 59.8355L63.2483 59.8096V59.4201C63.1436 59.4201 63.0388 59.4201 62.934 59.4071V59.8745ZM67.8843 59.9264C68.5784 59.9913 68.8665 60.2769 68.8796 61.0299V67.7158C68.8796 68.0144 68.8403 68.2481 68.7748 68.4298C69.0761 68.326 69.1808 68.0793 69.1939 67.4561V60.7703C69.1939 60.1601 68.9975 59.9524 68.4082 59.8875L68.1986 59.8615V59.3941C68.0939 59.3941 68.0022 59.3941 67.8843 59.3812V59.9134V59.9264ZM89.2831 59.8875C89.7808 59.9134 90.1606 59.9654 90.1606 60.3159C90.1606 60.4976 90.0165 60.6924 89.8987 60.8482L88.0783 63.159C88.0128 63.2369 87.9605 63.3148 87.9081 63.3667C87.9343 63.3537 87.9736 63.3148 88.0128 63.2758L88.0521 63.2369C88.0521 63.2369 88.1569 63.1071 88.2617 62.9643L90.2523 60.4327C90.3308 60.3289 90.4618 60.1471 90.4618 60.0433C90.4618 59.9524 90.3439 59.8745 89.7939 59.8485H89.5844V59.4071C89.4796 59.4071 89.3748 59.3941 89.2701 59.3812V59.8745L89.2831 59.8875ZM84.0971 59.8745C84.896 59.9654 85.0924 60.2899 85.1186 61.1208V67.586C85.1186 67.9625 85.0793 68.2351 85.0008 68.4298C85.3151 68.326 85.4067 68.0663 85.4329 67.3133V60.8482C85.4067 60.0952 85.2496 59.9004 84.6079 59.8355L84.3984 59.8096V59.3941C84.2936 59.3941 84.1888 59.3941 84.084 59.3682V59.8615L84.0971 59.8745ZM77.6146 57.8882L79.3957 58.8489H80.5612L80.6267 58.8229H79.8802L78.1647 57.8882H77.6146Z" fill="white"/>
</mask>
<g mask="url(#mask0_48_9305)">
<path d="M72.7837 31.3955L38.9375 64.948L72.7837 98.5005L106.63 64.948L72.7837 31.3955Z" fill="url(#paint3_linear_48_9305)"/>
</g>
<path d="M55.4564 64.0678C55.4564 67.6509 53.1908 69.3256 50.9775 69.3256C48.5941 69.3256 46.6166 67.534 46.6166 64.1586C46.6166 60.7832 48.7643 59.0566 51.0299 59.0046C53.767 58.9527 55.4564 61.2506 55.4564 64.0548M48.7905 63.9899C48.7905 65.7944 49.2227 68.7544 51.0299 68.7544C52.3526 68.7544 53.2562 67.1835 53.2562 64.3923C53.2562 63.2239 53.1253 61.7569 52.5883 60.7313C52.1169 59.8485 51.5669 59.5759 51.0692 59.5759C49.537 59.5759 48.8036 61.6271 48.8036 63.9769" fill="#040303"/>
<path d="M57.5123 65.8596C57.5254 66.6645 57.5385 67.4824 58.1278 68.0407C58.5861 68.4821 59.1231 68.521 59.4636 68.521C60.8256 68.521 61.2053 67.5344 61.2053 67.0151C61.2053 66.0804 60.3803 65.6389 59.5029 65.1846C57.9182 64.3407 56.7658 63.6397 56.7658 61.8741C56.7658 60.9264 57.1325 60.2643 57.5516 59.8748C58.3504 59.0829 59.4636 59.0829 59.8041 59.0829C60.7601 59.0829 61.572 59.2646 62.3709 59.4334C62.3709 59.8488 62.3709 60.2513 62.3709 60.6667C62.3709 61.0822 62.3709 61.4586 62.3709 61.8611H61.6637C61.572 61.1341 61.4149 59.758 59.8695 59.758C58.8481 59.758 58.3897 60.433 58.3897 61.0951C58.3897 61.8351 58.9921 62.1857 59.3981 62.4193C59.9874 62.7439 60.5636 63.0425 61.1399 63.38C61.7161 63.7305 62.8292 64.4576 62.8292 66.1453C62.8292 68.0926 61.4018 69.3259 59.4636 69.3259C58.3504 69.3259 57.5385 68.9494 56.7003 68.534C56.7396 68.0017 56.7658 67.5084 56.7658 66.9761C56.7658 66.6126 56.7527 66.2231 56.7396 65.8596H57.5254H57.5123Z" fill="#040303"/>
<path d="M63.484 59.1477C64.165 59.1996 64.8329 59.2256 65.5008 59.2256C66.1687 59.2256 66.8759 59.1996 67.57 59.1477V59.641C66.758 59.7189 66.5485 59.9786 66.5485 60.8094V66.5217C66.5223 68.4041 66.5223 69.0792 66.077 69.936C65.2651 71.5199 63.759 71.6627 63.1042 71.7405V71.2472C64.5055 71.0395 64.5317 70.1048 64.5317 68.8974V60.7835C64.5317 59.9786 64.2829 59.7059 63.4971 59.6151V59.1477H63.484Z" fill="#040303"/>
<path d="M68.4215 59.1348C69.587 59.1867 70.1763 59.2256 71.499 59.2256C73.7253 59.2256 74.0004 59.2127 74.9564 59.1348C74.9695 60.2383 74.9826 60.4849 75.1004 61.7442H74.4849C74.2754 60.1604 73.8956 59.9137 72.5205 59.9137H71.9967C71.5645 59.9267 71.4204 59.9916 71.4204 60.42V63.7954H72.4812C73.3325 63.8084 73.3456 63.6396 73.5027 62.3803H74.1051C74.0658 63.0424 74.0135 63.6526 74.0135 64.2758C74.0135 64.808 74.0397 65.3533 74.0658 65.8856H73.4503C73.411 65.548 73.3456 65.0417 73.3063 64.847C73.2015 64.5484 73.0836 64.4835 72.3634 64.4835H71.3943V67.9497C71.3812 68.3132 71.499 68.4301 71.9312 68.4431H72.7955C73.8956 68.4041 74.6028 68.2873 74.9957 66.4698H75.6243C75.4147 67.5992 75.3623 67.8978 75.2052 69.248C73.7908 69.196 71.4728 69.1571 70.7264 69.1571C69.9799 69.1571 69.2727 69.1831 68.3429 69.248V68.7287C69.1025 68.6768 69.3644 68.3911 69.3775 67.4564V60.7705C69.3644 60.0176 69.0763 59.7449 68.3822 59.667V59.1348H68.4215Z" fill="#040303"/>
<path d="M84.2416 67.08C83.744 67.859 82.7749 69.326 80.4962 69.326C77.5627 69.326 76.2924 67.0151 76.2924 64.2888C76.2924 63.2243 76.515 62.1078 76.9603 61.3029C77.7198 59.8619 79.2259 59.031 80.7319 59.031C81.3867 59.031 82.0546 59.1998 82.6832 59.3556C83.1939 59.4854 83.3118 59.4984 83.7702 59.5763C83.744 60.0306 83.7309 60.485 83.7309 60.9264C83.7309 61.4068 83.744 61.8871 83.7702 62.3545H83.1023C83.0368 61.8352 82.9451 61.264 82.7094 60.7836C82.3558 60.0696 81.7272 59.745 81.0331 59.745C80.1164 59.745 79.4092 60.3292 78.977 61.1341C78.6234 61.8092 78.4532 62.7829 78.4532 63.7566C78.4532 66.4439 79.5533 68.4172 81.2557 68.4172C81.5438 68.4172 81.8974 68.3653 82.251 68.1835C83.0368 67.807 83.4297 67.145 83.7047 66.6906L84.2416 67.08Z" fill="#040303"/>
<path d="M81.1113 58.5894H79.9457L78.1647 57.6287H79.2778L80.5481 58.0701L81.8185 57.6287H82.9185L81.1113 58.5894Z" fill="#040303"/>
<path d="M84.6474 59.1218C85.3284 59.1738 85.9963 59.1997 86.6773 59.1997C87.319 59.1997 87.9738 59.1738 88.6286 59.1218V59.6281C87.869 59.745 87.7119 60.0306 87.6726 60.7576V63.6656C87.869 63.6527 88 63.6397 88.1833 63.4449C88.2226 63.419 88.3536 63.2502 88.6286 62.9127L90.4489 60.6018C90.5668 60.446 90.7108 60.2513 90.7108 60.0695C90.7108 59.732 90.3311 59.6801 89.8334 59.6411V59.1478C90.4096 59.1867 90.8942 59.2387 91.4311 59.2387C91.9288 59.2387 92.4264 59.1997 92.9372 59.1478V59.6541C92.1383 59.7969 92.0466 59.9137 91.0252 61.1471L89.6632 62.8737L92.1776 67.4954C92.7407 68.495 92.8586 68.6638 93.3693 68.7417V69.248C92.7145 69.2221 92.1514 69.1961 91.5228 69.1961C90.8549 69.1961 90.1739 69.2221 89.4798 69.248V68.7417C89.7679 68.7417 90.2525 68.7417 90.2525 68.3782C90.2525 68.2614 90.1084 67.9368 90.043 67.807L88.4452 64.7951C88.1702 64.3018 88.1047 64.1719 87.6595 64.1849V67.7031C87.6726 68.3393 87.8166 68.7547 88.6024 68.7547V69.261C88.275 69.248 86.9261 69.2091 86.5856 69.2091C85.9308 69.2091 85.276 69.2221 84.6212 69.261V68.7547C85.4594 68.7028 85.6427 68.4042 85.6689 67.3526V60.8874C85.6427 60.0566 85.4332 59.732 84.6474 59.6411V59.1478V59.1218Z" fill="#040303"/>
<path d="M101.947 64.0678C101.947 67.6509 99.6815 69.3256 97.4683 69.3256C95.0848 69.3256 93.1073 67.534 93.1073 64.1586C93.1073 60.7832 95.255 59.0566 97.5206 59.0046C100.258 58.9527 101.947 61.2506 101.947 64.0548M95.2812 63.9899C95.2812 65.7944 95.7134 68.7544 97.5206 68.7544C98.8433 68.7544 99.747 67.1835 99.747 64.3923C99.747 63.2239 99.616 61.7569 99.0791 60.7313C98.6076 59.8485 98.0576 59.5759 97.5599 59.5759C96.0277 59.5759 95.2943 61.6271 95.2943 63.9769" fill="#040303"/>
<path d="M147.259 64.8208C126.253 57.9402 101.083 49.1382 74 49.1382C46.9175 49.1382 21.747 57.9402 0.741089 64.8208C20.2017 54.461 45.8699 45.8407 74 45.8407C102.13 45.8407 127.798 54.461 147.259 64.8208Z" fill="url(#paint4_linear_48_9305)"/>
<path d="M147.259 64.8207C126.253 57.9401 101.083 53.9415 74 53.9415C46.9175 53.9415 21.747 57.953 0.741089 64.8207C20.2017 54.4608 45.8699 48.1774 74 48.1774C102.13 48.1774 127.798 54.4608 147.259 64.8207Z" fill="#231F20"/>
<defs>
<linearGradient id="paint0_linear_48_9305" x1="21.8517" y1="25.3285" x2="54.8536" y2="25.3285" gradientUnits="userSpaceOnUse">
<stop stop-color="#BE8B2C"/>
<stop offset="0.15" stop-color="#E6D176"/>
<stop offset="0.29" stop-color="#BD9837"/>
<stop offset="0.48" stop-color="#DAC669"/>
<stop offset="0.68" stop-color="#DDC467"/>
<stop offset="1" stop-color="#C2983C"/>
</linearGradient>
<linearGradient id="paint1_linear_48_9305" x1="90.2649" y1="25.3933" x2="124.812" y2="25.3933" gradientUnits="userSpaceOnUse">
<stop stop-color="#BE8B2C"/>
<stop offset="0.15" stop-color="#E6D176"/>
<stop offset="0.29" stop-color="#BD9837"/>
<stop offset="0.48" stop-color="#DAC669"/>
<stop offset="0.68" stop-color="#DDC467"/>
<stop offset="1" stop-color="#C2983C"/>
</linearGradient>
<linearGradient id="paint2_linear_48_9305" x1="55.3512" y1="25.4063" x2="88.6019" y2="25.4063" gradientUnits="userSpaceOnUse">
<stop stop-color="#BE8B2C"/>
<stop offset="0.15" stop-color="#E6D176"/>
<stop offset="0.29" stop-color="#BD9837"/>
<stop offset="0.48" stop-color="#DAC669"/>
<stop offset="0.68" stop-color="#DDC467"/>
<stop offset="1" stop-color="#C2983C"/>
</linearGradient>
<linearGradient id="paint3_linear_48_9305" x1="60.6936" y1="77.7627" x2="87.1761" y2="51.0483" gradientUnits="userSpaceOnUse">
<stop stop-color="#BE8B2C"/>
<stop offset="0.15" stop-color="#E6D176"/>
<stop offset="0.29" stop-color="#BD9837"/>
<stop offset="0.48" stop-color="#DAC669"/>
<stop offset="0.68" stop-color="#DDC467"/>
<stop offset="1" stop-color="#C2983C"/>
</linearGradient>
<linearGradient id="paint4_linear_48_9305" x1="0.754185" y1="55.3308" x2="147.259" y2="55.3308" gradientUnits="userSpaceOnUse">
<stop stop-color="#BE8B2C"/>
<stop offset="0.15" stop-color="#E6D176"/>
<stop offset="0.29" stop-color="#BD9837"/>
<stop offset="0.48" stop-color="#DAC669"/>
<stop offset="0.68" stop-color="#DDC467"/>
<stop offset="1" stop-color="#C2983C"/>
</linearGradient>
</defs>
</svg>
