<svg width="151" height="148" viewBox="0 0 151 148" fill="none" xmlns="http://www.w3.org/2000/svg">
<g clip-path="url(#clip0_35_5103)">
<path d="M149.577 74.0001C149.577 78.298 145.195 82.1614 144.477 86.2515C143.74 90.4644 146.526 95.5842 145.1 99.5043C143.645 103.5 138.204 105.625 136.098 109.262C133.982 112.927 134.842 118.699 132.131 121.929C129.42 125.16 123.573 125.311 120.342 128.022C117.121 130.733 115.969 136.457 112.304 138.582C108.676 140.689 103.141 138.828 99.1453 140.283C95.2157 141.709 92.1741 146.697 87.9706 147.433C83.8805 148.151 79.3181 144.514 75.0202 144.514C70.7222 144.514 66.1693 148.151 62.0697 147.433C57.8568 146.697 54.8152 141.709 50.8951 140.283C46.8994 138.828 41.3641 140.679 37.7368 138.582C34.0717 136.457 32.9193 130.733 29.6982 128.022C26.4677 125.311 20.6206 125.16 17.9096 121.929C15.1986 118.708 16.0677 112.936 13.9423 109.262C11.8358 105.635 6.39495 103.5 4.94027 99.5043C3.51392 95.5747 6.30049 90.455 5.5637 86.2515C4.84581 82.1614 0.46286 78.298 0.46286 74.0001C0.46286 69.7021 4.84581 65.8387 5.5637 61.7486C6.30049 57.5451 3.51392 52.4159 4.94027 48.4958C6.39495 44.5002 11.8358 42.3748 13.9423 38.7476C16.0582 35.0825 15.1986 29.311 17.9096 26.0805C20.6301 22.8499 26.4677 22.6988 29.6982 19.9878C32.9193 17.2768 34.0717 11.5525 37.7368 9.42717C41.3641 7.33016 46.8994 9.18157 50.8951 7.72689C54.8246 6.30054 57.8662 1.31305 62.0697 0.576263C66.1598 -0.141634 70.7222 3.49508 75.0202 3.49508C79.3181 3.49508 83.8711 -0.141634 87.9706 0.576263C92.1741 1.31305 95.2252 6.30054 99.1453 7.72689C103.141 9.18157 108.676 7.33016 112.304 9.42717C115.969 11.5525 117.121 17.2768 120.342 19.9878C123.573 22.6988 129.42 22.8499 132.131 26.0805C134.842 29.3016 133.973 35.0731 136.098 38.7476C138.204 42.3748 143.645 44.5096 145.1 48.5053C146.526 52.4348 143.74 57.5546 144.477 61.758C145.195 65.8482 149.577 69.7116 149.577 74.0095V74.0001Z" fill="url(#paint0_linear_35_5103)" stroke="#24292D" stroke-miterlimit="10"/>
<path d="M147.688 74C147.688 78.1846 143.419 81.9536 142.72 85.9398C142.002 90.0393 144.722 95.0363 143.324 98.8619C141.907 102.754 136.599 104.832 134.549 108.365C132.48 111.935 133.321 117.565 130.685 120.711C128.041 123.865 122.345 124.007 119.199 126.652C116.054 129.287 114.939 134.87 111.359 136.939C107.817 138.989 102.423 137.184 98.5313 138.601C94.7056 139.99 91.7396 144.855 87.64 145.572C83.6538 146.271 79.2142 142.729 75.0202 142.729C70.8261 142.729 66.3865 146.271 62.4003 145.572C58.3007 144.855 55.3347 139.99 51.5091 138.601C47.6173 137.184 42.2236 138.989 38.6814 136.939C35.1108 134.87 33.9867 129.287 30.8412 126.652C27.6862 124.007 21.9997 123.865 19.3549 120.711C16.7194 117.565 17.5601 111.945 15.4914 108.365C13.4417 104.822 8.14245 102.754 6.7161 98.8619C5.32754 95.0363 8.03855 90.0488 7.32065 85.9398C6.62164 81.9536 2.35205 78.1846 2.35205 74C2.35205 69.8154 6.62164 66.0465 7.32065 62.0603C8.03855 57.9607 5.3181 52.9638 6.7161 49.1381C8.13301 45.2464 13.4417 43.1683 15.4914 39.6355C17.5601 36.0649 16.7194 30.4351 19.3549 27.2895C21.9997 24.1346 27.6957 23.9929 30.8412 21.348C33.9867 18.7126 35.1013 13.13 38.6814 11.0613C42.2236 9.01151 47.6173 10.8157 51.5091 9.3988C55.3347 8.01024 58.3007 3.14554 62.4003 2.42765C66.3865 1.72864 70.8261 5.27089 75.0202 5.27089C79.2142 5.27089 83.6538 1.72864 87.64 2.42765C91.7396 3.14554 94.7056 8.01024 98.5313 9.3988C102.423 10.8157 107.817 9.01151 111.359 11.0613C114.93 13.13 116.054 18.7126 119.199 21.348C122.354 23.9929 128.041 24.1346 130.685 27.2895C133.321 30.4351 132.48 36.0554 134.549 39.6355C136.599 43.1777 141.898 45.2464 143.324 49.1381C144.713 52.9638 142.002 57.9513 142.72 62.0603C143.419 66.0465 147.688 69.8154 147.688 74Z" fill="#981C1F"/>
<path d="M135.653 86.8718C142.77 53.3867 121.395 20.4718 87.9099 13.3543C54.4248 6.2368 21.5099 27.612 14.3924 61.0971C7.27489 94.5822 28.6501 127.497 62.1352 134.615C95.6203 141.732 128.535 120.357 135.653 86.8718Z" fill="url(#paint1_linear_35_5103)"/>
<path d="M135.012 74C135.012 107.127 108.157 133.982 75.0296 133.982C41.9025 133.982 15.038 107.127 15.038 74C15.038 40.8728 41.893 14.0178 75.0202 14.0178C108.147 14.0178 135.002 40.8728 135.002 74H135.012Z" stroke="#24292D" stroke-miterlimit="10"/>
<path d="M51.8208 30.435L51.6602 30.0855C51.7452 29.9627 51.8491 29.8494 51.953 29.736C52.0664 29.6227 52.1797 29.5377 52.2931 29.4715L49.9033 24.2196C49.771 24.2479 49.6199 24.2762 49.4687 24.2857C49.3082 24.3046 49.1665 24.3046 49.0248 24.2857L48.8642 23.9362L50.3567 23.2561C50.5928 23.1522 50.8101 23.0388 51.0084 22.9254C51.2068 22.8121 51.443 22.6893 51.7169 22.5665C52.0097 22.4343 52.312 22.3209 52.6048 22.2359C52.9071 22.1509 53.1905 22.1225 53.455 22.132C53.7194 22.1414 53.965 22.2264 54.1917 22.3681C54.409 22.5098 54.5979 22.7365 54.7396 23.0577C54.8341 23.2561 54.8813 23.4544 54.8813 23.6622C54.8813 23.87 54.853 24.059 54.7868 24.2479C54.7207 24.4368 54.6168 24.6068 54.4846 24.7769C54.3523 24.9374 54.2012 25.0886 54.0123 25.2114L54.0312 25.2492C54.239 25.183 54.4657 25.1358 54.6924 25.1169C54.9285 25.098 55.1458 25.1169 55.3725 25.1642C55.5992 25.2114 55.7976 25.3247 55.9865 25.4759C56.1754 25.627 56.336 25.8348 56.4493 26.0993C56.6005 26.4299 56.6571 26.7511 56.6194 27.0628C56.5816 27.3745 56.4682 27.6579 56.2888 27.9318C56.1093 28.1963 55.8731 28.4419 55.5803 28.6592C55.2875 28.8764 54.9758 29.0654 54.6263 29.2259C54.494 29.2826 54.3523 29.3487 54.1917 29.4149C54.0312 29.481 53.88 29.5471 53.7194 29.6038C53.5589 29.6699 53.4077 29.7266 53.2566 29.7927C53.1055 29.8494 52.9827 29.906 52.8882 29.9533L51.783 30.4539L51.8208 30.435ZM52.5765 25.7498C52.6804 25.7026 52.7843 25.6459 52.8882 25.5892C52.9921 25.5325 53.0866 25.4759 53.1716 25.4192C53.3699 25.2114 53.4927 24.9658 53.5494 24.6919C53.6061 24.4179 53.5683 24.144 53.4455 23.8795C53.266 23.4922 53.0393 23.2466 52.7465 23.1616C52.4631 23.0766 52.1514 23.1049 51.8302 23.2466C51.698 23.3127 51.5752 23.3694 51.4807 23.4166C51.3863 23.4639 51.3013 23.5205 51.2257 23.5678L52.2742 25.882L52.567 25.7498H52.5765ZM54.3712 28.6119C54.7585 28.4325 55.0135 28.1774 55.1363 27.8468C55.2497 27.5162 55.2214 27.1573 55.0513 26.77C54.9474 26.5338 54.8152 26.3543 54.6735 26.241C54.5318 26.1276 54.3712 26.0521 54.2012 26.0143C54.0312 25.9765 53.8517 25.9954 53.6533 26.0426C53.455 26.0899 53.2566 26.1654 53.0488 26.2599L52.5576 26.4866L53.6439 28.867C53.7383 28.8481 53.8328 28.8198 53.9367 28.7914C54.0406 28.7631 54.1823 28.697 54.3807 28.6119H54.3712Z" fill="#231F20"/>
<path d="M62.2114 19.0243C62.2775 19.3265 62.3437 19.6383 62.4003 19.9594C62.457 20.2806 62.4948 20.5923 62.5231 20.8757L62.117 20.989L61.3424 19.9594L59.5099 20.4695L60.1805 22.8782L61.3802 22.5476L61.5974 21.6691L61.9091 21.5841C62.0319 21.8958 62.1453 22.2453 62.2586 22.6421C62.372 23.0388 62.457 23.4072 62.5137 23.7567L62.202 23.8417L61.5502 23.1899L60.3505 23.5206L61.059 26.071L62.9765 25.5326L63.1466 24.144L63.5527 24.0306C63.6094 24.144 63.6755 24.2857 63.7511 24.4274C63.8172 24.5785 63.8834 24.7297 63.9495 24.8997C64.0156 25.0603 64.0723 25.2303 64.1289 25.3909C64.1856 25.5609 64.2329 25.712 64.2801 25.8537L58.9714 27.3367L58.8675 26.9589C58.962 26.8644 59.0753 26.7794 59.1981 26.685C59.3209 26.5905 59.4532 26.5149 59.5949 26.4488L58.0457 20.8946C57.904 20.904 57.7623 20.904 57.5923 20.8946C57.4223 20.8851 57.29 20.8662 57.1578 20.8284L57.0539 20.4506L62.2209 19.0054L62.2114 19.0243Z" fill="#231F20"/>
<path d="M70.4955 17.7491C70.5239 18.0513 70.5333 18.3725 70.5428 18.7031C70.5428 19.0337 70.5428 19.336 70.5239 19.6288L70.1083 19.6761L69.4943 18.5425L67.6051 18.7787L67.9073 21.2535L69.1448 21.1024L69.4943 20.2712L69.8154 20.2334C69.891 20.564 69.9477 20.9229 70.0044 21.3291C70.061 21.7353 70.0799 22.1131 70.0894 22.4721L69.7682 22.5099L69.2203 21.7636L67.9829 21.9148L68.3041 24.5407L70.2783 24.2952L70.6561 22.9444L71.0718 22.8971C71.1095 23.0199 71.1568 23.1616 71.204 23.3222C71.2512 23.4828 71.289 23.6434 71.3362 23.8134C71.374 23.9834 71.4118 24.1535 71.4401 24.3329C71.4685 24.5124 71.4968 24.6635 71.5157 24.8147L66.0465 25.4948L65.9993 25.1075C66.1032 25.0319 66.226 24.9564 66.3582 24.8902C66.4904 24.8147 66.6321 24.758 66.7927 24.7108L66.0843 18.9865C65.9426 18.9771 65.8009 18.9582 65.6403 18.9204C65.4797 18.892 65.338 18.8448 65.2152 18.7881L65.168 18.4008L70.4861 17.7396L70.4955 17.7491Z" fill="#231F20"/>
<path d="M75.7286 24.0778C75.8798 24.1156 76.0215 24.1629 76.1443 24.2195C76.2671 24.2762 76.3804 24.3329 76.4938 24.3896V24.7769L73.3388 24.6729V24.2857C73.4994 24.2101 73.6505 24.1534 73.7828 24.1156C73.9245 24.0778 74.0567 24.0401 74.1984 24.0212L74.3968 18.2591C74.0567 18.1741 73.7828 18.0607 73.575 17.9379V17.5507L74.6707 17.5884C74.8029 17.5884 74.9635 17.5884 75.1335 17.5884C75.3036 17.5884 75.4925 17.5884 75.6814 17.5884C75.8703 17.5884 76.0687 17.5884 76.2671 17.579C76.4654 17.579 76.6544 17.579 76.8338 17.579C77.2022 17.5884 77.5517 17.6451 77.8634 17.7396C78.1752 17.834 78.4396 17.9757 78.6664 18.1552C78.8931 18.3347 79.0631 18.5519 79.1764 18.8164C79.2898 19.0809 79.3465 19.3737 79.337 19.7232C79.3181 20.2144 79.1859 20.6112 78.9403 20.9229C78.6947 21.2252 78.3546 21.4519 77.939 21.5936C78.1941 22.0281 78.468 22.472 78.7608 22.9254C79.0536 23.3788 79.3559 23.8134 79.6865 24.2384L80.1683 24.5785V24.928L78.4585 24.8713L78.0335 24.5218C77.7312 24.144 77.4762 23.7 77.2495 23.1994C77.0227 22.6987 76.8244 22.217 76.6638 21.7352L75.842 21.7069L75.757 24.0967L75.7286 24.0778ZM76.4371 18.2213C76.2198 18.2213 76.0498 18.2213 75.9176 18.2686L75.8231 21.1118L76.4277 21.1307C76.7772 21.1401 77.0794 21.0268 77.3345 20.7906C77.5895 20.5545 77.7218 20.1861 77.7406 19.6949C77.7406 19.4399 77.7218 19.2226 77.6651 19.0431C77.599 18.8637 77.5139 18.7125 77.3911 18.5897C77.2683 18.4669 77.1361 18.3819 76.9661 18.3158C76.796 18.2497 76.626 18.2213 76.4371 18.2119V18.2213Z" fill="#231F20"/>
<path d="M83.8616 25.542L81.3962 25.0319L81.4718 24.6541C81.5946 24.6069 81.7174 24.5785 81.8497 24.5502C81.9819 24.5218 82.1141 24.5124 82.2369 24.5124L86.1476 18.6086L86.8844 18.7598L88.0557 25.7215C88.1785 25.7782 88.3107 25.8443 88.4335 25.9198C88.5563 25.9954 88.6602 26.0804 88.7452 26.1654L88.6697 26.5433L85.543 25.8915L85.6186 25.5137C85.7603 25.4759 85.902 25.4475 86.0626 25.4287C86.2232 25.4098 86.3648 25.3909 86.5065 25.4003L86.2609 23.6906L84.0411 23.2277L83.1249 24.6919C83.4271 24.7958 83.6916 24.9564 83.9372 25.1642L83.8616 25.542ZM84.419 22.6326L86.1854 23.001L85.9303 20.9607V20.0633H85.902L85.4958 20.8946L84.419 22.6421V22.6326Z" fill="#231F20"/>
<path d="M98.2952 30.3878L95.4897 29.1976L95.6408 28.8386C95.792 28.8386 95.9337 28.8292 96.0753 28.8386C96.217 28.8481 96.3587 28.8575 96.5099 28.8859L98.1724 24.9563L98.6824 23.8795L98.6069 23.8511L97.8701 24.7202L94.0917 28.6025L93.6572 28.423L93.7989 23.0482L93.9217 21.8108L93.8366 21.773L93.3454 22.9727L91.7207 26.8266C91.8246 26.9022 91.9474 26.9967 92.0608 27.1195C92.1836 27.2328 92.2875 27.3556 92.382 27.4784L92.2308 27.8374L89.9449 26.8644L90.096 26.5055C90.2188 26.5055 90.37 26.4866 90.54 26.4866C90.7195 26.4866 90.8706 26.4866 91.0217 26.5244L93.251 21.2535C93.1376 21.1779 93.0148 21.0835 92.892 20.9796C92.7692 20.8756 92.6653 20.7717 92.5898 20.6584L92.7409 20.2994L95.2819 21.3763L95.1024 25.8065L94.989 26.8266L95.6597 26.0332L98.7297 22.8499L101.063 23.8322L100.912 24.1912C100.779 24.2101 100.638 24.2195 100.496 24.2101C100.354 24.2101 100.213 24.1912 100.08 24.1629L97.8323 29.4904C97.9551 29.5754 98.0684 29.6604 98.1629 29.7643C98.2668 29.8682 98.3518 29.9627 98.4274 30.0477L98.2763 30.4067L98.2952 30.3878Z" fill="#231F20"/>
<path d="M40.4667 116.583C40.4761 116.686 40.5234 116.809 40.5895 116.942C40.6556 117.074 40.7784 117.215 40.9579 117.348C41.2507 117.574 41.5624 117.688 41.8741 117.688C42.1859 117.688 42.4503 117.546 42.6676 117.272C42.8187 117.074 42.8849 116.857 42.866 116.62C42.8471 116.394 42.781 116.139 42.6771 115.874C42.5731 115.61 42.4503 115.336 42.3181 115.062C42.1859 114.778 42.082 114.495 41.9969 114.193C41.9119 113.89 41.9025 113.588 41.9308 113.286C41.9686 112.984 42.1008 112.672 42.337 112.37C42.5448 112.105 42.7621 111.916 43.0171 111.793C43.2627 111.68 43.5177 111.623 43.7917 111.623C44.0562 111.623 44.3301 111.69 44.6135 111.803C44.8874 111.916 45.1613 112.086 45.4353 112.294C45.7659 112.549 46.0493 112.804 46.2949 113.069C46.5405 113.333 46.7388 113.598 46.89 113.872C46.805 113.975 46.6916 114.089 46.5783 114.221C46.4555 114.353 46.3327 114.476 46.2004 114.599C46.0776 114.722 45.9454 114.826 45.832 114.93C45.7187 115.033 45.6148 115.118 45.5297 115.175L45.1991 114.92L45.6809 113.532C45.6431 113.446 45.5675 113.343 45.4636 113.22C45.3597 113.097 45.2369 112.984 45.1047 112.88C44.878 112.7 44.6418 112.615 44.3962 112.615C44.1506 112.615 43.9334 112.719 43.7633 112.946C43.6028 113.154 43.5366 113.371 43.5555 113.617C43.5744 113.862 43.6311 114.117 43.735 114.382C43.8389 114.646 43.9617 114.93 44.094 115.222C44.2356 115.515 44.3395 115.808 44.4151 116.11C44.4907 116.413 44.519 116.715 44.4907 117.017C44.4623 117.319 44.3395 117.622 44.1034 117.914C43.6878 118.453 43.1871 118.727 42.592 118.736C42.0064 118.746 41.3546 118.481 40.6556 117.933C40.4856 117.801 40.3156 117.65 40.1644 117.499C40.0038 117.338 39.8621 117.187 39.7393 117.027C39.6165 116.866 39.5032 116.724 39.4182 116.583C39.3332 116.441 39.2765 116.328 39.2576 116.233C39.3615 116.11 39.4749 115.987 39.6071 115.865C39.7393 115.742 39.8716 115.61 40.0038 115.487C40.1361 115.364 40.2683 115.251 40.4006 115.137C40.5234 115.033 40.6462 114.939 40.7406 114.863L41.0712 115.118L40.4856 116.554L40.4667 116.583Z" fill="#231F20"/>
<path d="M50.2527 123.119C50.3755 123.214 50.4889 123.318 50.5739 123.422C50.6589 123.525 50.7439 123.62 50.8289 123.724L50.6589 124.073L47.8346 122.704L48.0046 122.354C48.1746 122.354 48.3352 122.354 48.4769 122.373C48.6186 122.392 48.7603 122.42 48.8925 122.458L51.4052 117.263C51.1312 117.046 50.9234 116.838 50.7817 116.63L50.9517 116.28L51.9247 116.753C52.0475 116.809 52.1892 116.875 52.3498 116.942C52.5103 117.008 52.6804 117.083 52.8504 117.159C53.0299 117.234 53.2093 117.31 53.3888 117.386C53.5683 117.461 53.7478 117.537 53.9083 117.622C54.2484 117.782 54.5412 117.971 54.7868 118.188C55.0324 118.406 55.2213 118.632 55.3536 118.887C55.4858 119.143 55.552 119.407 55.552 119.69C55.552 119.974 55.4764 120.276 55.3347 120.578C55.1174 121.022 54.8341 121.334 54.4846 121.513C54.1351 121.693 53.7383 121.759 53.2944 121.721C53.351 122.222 53.4266 122.741 53.5116 123.27C53.5966 123.799 53.7005 124.328 53.8233 124.848L54.1256 125.349L53.9745 125.66L52.4442 124.923L52.1986 124.432C52.0758 123.96 52.0191 123.45 52.0097 122.911C52.0097 122.364 52.0191 121.844 52.0664 121.334L51.3201 120.975L50.2811 123.119H50.2527ZM53.266 118.056C53.0771 117.962 52.9165 117.905 52.7748 117.886L51.5374 120.446L52.0853 120.711C52.397 120.862 52.7181 120.881 53.0488 120.767C53.3794 120.654 53.6533 120.371 53.8611 119.936C53.9745 119.709 54.0311 119.501 54.05 119.313C54.0689 119.124 54.05 118.944 53.9839 118.784C53.9178 118.623 53.8328 118.491 53.71 118.368C53.5872 118.245 53.436 118.141 53.266 118.066V118.056Z" fill="#231F20"/>
<path d="M57.8568 126.992L55.4481 126.265L55.5614 125.896C55.6842 125.868 55.8165 125.84 55.9487 125.83C56.0809 125.821 56.2132 125.811 56.336 125.83L60.7473 120.285L61.4652 120.503L62.0225 127.54C62.1453 127.606 62.2681 127.682 62.3814 127.767C62.4948 127.852 62.5892 127.946 62.6743 128.041L62.5609 128.409L59.5004 127.493L59.6137 127.124C59.7554 127.105 59.9066 127.087 60.0672 127.077C60.2277 127.077 60.3789 127.077 60.5111 127.077L60.4072 125.358L58.2441 124.706L57.205 126.085C57.4884 126.217 57.7434 126.397 57.9701 126.624L57.8568 126.992ZM58.6691 124.139L60.3978 124.659L60.3222 122.6L60.3883 121.702H60.3694L59.8971 122.486L58.6691 124.13V124.139Z" fill="#231F20"/>
<path d="M69.7304 127.323L70.1555 127.379C70.1555 127.521 70.1555 127.691 70.1555 127.871C70.1555 128.05 70.1555 128.239 70.146 128.437C70.146 128.636 70.1271 128.825 70.1082 129.014C70.0893 129.202 70.0705 129.382 70.0516 129.543L64.3556 128.74L64.4501 128.088L69.1731 122.883L66.6699 122.534L65.867 123.894L65.4419 123.837C65.4325 123.686 65.423 123.516 65.423 123.318C65.423 123.129 65.423 122.93 65.4325 122.741C65.4419 122.552 65.4514 122.364 65.4703 122.184C65.4891 122.005 65.508 121.844 65.5269 121.712L70.9206 122.467L70.8261 123.119L66.122 128.324L68.8897 128.711L69.721 127.323H69.7304Z" fill="#231F20"/>
<path d="M72.0919 122.515L75.4358 122.553V122.94C75.2847 123.015 75.1335 123.072 74.954 123.119C74.784 123.167 74.614 123.204 74.444 123.223L74.3778 129.014L76.3426 129.033L77.0416 127.219H77.4572C77.4856 127.379 77.5045 127.568 77.5328 127.776C77.5517 127.984 77.5706 128.211 77.58 128.437C77.5895 128.664 77.5989 128.9 77.5989 129.118C77.5989 129.344 77.5989 129.543 77.5989 129.713L72.0069 129.647V129.259C72.1675 129.184 72.3186 129.118 72.4603 129.07C72.602 129.023 72.7342 128.995 72.857 128.976L72.9232 123.204C72.5925 123.148 72.3092 123.044 72.0919 122.902V122.515Z" fill="#231F20"/>
<path d="M79.1008 126.076C79.0253 125.547 79.0253 125.056 79.1103 124.583C79.1953 124.111 79.3559 123.695 79.6015 123.327C79.8471 122.959 80.1588 122.656 80.565 122.411C80.9617 122.165 81.434 122.005 81.9913 121.929C82.5392 121.853 83.0398 121.872 83.4932 121.995C83.9466 122.118 84.3339 122.316 84.6645 122.6C84.9951 122.883 85.2691 123.242 85.4863 123.667C85.7036 124.092 85.8453 124.564 85.9209 125.093C85.9964 125.622 85.9964 126.114 85.9114 126.586C85.8264 127.058 85.6658 127.474 85.4297 127.842C85.1935 128.211 84.8723 128.513 84.4756 128.758C84.0789 129.004 83.6066 129.165 83.0493 129.24C82.5014 129.316 82.0008 129.297 81.5474 129.174C81.0939 129.051 80.7067 128.853 80.3666 128.57C80.0265 128.286 79.7526 127.927 79.5448 127.502C79.337 127.077 79.1859 126.605 79.1103 126.076H79.1008ZM80.82 125.83C80.8861 126.265 80.9711 126.652 81.0939 127.011C81.2167 127.37 81.3679 127.672 81.5474 127.918C81.7268 128.163 81.9441 128.343 82.1897 128.466C82.4353 128.588 82.7187 128.626 83.0304 128.579C83.3232 128.541 83.5499 128.428 83.7388 128.248C83.9277 128.069 84.0505 127.833 84.145 127.549C84.23 127.266 84.2773 126.935 84.2867 126.558C84.2961 126.18 84.2678 125.783 84.2017 125.348C84.1356 124.914 84.0505 124.527 83.9372 124.168C83.8238 123.809 83.6727 123.507 83.5027 123.261C83.3232 123.015 83.1154 122.836 82.8698 122.713C82.6242 122.59 82.3408 122.562 82.0102 122.6C81.6985 122.647 81.4529 122.76 81.264 122.94C81.0751 123.119 80.9428 123.355 80.8578 123.639C80.7728 123.922 80.7256 124.253 80.735 124.621C80.735 124.999 80.7728 125.396 80.8295 125.83H80.82Z" fill="#231F20"/>
<path d="M94.3467 125.849C94.2333 125.953 94.1011 126.066 93.9311 126.189C93.761 126.312 93.5816 126.435 93.3927 126.548C93.2037 126.661 93.0054 126.775 92.807 126.869C92.6086 126.964 92.4292 127.039 92.2686 127.096C91.7113 127.275 91.1917 127.351 90.71 127.351C90.2282 127.351 89.7843 127.238 89.3875 127.039C88.9908 126.841 88.6319 126.548 88.339 126.161C88.0368 125.774 87.8006 125.282 87.6117 124.697C87.4133 124.064 87.3378 123.488 87.4039 122.987C87.4606 122.477 87.6117 122.033 87.8478 121.655C88.084 121.268 88.3957 120.947 88.7641 120.692C89.1325 120.437 89.5387 120.238 89.9732 120.097C90.3983 119.964 90.8139 119.87 91.2106 119.804C91.6074 119.747 91.9285 119.738 92.1836 119.775C92.2119 119.87 92.2497 120.002 92.2875 120.153C92.3252 120.304 92.363 120.474 92.4008 120.654C92.4386 120.833 92.4669 121.022 92.4953 121.202C92.5236 121.391 92.5331 121.561 92.5425 121.712L92.1458 121.835L91.1351 120.531C91.05 120.522 90.9367 120.531 90.795 120.559C90.6533 120.588 90.5022 120.625 90.3605 120.673C90.096 120.758 89.8504 120.89 89.6426 121.069C89.4253 121.249 89.2647 121.485 89.1514 121.778C89.038 122.071 88.9814 122.411 88.9814 122.817C88.9814 123.214 89.0664 123.677 89.2364 124.206C89.3687 124.631 89.5481 125.008 89.7559 125.33C89.9637 125.651 90.1999 125.906 90.4644 126.104C90.7289 126.303 91.0028 126.425 91.3051 126.491C91.6074 126.558 91.9002 126.539 92.2119 126.444C92.3064 126.416 92.4103 126.378 92.5047 126.321C92.6086 126.274 92.6936 126.218 92.7787 126.17C92.8637 126.114 92.9298 126.057 92.9865 126.01C93.0431 125.953 93.0809 125.915 93.0998 125.877L92.5236 124.045C92.3536 124.083 92.1836 124.102 92.0135 124.102C91.853 124.102 91.6924 124.083 91.5412 124.045L91.4279 123.677L94.0822 122.845L94.1956 123.214C94.1578 123.289 94.0917 123.365 94.0161 123.45C93.9311 123.525 93.8272 123.61 93.6855 123.686L94.3656 125.868L94.3467 125.849Z" fill="#231F20"/>
<path d="M95.3763 122.127C95.1402 121.655 94.9796 121.183 94.9135 120.711C94.8473 120.238 94.8662 119.794 94.9796 119.369C95.0929 118.944 95.3007 118.557 95.603 118.198C95.9053 117.839 96.302 117.537 96.8027 117.291C97.3033 117.036 97.785 116.904 98.2479 116.875C98.7108 116.847 99.1453 116.913 99.5514 117.083C99.9576 117.244 100.326 117.499 100.666 117.83C101.006 118.17 101.29 118.566 101.526 119.048C101.762 119.52 101.922 119.993 101.989 120.465C102.055 120.937 102.036 121.381 101.932 121.806C101.818 122.231 101.62 122.619 101.318 122.978C101.016 123.337 100.619 123.639 100.118 123.884C99.6176 124.139 99.1358 124.272 98.673 124.3C98.2101 124.328 97.7662 124.262 97.36 124.102C96.9538 123.941 96.576 123.686 96.2453 123.355C95.9053 123.015 95.6219 122.609 95.3858 122.137L95.3763 122.127ZM96.916 121.353C97.1144 121.74 97.3222 122.09 97.5489 122.383C97.7756 122.685 98.0117 122.921 98.2668 123.091C98.5218 123.261 98.7769 123.365 99.0508 123.403C99.3247 123.44 99.5987 123.384 99.8821 123.242C100.147 123.11 100.326 122.93 100.439 122.704C100.553 122.477 100.609 122.212 100.6 121.91C100.591 121.608 100.534 121.287 100.42 120.928C100.307 120.569 100.147 120.2 99.9576 119.813C99.7593 119.426 99.5514 119.076 99.3247 118.774C99.098 118.472 98.8619 118.236 98.6163 118.056C98.3707 117.877 98.1157 117.773 97.8417 117.735C97.5678 117.697 97.2844 117.754 97.001 117.905C96.7176 118.047 96.5193 118.236 96.4059 118.462C96.2831 118.699 96.2264 118.954 96.2359 119.256C96.2359 119.549 96.3115 119.879 96.4343 120.229C96.5571 120.578 96.7176 120.956 96.9066 121.343L96.916 121.353Z" fill="#231F20"/>
<path d="M112.294 115.629L109.866 117.471L109.63 117.159C109.696 117.027 109.772 116.894 109.838 116.781C109.914 116.668 109.999 116.545 110.093 116.431L107.514 113.04L106.834 112.058L106.768 112.105L107.155 113.173L108.638 118.377L108.261 118.661L103.67 115.855L102.659 115.128L102.584 115.185L103.377 116.205L105.909 119.53C106.031 119.473 106.164 119.426 106.334 119.379C106.504 119.331 106.655 119.303 106.806 119.275L107.042 119.586L105.058 121.088L104.822 120.777C104.879 120.663 104.945 120.531 105.021 120.38C105.106 120.229 105.191 120.097 105.285 119.983L101.828 115.43C101.705 115.487 101.563 115.553 101.412 115.6C101.261 115.657 101.119 115.685 100.978 115.695L100.742 115.383L102.943 113.711L106.693 116.073L107.524 116.668L107.165 115.685L105.937 111.435L107.949 109.904L108.185 110.216C108.138 110.339 108.072 110.462 107.996 110.584C107.921 110.707 107.836 110.821 107.751 110.924L111.246 115.525C111.378 115.459 111.51 115.411 111.652 115.374C111.793 115.336 111.916 115.307 112.03 115.289L112.266 115.6L112.294 115.629Z" fill="#231F20"/>
<path d="M48.0896 84.6646C47.2961 84.6646 46.446 84.6079 45.5581 84.4851C44.6701 84.3623 43.7917 84.1828 42.9321 83.9467C42.0914 83.7105 41.2885 83.4366 40.5517 83.1249C39.7299 82.7848 39.0025 82.3598 38.4074 81.8875L37.4062 81.0845L39.5032 74.359H42.677L43.2343 75.0108C43.3949 75.1997 43.6311 75.4547 43.9333 75.7759C44.2545 76.116 44.5946 76.4749 44.9535 76.8433C45.3219 77.2306 45.6809 77.6084 46.0304 77.9863C46.2004 78.1752 46.361 78.3452 46.5121 78.5152C46.6916 78.553 46.8805 78.5814 47.0883 78.6286C47.3528 78.6758 47.844 78.7325 48.6941 78.7325C49.2609 78.7325 49.771 78.6097 50.2433 78.3641C50.7723 78.0902 51.2257 77.7218 51.6224 77.24C52.038 76.7394 52.3781 76.1443 52.6331 75.4831C52.8787 74.8313 53.0015 74.1323 53.0015 73.3955C53.0015 72.4981 52.8693 71.7236 52.6048 71.0812C52.3497 70.4672 52.0191 69.976 51.6035 69.5793C51.169 69.1731 50.6684 68.8803 50.0827 68.6631C49.4687 68.4458 48.7792 68.3324 48.0424 68.3324H43.1399V64.5824L50.2338 55.0797H45.3219L43.5083 59.8216H39.5032L39.2103 58.3008C39.0781 57.6301 38.9553 56.8933 38.8514 56.1282C38.738 55.3725 38.6436 54.6263 38.5491 53.8895C38.4547 53.1433 38.3697 52.4065 38.313 51.7075C38.2469 50.9801 38.2091 50.3 38.2091 49.6766V47.8063H60.1427V51.7453L52.652 61.758C53.3888 61.9186 54.0878 62.1453 54.7396 62.4287C56.1092 63.0238 57.29 63.8267 58.2535 64.828C59.217 65.8292 59.9632 67.01 60.4733 68.3419C60.9739 69.6549 61.2195 71.0907 61.2195 72.6115C61.2195 74.444 60.8417 76.1443 60.0955 77.6462C59.3587 79.1292 58.3668 80.4044 57.1389 81.4529C55.9298 82.4826 54.5223 83.2855 52.9732 83.8333C51.424 84.3812 49.7899 84.6646 48.0896 84.6646Z" fill="url(#paint2_linear_35_5103)"/>
<path d="M49.0814 84.6646C48.288 84.6646 47.4378 84.6079 46.5499 84.4851C45.662 84.3623 44.7835 84.1828 43.9239 83.9467C43.0738 83.7105 42.2803 83.4366 41.5435 83.1249C40.7217 82.7848 40.0038 82.3598 39.3993 81.8875L38.398 81.0845L40.4856 74.359H43.6594L44.2167 75.0108C44.3773 75.1997 44.6135 75.4547 44.9158 75.7759C45.2464 76.116 45.577 76.4749 45.9359 76.8433C46.3043 77.2306 46.6633 77.6084 47.0128 77.9863C47.1828 78.1752 47.3434 78.3452 47.4945 78.5152C47.674 78.553 47.8629 78.5814 48.0707 78.6286C48.3352 78.6758 48.8264 78.7325 49.6765 78.7325C50.2433 78.7325 50.7534 78.6097 51.2257 78.3641C51.7452 78.0902 52.2081 77.7123 52.6048 77.24C53.0204 76.7394 53.3605 76.1443 53.6155 75.4831C53.8611 74.8313 53.9839 74.1323 53.9839 73.3955C53.9839 72.4981 53.8517 71.7236 53.5872 71.0812C53.3321 70.4767 53.0015 69.9666 52.5859 69.5793C52.1514 69.1826 51.6413 68.8709 51.0651 68.6631C50.4511 68.4458 49.7616 68.3324 49.0248 68.3324H44.1317V64.5824L51.2257 55.0797H46.3138L44.5001 59.8216H40.495L40.2022 58.3008C40.07 57.6301 39.9472 56.8933 39.8432 56.1282C39.7299 55.3725 39.6354 54.6263 39.541 53.8895C39.4465 53.1433 39.3615 52.4065 39.3048 51.7075C39.2387 50.9801 39.2009 50.3 39.2009 49.6766V47.8063H61.1345V51.7453L53.6439 61.758C54.3806 61.9186 55.0797 62.1453 55.7314 62.4287C57.1011 63.0238 58.2818 63.8267 59.2453 64.828C60.2088 65.8292 60.9551 67.01 61.4652 68.3419C61.9658 69.6549 62.2114 71.0907 62.2114 72.6115C62.2114 74.444 61.8335 76.1443 61.0873 77.6556C60.3505 79.1387 59.3587 80.4139 58.1307 81.4624C56.9216 82.492 55.5142 83.2949 53.965 83.8428C52.4159 84.3907 50.7723 84.674 49.0814 84.674V84.6646Z" fill="white"/>
<path d="M49.0248 80.6028C49.8938 80.6028 50.6967 80.4139 51.4429 80.0171C52.1892 79.6298 52.841 79.1009 53.3983 78.4396C53.9556 77.769 54.3995 77.0039 54.7207 76.1348C55.0419 75.2658 55.2119 74.3495 55.2119 73.3955C55.2119 72.2525 55.0324 71.2418 54.6735 70.3728C54.3145 69.5037 53.8328 68.7858 53.2094 68.2096C52.5859 67.6334 51.868 67.1989 51.0462 66.9061C50.2244 66.6132 49.3365 66.4621 48.373 66.4621H45.3503V65.2058L53.1621 54.7396L54.7396 53.1149V52.926L52.227 53.2094H44.3679L42.5543 57.9513H41.3924C41.2696 57.2995 41.1563 56.6005 41.0429 55.8542C40.9295 55.108 40.8351 54.3712 40.7406 53.6439C40.6462 52.9165 40.5706 52.2081 40.5045 51.528C40.4384 50.8479 40.41 50.2244 40.41 49.6671H58.5936V51.1124L50.829 61.4841L48.8264 63.5339V63.6283L50.4039 63.3071C51.8586 63.3733 53.1621 63.6472 54.3145 64.1478C55.4575 64.6485 56.4304 65.3003 57.2239 66.1221C58.0174 66.9439 58.6219 67.9074 59.0375 69.0031C59.4532 70.1083 59.661 71.3079 59.661 72.6115C59.661 74.1606 59.3493 75.5681 58.7353 76.8244C58.1118 78.0807 57.2806 79.1481 56.251 80.036C55.2119 80.9239 54.0217 81.6041 52.6709 82.0858C51.3201 82.5676 49.9033 82.8037 48.4108 82.8037C47.6929 82.8037 46.9372 82.747 46.1343 82.6431C45.3314 82.5298 44.5379 82.3692 43.7633 82.1519C42.9888 81.9347 42.2709 81.6891 41.6002 81.4057C40.9295 81.1223 40.3722 80.8011 39.8999 80.4328L41.2035 76.2482H42.1292C42.3181 76.4654 42.5732 76.7488 42.8943 77.0889C43.2155 77.4289 43.565 77.7879 43.9145 78.1563C44.2734 78.5247 44.6229 78.9025 44.963 79.2709C45.303 79.6393 45.5959 79.9699 45.8509 80.2438C46.1626 80.3099 46.5594 80.3855 47.06 80.48C47.5512 80.5744 48.203 80.6217 49.0153 80.6217L49.0248 80.6028Z" fill="#231F20"/>
<path d="M98.9186 84.6646C96.746 84.6646 94.8379 84.2112 93.251 83.3044C91.664 82.3976 90.3605 81.0846 89.3781 79.3843C88.4524 77.7879 87.7723 75.8515 87.3567 73.6128C86.9599 71.478 86.7521 69.0126 86.7521 66.2827C86.7521 60.3789 87.7439 55.996 89.7937 52.8882C91.9757 49.5821 95.1307 47.9008 99.1831 47.9008C103.528 47.9008 106.768 49.5633 108.827 52.8505C110.736 55.9015 111.671 60.2939 111.671 66.2732C111.671 72.2526 110.669 76.5599 108.601 79.6677C106.4 82.9738 103.141 84.6457 98.9186 84.6457V84.6646ZM99.1925 53.6061C98.1157 53.6061 96.9066 53.8895 96.0848 55.9676C95.2441 58.093 94.819 61.5786 94.819 66.3394C94.819 68.4458 94.9229 70.3728 95.1213 72.092C95.3196 73.7356 95.6314 75.143 96.047 76.2954C96.4154 77.3062 96.8782 78.0713 97.4072 78.5625C97.8134 78.9403 98.2668 79.1104 98.8713 79.1104C100.524 79.1104 101.563 78.3641 102.262 76.6922C103.15 74.5574 103.604 71.0718 103.604 66.3394C103.604 64.2235 103.519 62.2776 103.339 60.5584C103.169 58.9431 102.876 57.5451 102.442 56.4305C102.064 55.4481 101.582 54.7019 101.016 54.2012C100.553 53.7951 99.9482 53.6061 99.1831 53.6061H99.1925Z" fill="url(#paint3_linear_35_5103)"/>
<path d="M99.8915 84.6646C97.7189 84.6646 95.8108 84.2112 94.2333 83.3044C92.6464 82.3976 91.3429 81.0846 90.351 79.3843C89.4253 77.7879 88.7452 75.8515 88.3296 73.6128C87.9328 71.478 87.725 69.0126 87.725 66.2827C87.725 60.4639 88.7546 55.9582 90.7666 52.8882C92.9487 49.5821 96.1036 47.9008 100.156 47.9008C104.501 47.9008 107.741 49.5633 109.8 52.8505C111.68 55.8637 112.644 60.3789 112.644 66.2732C112.644 72.1675 111.614 76.6072 109.574 79.6677C107.373 82.9738 104.114 84.6457 99.8915 84.6457V84.6646ZM100.165 53.6061C98.6446 53.6061 97.7095 54.3146 97.0577 55.9676C96.217 58.093 95.7919 61.5786 95.7919 66.3394C95.7919 68.4458 95.8958 70.3822 96.0942 72.092C96.2926 73.7356 96.6043 75.143 97.0199 76.2954C97.3883 77.3062 97.8512 78.0713 98.3801 78.5625C98.7769 78.9403 99.2492 79.1104 99.8443 79.1104C101.516 79.1104 102.527 78.383 103.235 76.6922C104.123 74.5574 104.577 71.0718 104.577 66.3394C104.577 64.2235 104.492 62.2776 104.312 60.5584C104.152 58.9431 103.849 57.5451 103.415 56.4305C103.037 55.4481 102.555 54.7019 101.989 54.2012C101.516 53.7951 100.931 53.6061 100.156 53.6061H100.165Z" fill="white"/>
<path d="M88.9247 66.2922C88.9247 60.8135 89.8409 56.6856 91.664 53.9084C93.4871 51.1408 96.1131 49.7522 99.5231 49.7522C103.207 49.7522 105.899 51.1124 107.609 53.8423C109.319 56.5722 110.169 60.719 110.169 66.2922C110.169 71.8653 109.243 75.8987 107.401 78.6759C105.559 81.4435 102.839 82.8321 99.2492 82.8321C97.3883 82.8321 95.8108 82.4637 94.4978 81.7175C93.1848 80.9712 92.1269 79.8944 91.2956 78.4775C90.4738 77.0606 89.8693 75.332 89.4914 73.2916C89.1136 71.2513 88.9247 68.9181 88.9247 66.3016V66.2922ZM93.3076 66.3299C93.3076 68.512 93.4115 70.5051 93.6288 72.2998C93.8366 74.0946 94.1861 75.6343 94.6584 76.9189C95.1307 78.213 95.7353 79.2048 96.4815 79.9038C97.2277 80.6028 98.1345 80.9524 99.2019 80.9524C101.611 80.9524 103.302 79.7716 104.293 77.4007C105.285 75.0297 105.776 71.3458 105.776 66.3394C105.776 64.1574 105.682 62.1642 105.502 60.3695C105.323 58.5748 104.983 57.0445 104.501 55.7693C104.01 54.4941 103.368 53.5117 102.555 52.8127C101.752 52.1137 100.732 51.7642 99.5137 51.7642C97.2277 51.7642 95.6219 52.9449 94.6962 55.297C93.7705 57.6491 93.3076 61.333 93.3076 66.3394V66.3299Z" fill="#231F20"/>
<path d="M73.7733 84.6645C71.8463 84.6645 70.0893 84.315 68.578 83.6255C67.0477 82.9265 65.7347 81.9441 64.6768 80.6878C63.6377 79.4598 62.8537 77.9957 62.3342 76.3332C61.8335 74.7273 61.5785 72.9609 61.5785 71.0717C61.5785 68.0396 62.0886 65.2058 63.0993 62.6554C64.1006 60.1333 65.4514 57.8568 67.1139 55.9015C68.7763 53.9461 70.7128 52.3025 72.8665 51.0084C75.0202 49.7143 77.2966 48.7981 79.6298 48.2785L81.179 47.9385L82.8509 52.4915L81.1317 53.1054C79.6959 53.6155 78.3168 54.324 77.0227 55.2119C75.7381 56.0904 74.5762 57.1389 73.556 58.3291C72.5453 59.5193 71.6857 60.8606 71.015 62.3342C70.9962 62.372 70.9773 62.4192 70.9584 62.457C72.1297 62.0225 73.4238 61.8052 74.8123 61.8052C76.3143 61.8052 77.7406 62.0603 79.0536 62.5514C80.4044 63.0615 81.5662 63.8078 82.5297 64.7618C83.4838 65.7159 84.2395 66.8872 84.7779 68.2568C85.3069 69.6076 85.5808 71.1473 85.5808 72.8287C85.5808 74.4251 85.2974 75.9648 84.7401 77.3817C84.1733 78.808 83.3704 80.0832 82.3408 81.1601C81.3017 82.2464 80.0454 83.1154 78.5907 83.7388C77.1361 84.3528 75.5208 84.674 73.7922 84.674L73.7733 84.6645ZM69.5509 69.9382C69.5226 70.2122 69.5131 70.5333 69.5131 70.8828V72.243C69.5131 73.0554 69.6265 73.9055 69.8437 74.7651C70.0516 75.5869 70.3727 76.3521 70.7978 77.0322C71.1945 77.6651 71.6668 78.1751 72.2619 78.5719C72.7531 78.9119 73.3199 79.0725 74.0094 79.0725C74.6234 79.0725 75.1146 78.9497 75.5113 78.6947C75.9648 78.4113 76.3237 78.0334 76.6165 77.5517C76.9471 76.9944 77.2022 76.3426 77.3722 75.6153C77.5517 74.8313 77.6461 74.0283 77.6461 73.2349C77.6461 71.4874 77.2589 70.1271 76.4654 69.0881C75.7758 68.1907 74.8596 67.7656 73.5655 67.7656C72.5359 67.7656 71.6857 68.0018 70.9867 68.493C70.3444 68.9464 69.8626 69.4281 69.5698 69.9382H69.5509Z" fill="url(#paint4_linear_35_5103)"/>
<path d="M74.7368 84.6645C72.8098 84.6645 71.0528 84.315 69.5415 83.6255C68.0112 82.9265 66.6982 81.9441 65.6403 80.6878C64.6012 79.4598 63.8172 77.9957 63.2977 76.3332C62.797 74.7273 62.542 72.9609 62.542 71.0717C62.542 68.0396 63.0521 65.2058 64.0628 62.6554C65.0641 60.1333 66.4149 57.8568 68.0774 55.9015C69.7398 53.9461 71.6763 52.3025 73.83 51.0084C75.9837 49.7143 78.2601 48.7981 80.5933 48.2785L82.1425 47.9385L83.8144 52.4915L82.0952 53.1054C80.6594 53.6155 79.2803 54.324 77.9862 55.2119C76.7016 56.0904 75.5397 57.1389 74.5195 58.3291C73.5088 59.5193 72.6492 60.8606 71.9785 62.3342C71.9597 62.372 71.9408 62.4192 71.9219 62.457C73.0932 62.0225 74.3873 61.8052 75.7758 61.8052C77.2778 61.8052 78.7041 62.0603 80.0171 62.5514C81.3584 63.0615 82.5297 63.8078 83.4932 64.7618C84.4473 65.7159 85.203 66.8872 85.7414 68.2568C86.2704 69.6076 86.5443 71.1473 86.5443 72.8287C86.5443 74.4251 86.2609 75.9648 85.6942 77.3817C85.1274 78.808 84.3245 80.0738 83.2949 81.1601C82.2558 82.2464 80.9995 83.1154 79.5448 83.7388C78.0901 84.3528 76.4748 84.674 74.7462 84.674L74.7368 84.6645ZM70.5144 69.9382C70.4861 70.2122 70.4766 70.5333 70.4766 70.8828V72.243C70.4766 73.0554 70.59 73.9055 70.8072 74.7651C71.0151 75.5869 71.3362 76.3521 71.7613 77.0322C72.1486 77.6556 72.6398 78.1751 73.2254 78.5719C73.7261 78.9119 74.2739 79.0725 74.9729 79.0725C75.5869 79.0725 76.0781 78.9497 76.4748 78.6947C76.9283 78.4113 77.2872 78.0334 77.58 77.5517C77.9106 76.9944 78.1657 76.3426 78.3357 75.6153C78.5152 74.8313 78.6096 74.0283 78.6096 73.2349C78.6096 71.5063 78.2129 70.1177 77.4289 69.0881C76.7393 68.1907 75.8231 67.7656 74.529 67.7656C73.4994 67.7656 72.6492 68.0018 71.9502 68.493C71.3079 68.9464 70.8261 69.4281 70.5333 69.9382H70.5144Z" fill="white"/>
<path d="M84.0694 72.8287C84.0694 74.2078 83.8333 75.502 83.3515 76.7205C82.8698 77.939 82.1991 78.997 81.3301 79.9132C80.4611 80.8295 79.4125 81.5474 78.1846 82.0764C76.9566 82.6053 75.5964 82.8604 74.0945 82.8604C72.4131 82.8604 70.93 82.5676 69.6454 81.9819C68.3607 81.3963 67.2744 80.5839 66.3865 79.5354C65.4986 78.4869 64.8374 77.24 64.384 75.8042C63.9306 74.3684 63.7133 72.7909 63.7133 71.0812C63.7133 68.2663 64.1761 65.6781 65.1113 63.3261C66.037 60.974 67.2744 58.8864 68.8236 57.0728C70.3633 55.2592 72.1391 53.7572 74.1322 52.5576C76.1253 51.358 78.2035 50.5173 80.3572 50.0355L80.8483 51.3863C79.2614 51.9531 77.7501 52.7276 76.3332 53.7006C74.9068 54.6735 73.6316 55.8165 72.517 57.1389C71.3929 58.4614 70.4577 59.9349 69.7115 61.5691C68.9653 63.2033 68.5024 64.9602 68.3135 66.8494C68.7952 66.0371 69.6454 65.3003 70.8734 64.6202C72.1013 63.9495 73.5277 63.6094 75.143 63.6094C76.4276 63.6094 77.6273 63.8172 78.7419 64.2423C79.8471 64.6674 80.7917 65.2625 81.5757 66.0371C82.3503 66.8211 82.9642 67.7751 83.4177 68.9181C83.8711 70.0611 84.0883 71.3646 84.0883 72.8287H84.0694ZM79.7621 73.2349C79.7621 71.0907 79.2425 69.3432 78.2129 67.9924C77.1833 66.6322 75.7286 65.952 73.8772 65.952C72.4697 65.952 71.2606 66.311 70.2594 67.01C69.2581 67.7184 68.5402 68.5119 68.1246 69.3809C68.0679 69.806 68.0301 70.2972 68.0301 70.8734V72.2336C68.0301 73.1971 68.1529 74.189 68.408 75.1997C68.663 76.2104 69.0503 77.1361 69.5793 77.9768C70.0988 78.8175 70.76 79.5165 71.5535 80.0549C72.3469 80.5933 73.2726 80.8673 74.3212 80.8673C75.2752 80.8673 76.1065 80.65 76.796 80.2155C77.4856 79.781 78.0429 79.1953 78.4774 78.4774C78.9119 77.7501 79.2331 76.9283 79.4409 76.012C79.6487 75.0958 79.7526 74.1606 79.7526 73.2255L79.7621 73.2349Z" fill="#231F20"/>
<path d="M127.871 94.9702C112.719 89.9638 94.5639 83.0021 75.0296 83.0021C55.4953 83.0021 37.3401 89.9732 22.1887 94.9702C36.2254 87.4322 54.7396 80.6028 75.0296 80.6028C95.3196 80.6028 113.834 87.4322 127.871 94.9702Z" fill="white"/>
<mask id="mask0_35_5103" style="mask-type:luminance" maskUnits="userSpaceOnUse" x="54" y="89" width="40" height="12">
<path d="M66.7738 99.8349V100.194C66.8399 100.194 66.9155 100.175 67.01 100.165V100.005V99.7782C66.9438 99.7971 66.8683 99.816 66.7832 99.8254M82.5203 98.3519H82.6053C82.577 98.3519 82.5486 98.3519 82.5203 98.3519ZM70.9867 98.3613H70.9678C71.4496 98.333 71.8463 98.3235 72.2997 98.3235C72.8476 98.3235 74.5195 98.3424 75.5397 98.3897C75.5397 98.3802 75.5397 98.3613 75.5397 98.3519C74.5479 98.3235 73.1971 98.3046 72.6965 98.3046C72.1108 98.3046 71.6102 98.3235 70.9962 98.3613M82.6998 98.3424H82.6148C82.9831 98.333 83.3515 98.3235 83.7199 98.3235C83.9655 98.3235 84.9385 98.3519 85.1746 98.3613V98.3235C84.7968 98.3141 84.2773 98.2952 84.1072 98.2952C83.5877 98.2952 83.1248 98.3046 82.6998 98.333M85.8075 97.9929V98.3613C86.2987 98.3424 86.7899 98.3235 87.2716 98.3235C87.725 98.3235 88.1312 98.3424 88.6035 98.3613V98.3235C88.2824 98.3141 87.9801 98.3046 87.6589 98.3046C87.1866 98.3046 86.6954 98.3235 86.2231 98.3424H86.0248V97.9835C85.9492 97.9835 85.8642 97.9929 85.7981 97.9929M70.5805 98.0024V98.3802C70.6561 98.3802 70.7317 98.3708 70.8073 98.3708V97.974C70.7411 97.9929 70.6656 98.0024 70.5805 98.0118M82.2936 97.9929V98.3613C82.3692 98.3613 82.4447 98.3613 82.5203 98.3519V97.9646C82.4542 97.9835 82.3786 97.9929 82.2936 97.9929ZM81.3395 96.9633C81.4812 96.8311 81.5946 96.6894 81.6891 96.5571L81.6324 96.5193C81.5568 96.6516 81.4623 96.8122 81.3395 96.9728M75.3791 96.3588C75.2941 96.7555 75.1807 97.0389 75.058 97.2467C75.2658 97.105 75.4263 96.8405 75.5586 96.3588H75.3791ZM62.1831 95.9148C62.1925 96.1793 62.2019 96.4532 62.2019 96.7272C62.2019 97.105 62.1831 97.4639 62.1547 97.8607C62.7593 98.1535 63.3449 98.4369 64.1478 98.4369C64.2706 98.4369 64.3934 98.4274 64.5162 98.4085C63.6661 98.4085 63.0332 98.0968 62.4759 97.8134L62.372 97.7662V97.6529C62.4192 97.1994 62.4286 96.8688 62.4286 96.5382C62.4286 96.3399 62.4286 96.1321 62.4192 95.9148H62.1831ZM73.3293 94.8946V94.9135H73.471C73.9811 94.9135 74.0756 94.9608 74.1511 95.178C74.1795 95.3103 74.2267 95.6786 74.255 95.9242H74.699C74.699 95.9242 74.699 95.9148 74.699 95.9053H74.5101L74.4723 95.6031C74.444 95.3858 74.4156 95.1213 74.3873 95.0269C74.3495 94.923 74.3401 94.8852 73.8678 94.8852H73.3388L73.3293 94.8946ZM85.0518 95.1024C85.0518 95.1024 85.0518 95.1024 85.0518 95.1213L86.2042 97.3128C86.242 97.3884 86.3081 97.5395 86.3365 97.6434C86.5065 97.6434 86.5821 97.6056 86.5821 97.549C86.5821 97.5017 86.5065 97.3317 86.4498 97.1995L85.2974 95.0174C85.1652 94.7813 85.1274 94.6963 85.0424 94.6774V95.1213L85.0518 95.1024ZM74.2834 93.3833C74.2456 93.6855 74.2173 93.9028 74.1795 94.0539C74.3873 94.0256 74.4156 93.9028 74.4817 93.3833H74.2834ZM76.7771 92.5898C76.456 93.1849 76.2954 93.9973 76.2954 94.7624C76.2954 96.746 77.2116 98.4274 79.3275 98.4274C79.4598 98.4274 79.592 98.4274 79.7148 98.4085C77.7501 98.4085 76.5315 96.935 76.5315 94.5735C76.5315 93.7422 76.711 92.9204 77.0322 92.3159C77.1266 92.1364 77.24 91.9664 77.3628 91.8058C77.1361 92.023 76.9377 92.2875 76.7866 92.5804M54.8813 94.6774C54.8813 97.1333 56.3076 98.4369 58.0268 98.4369C58.1496 98.4369 58.2724 98.4369 58.3952 98.4085C56.761 98.3991 55.108 97.1806 55.108 94.4884C55.108 93.5155 55.4008 92.5048 56.0054 91.7491C55.3347 92.3725 54.8907 93.3455 54.8907 94.6679M88.4146 94.6774C88.4146 97.1333 89.841 98.4369 91.5601 98.4369C91.6829 98.4369 91.8057 98.4369 91.9285 98.4085C90.2944 98.3991 88.6507 97.1806 88.6507 94.4884C88.6507 93.5155 88.9436 92.5048 89.5387 91.7491C88.868 92.3725 88.424 93.3455 88.424 94.6679M73.5844 91.5602C73.4805 91.5602 73.4238 91.5602 73.386 91.5885H73.5655C74.5573 91.5885 74.8312 91.7774 74.9824 92.9204H75.4263V92.9015H75.2374L75.2185 92.7598C75.0768 91.6735 74.869 91.5696 73.9622 91.5696H73.5844V91.5602ZM62.7687 91.5413C62.4664 91.8247 62.2019 92.3159 62.2019 92.996C62.2019 94.2901 63.0332 94.7907 64.1762 95.4142C64.8185 95.7542 65.4041 96.0754 65.4041 96.746C65.4041 96.8972 65.3664 97.105 65.253 97.2939C65.5364 97.0861 65.6308 96.7649 65.6308 96.5571C65.6308 95.9715 65.1019 95.6975 64.4879 95.3669C63.4299 94.7907 62.4286 94.2523 62.4286 92.8071C62.4286 92.1836 62.6365 91.7491 62.8348 91.4752C62.8159 91.4941 62.7876 91.513 62.7687 91.5319M79.8376 91.4846C80.291 91.5224 80.6878 91.7491 80.9239 92.2309C81.0939 92.5804 81.1601 92.9865 81.2073 93.3738H81.6891V93.3549H81.4529L81.434 93.2132C81.3773 92.8165 81.3207 92.4387 81.1601 92.1269C80.8956 91.5791 80.4327 91.4657 80.0927 91.4657C79.9982 91.4657 79.9132 91.4752 79.8282 91.4941M64.554 91.4752C65.5553 91.5507 65.6686 92.4953 65.7253 92.996H66.2354V92.9771H65.9709L65.952 92.8354C65.8764 92.1647 65.7159 91.4468 64.8185 91.4468C64.724 91.4468 64.6296 91.4563 64.554 91.4752ZM58.2346 91.3618C58.5558 91.4091 58.8958 91.6358 59.1887 92.1931C59.576 92.9299 59.6704 93.9973 59.6704 94.8568C59.6704 96.047 59.4532 96.9255 59.0753 97.4545C59.5948 97.0389 59.8971 96.047 59.8971 94.6679C59.8971 93.5533 59.7365 92.6559 59.4343 92.0892C59.1698 91.5885 58.8486 91.3335 58.4802 91.3335C58.3952 91.3335 58.3102 91.3524 58.2346 91.3713M91.7679 91.3618C92.0891 91.4091 92.4292 91.6358 92.722 92.1931C93.1093 92.9299 93.2037 93.9973 93.2037 94.8568C93.2037 96.047 92.9865 96.9255 92.6086 97.4545C93.1282 97.0389 93.4304 96.047 93.4304 94.6679C93.4304 93.5533 93.2698 92.6559 92.9676 92.0892C92.7031 91.5885 92.3819 91.3335 92.0135 91.3335C91.9285 91.3335 91.8435 91.3524 91.7679 91.3713M67.0477 91.3713C67.624 91.4374 67.794 91.6358 67.794 92.2214V98.1252C67.794 98.5975 67.794 99.0131 67.6239 99.3154C68.0018 99.0792 68.0207 98.6352 68.0207 97.9362V92.0325C68.0207 91.5318 67.9073 91.409 67.4161 91.3429L67.2744 91.324V91.0407C67.1989 91.0407 67.1233 91.0407 67.0477 91.0312V91.3713ZM70.6183 91.409C71.119 91.4563 71.3268 91.6641 71.3362 92.212V97.0767C71.3362 97.2939 71.3079 97.4639 71.2607 97.5962C71.4779 97.5206 71.5535 97.3411 71.5629 96.8877V92.023C71.5629 91.5791 71.4212 91.4279 70.9962 91.3807L70.845 91.3618V91.0218C70.7695 91.0218 70.7033 91.0218 70.6183 91.0123V91.3996V91.409ZM86.0531 91.3807C86.412 91.3996 86.686 91.4374 86.686 91.6924C86.686 91.8247 86.5821 91.9664 86.4971 92.0797L85.1841 93.7611C85.1368 93.8178 85.0991 93.8745 85.0613 93.9122C85.0802 93.9028 85.1085 93.8745 85.1368 93.8461L85.1652 93.8178C85.1652 93.8178 85.2407 93.7233 85.3163 93.6194L86.7521 91.7774C86.8088 91.7019 86.9032 91.5696 86.9032 91.4941C86.9032 91.4279 86.8182 91.3713 86.4215 91.3524H86.2704V91.0312C86.1948 91.0312 86.1192 91.0218 86.0437 91.0123V91.3713L86.0531 91.3807ZM82.3125 91.3713C82.8887 91.4374 83.0304 91.6735 83.0493 92.2781V96.9822C83.0493 97.2561 83.0209 97.4545 82.9643 97.5962C83.191 97.5206 83.2571 97.3317 83.276 96.7838V92.0797C83.2571 91.5319 83.1437 91.3902 82.6809 91.3429L82.5297 91.324V91.0218C82.4542 91.0218 82.3786 91.0218 82.303 91.0029V91.3618L82.3125 91.3713ZM77.6367 89.926L78.9214 90.625H79.7621L79.8093 90.6061H79.2709L78.0334 89.926H77.6367Z" fill="white"/>
</mask>
<g mask="url(#mask0_35_5103)">
<path d="M74.1522 70.65L49.7392 95.063L74.1522 119.476L98.5652 95.063L74.1522 70.65Z" fill="url(#paint5_linear_35_5103)"/>
</g>
<path d="M61.6541 94.4222C61.6541 97.0293 60.0199 98.2479 58.4235 98.2479C56.7044 98.2479 55.278 96.9443 55.278 94.4884C55.278 92.0324 56.8272 90.7761 58.4613 90.7383C60.4355 90.7005 61.6541 92.3725 61.6541 94.4128M56.8461 94.3656C56.8461 95.6786 57.1578 97.8323 58.4613 97.8323C59.4154 97.8323 60.0671 96.6893 60.0671 94.6584C60.0671 93.8083 59.9727 92.7409 59.5854 91.9946C59.2453 91.3523 58.8486 91.1539 58.4897 91.1539C57.3845 91.1539 56.8555 92.6464 56.8555 94.3561" fill="#040303"/>
<path d="M63.1371 95.7259C63.1465 96.3115 63.156 96.9066 63.5811 97.3128C63.9117 97.6339 64.299 97.6623 64.5446 97.6623C65.5269 97.6623 65.8009 96.9444 65.8009 96.5666C65.8009 95.8864 65.2058 95.5653 64.5729 95.2347C63.4299 94.6207 62.5987 94.1106 62.5987 92.8259C62.5987 92.1364 62.8632 91.6546 63.1654 91.3713C63.7417 90.795 64.5446 90.795 64.7902 90.795C65.4797 90.795 66.0654 90.9273 66.6416 91.0501C66.6416 91.3524 66.6416 91.6452 66.6416 91.9475C66.6416 92.2497 66.6416 92.5237 66.6416 92.8165H66.1315C66.0654 92.2875 65.952 91.2862 64.8374 91.2862C64.1006 91.2862 63.77 91.7774 63.77 92.2592C63.77 92.7976 64.2045 93.0526 64.4973 93.2227C64.9224 93.4588 65.338 93.6761 65.7536 93.9217C66.1693 94.1767 66.9722 94.7057 66.9722 95.9337C66.9722 97.3506 65.9426 98.2479 64.5446 98.2479C63.7416 98.2479 63.156 97.974 62.5515 97.6717C62.5798 97.2844 62.5987 96.9255 62.5987 96.5382C62.5987 96.2737 62.5892 95.9903 62.5798 95.7259H63.1465H63.1371Z" fill="#040303"/>
<path d="M67.4445 90.8423C67.9357 90.8801 68.4174 90.899 68.8992 90.899C69.3809 90.899 69.891 90.8801 70.3916 90.8423V91.2012C69.806 91.2579 69.6548 91.4468 69.6548 92.0514V96.2076C69.6359 97.5773 69.6359 98.0685 69.3148 98.6919C68.7291 99.8443 67.6428 99.9482 67.1705 100.005V99.646C68.1813 99.4948 68.2001 98.8147 68.2001 97.9362V92.0325C68.2001 91.4468 68.0207 91.2485 67.4539 91.1823V90.8423H67.4445Z" fill="#040303"/>
<path d="M71.0056 90.8328C71.8463 90.8705 72.2714 90.8989 73.2254 90.8989C74.8312 90.8989 75.0296 90.8894 75.7192 90.8328C75.7286 91.6357 75.7381 91.8151 75.8231 92.7314H75.3791C75.228 91.579 74.9541 91.3995 73.9622 91.3995H73.5844C73.2727 91.409 73.1688 91.4562 73.1688 91.7679V94.2239H73.9339C74.5479 94.2333 74.5573 94.1105 74.6707 93.1943H75.1052C75.0768 93.676 75.0391 94.12 75.0391 94.5734C75.0391 94.9607 75.058 95.3574 75.0769 95.7447H74.6329C74.6045 95.4991 74.5573 95.1307 74.529 94.989C74.4534 94.7717 74.3684 94.7245 73.8489 94.7245H73.1499V97.2466C73.1404 97.5111 73.2254 97.5961 73.5371 97.6055H74.1606C74.9541 97.5772 75.4641 97.4922 75.7475 96.1698H76.2009C76.0498 96.9916 76.012 97.2088 75.8986 98.1912C74.8785 98.1534 73.2065 98.1251 72.6681 98.1251C72.1297 98.1251 71.6196 98.144 70.9489 98.1912V97.8134C71.4968 97.7756 71.6857 97.5678 71.6952 96.8876V92.023C71.6857 91.4751 71.4779 91.2767 70.9773 91.22V90.8328H71.0056Z" fill="#040303"/>
<path d="M82.4164 96.6137C82.0574 97.1805 81.3584 98.2479 79.7148 98.2479C77.5989 98.2479 76.6826 96.5665 76.6826 94.5828C76.6826 93.8083 76.8432 92.9959 77.1644 92.4103C77.7123 91.3617 78.7986 90.7572 79.8848 90.7572C80.3571 90.7572 80.8389 90.88 81.2923 90.9934C81.6607 91.0878 81.7457 91.0973 82.0763 91.1539C82.0574 91.4845 82.048 91.8152 82.048 92.1363C82.048 92.4858 82.0574 92.8353 82.0763 93.1754H81.5946C81.5473 92.7975 81.4812 92.3819 81.3112 92.0324C81.0561 91.5129 80.6027 91.2767 80.1021 91.2767C79.4409 91.2767 78.9308 91.7018 78.6191 92.2875C78.364 92.7786 78.2412 93.4871 78.2412 94.1955C78.2412 96.1509 79.0347 97.5867 80.2627 97.5867C80.4705 97.5867 80.7255 97.5489 80.9806 97.4166C81.5473 97.1427 81.8307 96.661 82.0291 96.3303L82.4164 96.6137Z" fill="#040303"/>
<path d="M80.1588 90.4361H79.3181L78.0334 89.7371H78.8364L79.7526 90.0582L80.6689 89.7371H81.4623L80.1588 90.4361Z" fill="#040303"/>
<path d="M82.7092 90.8234C83.2004 90.8611 83.6821 90.88 84.1733 90.88C84.6362 90.88 85.1085 90.8611 85.5808 90.8234V91.1918C85.0329 91.2768 84.9196 91.4846 84.8912 92.0136V94.1295C85.0329 94.12 85.1274 94.1106 85.2596 93.9689C85.288 93.95 85.3824 93.8272 85.5808 93.5816L86.8938 91.9002C86.9788 91.7869 87.0827 91.6452 87.0827 91.5129C87.0827 91.2673 86.8088 91.2295 86.4498 91.2012V90.8423C86.8654 90.8706 87.2149 90.9084 87.6022 90.9084C87.9612 90.9084 88.3201 90.88 88.6885 90.8423V91.2106C88.1123 91.3146 88.0462 91.3996 87.3094 92.2969L86.327 93.5533L88.1406 96.916C88.5468 97.6434 88.6318 97.7662 89.0002 97.8228V98.1912C88.5279 98.1724 88.1218 98.1535 87.6683 98.1535C87.1866 98.1535 86.6954 98.1724 86.1948 98.1912V97.8228C86.4026 97.8228 86.7521 97.8229 86.7521 97.5584C86.7521 97.4733 86.6482 97.2372 86.601 97.1427L85.4485 94.9513C85.2502 94.5923 85.2029 94.4979 84.8818 94.5073V97.0672C84.8912 97.53 84.9951 97.8323 85.5619 97.8323V98.2007C85.3257 98.1912 84.3528 98.1629 84.1072 98.1629C83.6349 98.1629 83.1626 98.1724 82.6903 98.2007V97.8323C83.2949 97.7945 83.4271 97.5773 83.446 96.8121V92.108C83.4271 91.5035 83.276 91.2673 82.7092 91.2012V90.8423V90.8234Z" fill="#040303"/>
<path d="M95.1874 94.4222C95.1874 97.0293 93.5532 98.2479 91.9569 98.2479C90.2377 98.2479 88.8113 96.9443 88.8113 94.4884C88.8113 92.0324 90.3605 90.7761 91.9946 90.7383C93.9689 90.7005 95.1874 92.3725 95.1874 94.4128M90.3794 94.3656C90.3794 95.6786 90.6911 97.8323 91.9946 97.8323C92.9487 97.8323 93.6005 96.6893 93.6005 94.6584C93.6005 93.8083 93.506 92.7409 93.1187 91.9946C92.7787 91.3523 92.3819 91.1539 92.023 91.1539C90.9178 91.1539 90.3888 92.6464 90.3888 94.3561" fill="#040303"/>
<path d="M127.871 94.9702C112.719 89.9638 94.5639 83.5594 75.0296 83.5594C55.4953 83.5594 37.3401 89.9638 22.1887 94.9702C36.2254 87.4323 54.7396 81.1602 75.0296 81.1602C95.3196 81.1602 113.834 87.4323 127.871 94.9702Z" fill="url(#paint6_linear_35_5103)"/>
<path d="M127.871 94.9701C112.719 89.9637 94.5639 87.0544 75.0296 87.0544C55.4953 87.0544 37.3401 89.9732 22.1887 94.9701C36.2254 87.4322 54.7396 82.8604 75.0296 82.8604C95.3196 82.8604 113.834 87.4322 127.871 94.9701Z" fill="#231F20"/>
</g>
<defs>
<linearGradient id="paint0_linear_35_5103" x1="0.472306" y1="74.0001" x2="149.577" y2="74.0001" gradientUnits="userSpaceOnUse">
<stop stop-color="#B4832C"/>
<stop offset="0.15" stop-color="#E9D376"/>
<stop offset="0.29" stop-color="#BE9A38"/>
<stop offset="0.48" stop-color="#ECD87D"/>
<stop offset="0.68" stop-color="#DEC565"/>
<stop offset="1" stop-color="#ECD87D"/>
</linearGradient>
<linearGradient id="paint1_linear_35_5103" x1="13.0371" y1="73.9975" x2="136.997" y2="73.9975" gradientUnits="userSpaceOnUse">
<stop stop-color="#C7C6C5"/>
<stop offset="0.34" stop-color="#E4E4E4"/>
<stop offset="0.71" stop-color="white"/>
<stop offset="0.99" stop-color="#BCBCBB"/>
</linearGradient>
<linearGradient id="paint2_linear_35_5103" x1="37.4156" y1="66.2354" x2="61.2195" y2="66.2354" gradientUnits="userSpaceOnUse">
<stop stop-color="#BE8B2C"/>
<stop offset="0.15" stop-color="#E6D176"/>
<stop offset="0.29" stop-color="#BD9837"/>
<stop offset="0.48" stop-color="#DAC669"/>
<stop offset="0.68" stop-color="#DDC467"/>
<stop offset="1" stop-color="#C2983C"/>
</linearGradient>
<linearGradient id="paint3_linear_35_5103" x1="86.7616" y1="66.2827" x2="111.68" y2="66.2827" gradientUnits="userSpaceOnUse">
<stop stop-color="#BE8B2C"/>
<stop offset="0.15" stop-color="#E6D176"/>
<stop offset="0.29" stop-color="#BD9837"/>
<stop offset="0.48" stop-color="#DAC669"/>
<stop offset="0.68" stop-color="#DDC467"/>
<stop offset="1" stop-color="#C2983C"/>
</linearGradient>
<linearGradient id="paint4_linear_35_5103" x1="61.5785" y1="66.2921" x2="85.5619" y2="66.2921" gradientUnits="userSpaceOnUse">
<stop stop-color="#BE8B2C"/>
<stop offset="0.15" stop-color="#E6D176"/>
<stop offset="0.29" stop-color="#BD9837"/>
<stop offset="0.48" stop-color="#DAC669"/>
<stop offset="0.68" stop-color="#DDC467"/>
<stop offset="1" stop-color="#C2983C"/>
</linearGradient>
<linearGradient id="paint5_linear_35_5103" x1="65.4317" y1="104.387" x2="84.7013" y2="85.1175" gradientUnits="userSpaceOnUse">
<stop stop-color="#BE8B2C"/>
<stop offset="0.15" stop-color="#E6D176"/>
<stop offset="0.29" stop-color="#BD9837"/>
<stop offset="0.48" stop-color="#DAC669"/>
<stop offset="0.68" stop-color="#DDC467"/>
<stop offset="1" stop-color="#C2983C"/>
</linearGradient>
<linearGradient id="paint6_linear_35_5103" x1="22.1981" y1="88.0652" x2="127.871" y2="88.0652" gradientUnits="userSpaceOnUse">
<stop stop-color="#BE8B2C"/>
<stop offset="0.15" stop-color="#E6D176"/>
<stop offset="0.29" stop-color="#BD9837"/>
<stop offset="0.48" stop-color="#DAC669"/>
<stop offset="0.68" stop-color="#DDC467"/>
<stop offset="1" stop-color="#C2983C"/>
</linearGradient>
<clipPath id="clip0_35_5103">
<rect width="150.05" height="148" fill="white"/>
</clipPath>
</defs>
</svg>
