<svg width="150" height="148" viewBox="0 0 150 148" fill="none" xmlns="http://www.w3.org/2000/svg">
<path d="M149.013 74.013C149.013 78.2797 144.663 82.1087 143.949 86.1759C143.215 90.3524 145.989 95.4364 144.567 99.3362C143.125 103.3 137.719 105.411 135.634 109.015C133.53 112.651 134.386 118.385 131.696 121.583C128.999 124.795 123.201 124.943 119.996 127.632C116.798 130.322 115.653 136.005 112.017 138.116C108.413 140.201 102.917 138.36 98.9527 139.808C95.0593 141.224 92.0347 146.179 87.8581 146.906C83.7974 147.621 79.2734 144.011 75.0067 144.011C70.7401 144.011 66.216 147.621 62.1553 146.906C57.9788 146.173 54.9541 141.224 51.0607 139.808C47.0966 138.367 41.6007 140.201 37.9969 138.116C34.3545 136.011 33.2154 130.322 30.017 127.632C26.8058 124.936 21.0076 124.788 18.3176 121.583C15.6276 118.385 16.49 112.651 14.3792 109.015C12.2941 105.411 6.88838 103.3 5.44686 99.3362C4.03108 95.4428 6.79826 90.3524 6.06463 86.1759C5.35031 82.1152 1 78.2797 1 74.013C1 69.7464 5.35031 65.9109 6.06463 61.8502C6.79826 57.6736 4.02464 52.5897 5.44686 48.6899C6.88838 44.7257 12.2941 42.6149 14.3792 39.0111C16.4835 35.3751 15.6276 29.6412 18.3112 26.4428C21.0076 23.2316 26.8058 23.0835 30.0106 20.3936C33.209 17.7036 34.3545 12.0211 37.9905 9.91034C41.5943 7.82528 47.0901 9.66579 51.0543 8.21784C54.9477 6.80206 57.9723 1.84682 62.1489 1.11963C66.2096 0.405302 70.7336 4.01554 75.0003 4.01554C79.2669 4.01554 83.791 0.405302 87.8517 1.11963C92.0282 1.85326 95.0464 6.80206 98.9463 8.21784C102.91 9.65936 108.406 7.82528 112.01 9.91034C115.652 12.0147 116.792 17.7036 119.99 20.3936C123.201 23.09 128.999 23.238 131.696 26.4428C134.386 29.6412 133.523 35.3751 135.628 39.0111C137.713 42.6149 143.119 44.7257 144.56 48.6899C145.976 52.5833 143.209 57.6736 143.942 61.8502C144.657 65.9109 149.007 69.7464 149.007 74.013H149.013Z" fill="url(#paint0_linear_188_747)" stroke="#24292D" stroke-miterlimit="10"/>
<path d="M147.134 74.0129C147.134 78.1702 142.894 81.9027 142.199 85.8669C141.484 89.9405 144.187 94.8957 142.803 98.6925C141.394 102.554 136.13 104.613 134.096 108.127C132.044 111.673 132.88 117.259 130.261 120.38C127.635 123.507 121.985 123.649 118.857 126.275C115.736 128.894 114.623 134.435 111.077 136.487C107.563 138.521 102.209 136.726 98.3415 138.135C94.5447 139.519 91.5972 144.345 87.5301 145.059C83.5723 145.754 79.1641 142.234 75.0069 142.234C70.8496 142.234 66.4414 145.754 62.4837 145.059C58.4101 144.345 55.4691 139.519 51.6722 138.135C47.8046 136.726 42.4568 138.521 38.943 136.487C35.3972 134.435 34.2839 128.894 31.1627 126.275C28.0351 123.649 22.3849 123.507 19.7593 120.38C17.1401 117.259 17.9766 111.673 15.9237 108.127C13.8901 104.613 8.62608 102.554 7.21673 98.6925C5.83313 94.8957 8.53594 89.9405 7.82162 85.8669C7.1266 81.9091 2.88574 78.1702 2.88574 74.0129C2.88574 69.8557 7.1266 66.1167 7.82162 62.159C8.53594 58.0854 5.83313 53.1302 7.21673 49.3333C8.62608 45.4721 13.8901 43.4128 15.9237 39.899C17.9766 36.3531 17.1401 30.7672 19.7593 27.6461C22.3849 24.5185 28.0351 24.3769 31.1627 21.7513C34.2839 19.1321 35.3972 13.5913 38.943 11.5384C42.4568 9.5048 47.811 11.3003 51.6722 9.89092C55.4691 8.50732 58.4165 3.68079 62.4837 2.9729C66.4414 2.27788 70.8496 5.79804 75.0069 5.79804C79.1641 5.79804 83.5723 2.27788 87.5301 2.9729C91.6037 3.68723 94.5447 8.50732 98.3415 9.89092C102.209 11.3003 107.557 9.5048 111.077 11.5384C114.623 13.5913 115.736 19.1321 118.857 21.7513C121.985 24.3769 127.635 24.5185 130.261 27.6461C132.88 30.7672 132.044 36.3531 134.096 39.899C136.13 43.4128 141.394 45.4721 142.803 49.3333C144.187 53.1302 141.484 58.0854 142.199 62.159C142.894 66.1167 147.134 69.8557 147.134 74.0129Z" fill="#981C1F"/>
<path d="M135.122 86.769C142.187 53.5303 120.969 20.8576 87.7307 13.7925C54.492 6.7274 21.8193 27.9453 14.7542 61.184C7.68907 94.4227 28.907 127.095 62.1457 134.16C95.3844 141.226 128.057 120.008 135.122 86.769Z" fill="url(#paint1_linear_188_747)"/>
<g clip-path="url(#clip0_188_747)">
<path d="M47.5893 84.3255C46.793 84.3255 45.9397 84.2686 45.0485 84.1454C44.1573 84.0222 43.2756 83.8421 42.4129 83.6052C41.5691 83.3683 40.7633 83.0934 40.0238 82.7806C39.1989 82.4395 38.4689 82.013 37.8717 81.5391L36.8667 80.7335L38.9714 73.9855H42.1569L42.7163 74.6394C42.8774 74.829 43.1145 75.0849 43.4178 75.4071C43.7402 75.7483 44.0815 76.1085 44.4418 76.4781C44.8115 76.8667 45.1718 77.2458 45.5226 77.6249C45.6932 77.8144 45.8544 77.985 46.0061 78.1556C46.1862 78.1935 46.3758 78.2219 46.5844 78.2693C46.8498 78.3167 47.3428 78.3736 48.1961 78.3736C48.7649 78.3736 49.2769 78.2504 49.7509 78.004C50.2819 77.7291 50.7369 77.3595 51.1351 76.8761C51.5523 76.3738 51.8936 75.7767 52.1495 75.1133C52.396 74.4594 52.5193 73.758 52.5193 73.0188C52.5193 72.1184 52.3866 71.3413 52.1211 70.6968C51.8651 70.0807 51.5333 69.5879 51.1162 69.1898C50.68 68.7823 50.1776 68.4885 49.5898 68.2705C48.9735 68.0525 48.2814 67.9388 47.5419 67.9388H42.6215V64.1762L49.7415 54.6418H44.8115L42.9912 59.3995H38.9714L38.6775 57.8737C38.5448 57.2008 38.4215 56.4615 38.3172 55.6938C38.2035 54.9356 38.1087 54.1869 38.0139 53.4477C37.9191 52.6989 37.8337 51.9597 37.7768 51.2583C37.7105 50.5286 37.6726 49.8462 37.6726 49.2207V47.3346H59.6867V51.2868L52.1685 61.333C52.908 61.4941 53.6096 61.7215 54.2637 62.0059C55.6384 62.603 56.8235 63.4086 57.7905 64.4132C58.7576 65.4178 59.5065 66.6025 60.0185 67.9388C60.521 69.2562 60.7675 70.6968 60.7675 72.2227C60.7675 74.0613 60.3883 75.7673 59.6393 77.2742C58.8998 78.7622 57.9043 80.0416 56.6718 81.0936C55.4583 82.1267 54.0457 82.9323 52.4909 83.482C50.936 84.0317 49.2959 84.316 47.5893 84.316V84.3255Z" fill="url(#paint2_linear_188_747)"/>
<path d="M48.5847 84.3255C47.7883 84.3255 46.9351 84.2686 46.0439 84.1454C45.1527 84.0222 44.271 83.8421 43.4083 83.6052C42.555 83.3683 41.7586 83.0934 41.0191 82.7806C40.1943 82.4395 39.4738 82.013 38.867 81.5391L37.8621 80.7335L39.9573 73.9855H43.1428L43.7022 74.6394C43.8633 74.829 44.1003 75.0849 44.4037 75.4071C44.7355 75.7483 45.0674 76.1085 45.4276 76.4781C45.7974 76.8667 46.1577 77.2458 46.5084 77.6249C46.6791 77.8144 46.8403 77.985 46.992 78.1556C47.1721 78.1935 47.3617 78.2219 47.5703 78.2693C47.8357 78.3167 48.3287 78.3736 49.182 78.3736C49.7508 78.3736 50.2628 78.2504 50.7368 78.004C51.2583 77.7291 51.7228 77.35 52.121 76.8761C52.5381 76.3738 52.8794 75.7767 53.1354 75.1133C53.3819 74.4594 53.5052 73.758 53.5052 73.0188C53.5052 72.1184 53.3724 71.3413 53.107 70.6968C52.851 70.0902 52.5192 69.5784 52.102 69.1898C51.6659 68.7918 51.154 68.479 50.5756 68.2705C49.9594 68.0525 49.2673 67.9388 48.5278 67.9388H43.6168V64.1762L50.7368 54.6418H45.8069L43.9866 59.3995H39.9668L39.6729 57.8737C39.5401 57.2008 39.4169 56.4615 39.3126 55.6938C39.1988 54.9356 39.104 54.1869 39.0092 53.4477C38.9144 52.6989 38.8291 51.9597 38.7722 51.2583C38.7058 50.5286 38.6679 49.8462 38.6679 49.2207V47.3346H60.682V51.2868L53.1639 61.333C53.9034 61.4941 54.6049 61.7215 55.2591 62.0059C56.6338 62.603 57.8189 63.4086 58.7859 64.4132C59.7529 65.4178 60.5019 66.6025 61.0139 67.9388C61.5163 69.2562 61.7628 70.6968 61.7628 72.2227C61.7628 74.0613 61.3836 75.7673 60.6346 77.2837C59.8951 78.7716 58.8997 80.0511 57.6672 81.1031C56.4537 82.1362 55.041 82.9418 53.4862 83.4915C51.9314 84.0412 50.2817 84.3255 48.5847 84.3255Z" fill="white"/>
<path d="M48.528 80.2501C49.4002 80.2501 50.206 80.0606 50.955 79.6625C51.704 79.274 52.3582 78.7432 52.9175 78.0798C53.4769 77.4069 53.9225 76.6392 54.2448 75.7673C54.5671 74.8953 54.7378 73.976 54.7378 73.0188C54.7378 71.872 54.5577 70.8579 54.1974 69.986C53.8371 69.114 53.3536 68.3937 52.7279 67.8156C52.1022 67.2375 51.3816 66.8015 50.5568 66.5077C49.732 66.2139 48.8408 66.0623 47.8738 66.0623H44.84V64.8018L52.6805 54.3006L54.2638 52.6705V52.4809L51.7419 52.7653H43.854L42.0337 57.523H40.8676C40.7443 56.869 40.6306 56.1677 40.5168 55.419C40.403 54.6703 40.3082 53.931 40.2134 53.2012C40.1186 52.4715 40.0428 51.7607 39.9764 51.0783C39.91 50.3959 39.8816 49.7704 39.8816 49.2112H58.1319V50.6613L50.3388 61.0676L48.3289 63.1242V63.219L49.9121 62.8968C51.3722 62.9631 52.6805 63.238 53.8371 63.7403C54.9843 64.2426 55.9608 64.8965 56.7572 65.7211C57.5536 66.5456 58.1603 67.5123 58.5775 68.6117C58.9946 69.7206 59.2032 70.9242 59.2032 72.2321C59.2032 73.7865 58.8903 75.1986 58.2741 76.4591C57.6484 77.7196 56.8141 78.7906 55.7807 79.6815C54.7378 80.5724 53.5432 81.2548 52.1875 81.7381C50.8318 82.2215 49.4097 82.4584 47.9117 82.4584C47.1912 82.4584 46.4327 82.4015 45.6269 82.2973C44.821 82.1836 44.0246 82.0224 43.2472 81.8045C42.4698 81.5865 41.7493 81.3401 41.0761 81.0557C40.403 80.7714 39.8437 80.4492 39.3696 80.0795L40.678 75.881H41.6071C41.7967 76.099 42.0527 76.3833 42.375 76.7245C42.6973 77.0657 43.0481 77.4258 43.3989 77.7955C43.7592 78.1651 44.11 78.5442 44.4513 78.9138C44.7926 79.2834 45.0865 79.6151 45.3425 79.89C45.6553 79.9563 46.0535 80.0322 46.556 80.1269C47.049 80.2217 47.7031 80.2691 48.5185 80.2691L48.528 80.2501Z" fill="#231F20"/>
<path d="M98.6047 84.3255C96.4241 84.3255 94.509 83.8706 92.9163 82.9607C91.3235 82.0509 90.0152 80.7335 89.0292 79.0275C88.1001 77.4258 87.4175 75.4829 87.0003 73.2367C86.6021 71.0948 86.3936 68.6212 86.3936 65.8822C86.3936 59.9587 87.389 55.5611 89.4463 52.443C91.6364 49.1259 94.8124 47.4484 98.8796 47.4484C103.241 47.4484 106.493 49.1164 108.559 52.4146C110.474 55.4758 111.413 59.8829 111.413 65.8822C111.413 71.8815 110.408 76.2032 108.332 79.3213C106.123 82.6385 102.852 84.316 98.6141 84.316L98.6047 84.3255ZM98.8796 53.1538C97.7988 53.1538 96.5853 53.4382 95.7605 55.5232C94.9167 57.6557 94.4901 61.1529 94.4901 65.9296C94.4901 68.0431 94.5943 69.9765 94.7934 71.7014C94.9925 73.3505 95.3054 74.7626 95.7225 75.9189C96.0923 76.933 96.5568 77.7007 97.0878 78.1935C97.4954 78.5726 97.9505 78.7432 98.5573 78.7432C100.216 78.7432 101.259 77.9945 101.961 76.3169C102.852 74.175 103.307 70.6778 103.307 65.9296C103.307 63.8066 103.222 61.8542 103.042 60.1293C102.871 58.5087 102.577 57.106 102.141 55.9876C101.762 55.002 101.278 54.2532 100.709 53.7509C100.245 53.3434 99.6381 53.1538 98.8701 53.1538H98.8796Z" fill="url(#paint3_linear_188_747)"/>
<path d="M99.5812 84.3255C97.4007 84.3255 95.4856 83.8706 93.9023 82.9607C92.3095 82.0509 91.0012 80.7335 90.0058 79.0275C89.0766 77.4258 88.394 75.4829 87.9769 73.2367C87.5787 71.0948 87.3701 68.6212 87.3701 65.8822C87.3701 60.044 88.4035 55.5232 90.4229 52.443C92.6129 49.1259 95.789 47.4484 99.8562 47.4484C104.217 47.4484 107.469 49.1164 109.536 52.4146C111.423 55.4379 112.39 59.9682 112.39 65.8822C112.39 71.7962 111.356 76.2506 109.308 79.3213C107.099 82.6385 103.829 84.316 99.5907 84.316L99.5812 84.3255ZM99.8562 53.1538C98.3298 53.1538 97.3912 53.8647 96.737 55.5232C95.8932 57.6557 95.4666 61.1529 95.4666 65.9296C95.4666 68.0431 95.5709 69.986 95.77 71.7014C95.9691 73.3505 96.282 74.7626 96.6991 75.9189C97.0689 76.933 97.5334 77.7007 98.0643 78.1935C98.4625 78.5726 98.9365 78.7432 99.5338 78.7432C101.212 78.7432 102.226 78.0134 102.937 76.3169C103.829 74.175 104.284 70.6778 104.284 65.9296C104.284 63.8066 104.198 61.8542 104.018 60.1293C103.857 58.5087 103.554 57.106 103.118 55.9876C102.738 55.002 102.255 54.2532 101.686 53.7509C101.212 53.3434 100.624 53.1538 99.8467 53.1538H99.8562Z" fill="white"/>
<path d="M88.5647 65.8822C88.5647 60.3852 89.4843 56.2435 91.3141 53.4571C93.1439 50.6802 95.7795 49.287 99.202 49.287C102.899 49.287 105.601 50.6518 107.317 53.3908C109.033 56.1298 109.887 60.2904 109.887 65.8822C109.887 71.4739 108.958 75.5208 107.109 78.3072C105.26 81.0842 102.53 82.4774 98.9271 82.4774C97.0594 82.4774 95.4761 82.1077 94.1583 81.359C92.8405 80.6103 91.7786 79.5299 90.9443 78.1082C90.1195 76.6866 89.5128 74.9522 89.1335 72.905C88.7543 70.8579 88.5647 68.5169 88.5647 65.8917V65.8822ZM92.9637 65.9296C92.9637 68.1189 93.068 70.1187 93.2861 71.9194C93.4947 73.7201 93.8454 75.265 94.3195 76.5539C94.7935 77.8523 95.4003 78.8475 96.1492 79.5488C96.8982 80.2501 97.8084 80.6008 98.8797 80.6008C101.297 80.6008 102.994 79.4161 103.99 77.0373C104.985 74.6584 105.478 70.9622 105.478 65.9391C105.478 63.7497 105.383 61.75 105.203 59.9493C105.023 58.1485 104.682 56.6132 104.198 55.3337C103.705 54.0542 103.061 53.0686 102.245 52.3672C101.439 51.6659 100.416 51.3152 99.1925 51.3152C96.8982 51.3152 95.2865 52.4999 94.3574 54.8598C93.4283 57.2197 92.9637 60.916 92.9637 65.9391V65.9296Z" fill="#231F20"/>
<path d="M73.3672 84.3255C71.4332 84.3255 69.6698 83.9748 68.1529 83.283C66.617 82.5816 65.2992 81.5959 64.2373 80.3354C63.1945 79.1034 62.4076 77.6343 61.8861 75.9663C61.3837 74.3551 61.1277 72.5828 61.1277 70.6873C61.1277 67.645 61.6396 64.8017 62.6541 62.2428C63.659 59.7123 65.0148 57.4282 66.6834 55.4664C68.352 53.5045 70.2955 51.8554 72.4571 50.557C74.6187 49.2586 76.9035 48.3393 79.2453 47.818L80.8001 47.4768L82.4782 52.045L80.7527 52.661C79.3116 53.1728 77.9274 53.8836 76.6286 54.7745C75.3392 55.6559 74.1731 56.7079 73.1492 57.9021C72.1347 59.0963 71.272 60.4421 70.5989 61.9206C70.5799 61.9585 70.561 62.0059 70.542 62.0438C71.7176 61.6078 73.0164 61.3898 74.4101 61.3898C75.9175 61.3898 77.3491 61.6457 78.6669 62.1386C80.0227 62.6503 81.1888 63.3991 82.1558 64.3563C83.1134 65.3135 83.8718 66.4888 84.4122 67.863C84.9431 69.2183 85.2181 70.7631 85.2181 72.4501C85.2181 74.0518 84.9337 75.5967 84.3743 77.0183C83.8055 78.4494 82.9996 79.7289 81.9662 80.8093C80.9233 81.8992 79.6624 82.7712 78.2024 83.3967C76.7424 84.0127 75.1212 84.335 73.3862 84.335L73.3672 84.3255ZM69.1294 69.5405C69.1009 69.8154 69.0915 70.1376 69.0915 70.4883V71.853C69.0915 72.6681 69.2052 73.5211 69.4233 74.3835C69.6319 75.2081 69.9542 75.9758 70.3808 76.6582C70.779 77.2931 71.253 77.8049 71.8503 78.203C72.3433 78.5442 72.9122 78.7053 73.6043 78.7053C74.2205 78.7053 74.7135 78.5821 75.1117 78.3262C75.5668 78.0419 75.927 77.6628 76.2209 77.1794C76.5527 76.6202 76.8087 75.9663 76.9794 75.2365C77.1595 74.4499 77.2543 73.6443 77.2543 72.8482C77.2543 71.0948 76.8656 69.7301 76.0692 68.6875C75.3771 67.7872 74.4575 67.3607 73.1587 67.3607C72.1253 67.3607 71.272 67.5976 70.5704 68.0905C69.9258 68.5454 69.4422 69.0287 69.1483 69.5405H69.1294Z" fill="url(#paint4_linear_188_747)"/>
<path d="M74.3248 84.3255C72.3907 84.3255 70.6273 83.9748 69.1104 83.283C67.5745 82.5816 66.2567 81.5959 65.1949 80.3354C64.152 79.1034 63.3651 77.6343 62.8437 75.9663C62.3412 74.3551 62.0852 72.5828 62.0852 70.6873C62.0852 67.645 62.5972 64.8017 63.6116 62.2428C64.6165 59.7123 65.9723 57.4282 67.6409 55.4664C69.3095 53.5045 71.253 51.8554 73.4146 50.557C75.5762 49.2586 77.861 48.3393 80.2028 47.818L81.7576 47.4768L83.4357 52.045L81.7102 52.661C80.2691 53.1728 78.885 53.8836 77.5861 54.7745C76.2967 55.6559 75.1306 56.7079 74.1067 57.9021C73.0923 59.0963 72.2295 60.4421 71.5564 61.9206C71.5374 61.9585 71.5185 62.0059 71.4995 62.0438C72.6751 61.6078 73.974 61.3898 75.3676 61.3898C76.8751 61.3898 78.3066 61.6457 79.6245 62.1386C80.9707 62.6503 82.1463 63.3991 83.1133 64.3563C84.0709 65.3135 84.8293 66.4888 85.3697 67.863C85.9007 69.2183 86.1756 70.7631 86.1756 72.4501C86.1756 74.0518 85.8912 75.5967 85.3223 77.0183C84.7535 78.4494 83.9476 79.7194 82.9142 80.8093C81.8714 81.8992 80.6104 82.7712 79.1504 83.3967C77.6904 84.0127 76.0692 84.335 74.3342 84.335L74.3248 84.3255ZM70.0869 69.5405C70.0585 69.8154 70.049 70.1376 70.049 70.4883V71.853C70.049 72.6681 70.1627 73.5211 70.3808 74.3835C70.5894 75.2081 70.9117 75.9758 71.3383 76.6582C71.7271 77.2837 72.22 77.8049 72.8078 78.203C73.3103 78.5442 73.8602 78.7053 74.5618 78.7053C75.178 78.7053 75.671 78.5821 76.0692 78.3262C76.5243 78.0419 76.8845 77.6628 77.1784 77.1794C77.5103 76.6202 77.7662 75.9663 77.9369 75.2365C78.117 74.4499 78.2118 73.6443 78.2118 72.8482C78.2118 71.1138 77.8136 69.7206 77.0268 68.6875C76.3347 67.7872 75.415 67.3607 74.1162 67.3607C73.0828 67.3607 72.2295 67.5976 71.528 68.0905C70.8833 68.5454 70.3998 69.0287 70.1059 69.5405H70.0869Z" fill="white"/>
<path d="M83.7011 72.4501C83.7011 73.8338 83.4641 75.1323 82.9806 76.3549C82.4971 77.5775 81.8239 78.639 80.9517 79.5583C80.0795 80.4776 79.0271 81.1979 77.7947 81.7286C76.5622 82.2594 75.197 82.5153 73.6895 82.5153C72.002 82.5153 70.5135 82.2215 69.2241 81.6339C67.9348 81.0462 66.8445 80.2312 65.9533 79.1792C65.0621 78.1272 64.3985 76.8761 63.9434 75.4355C63.4883 73.995 63.2703 72.4122 63.2703 70.6968C63.2703 67.8725 63.7348 65.2756 64.6734 62.9157C65.6025 60.5558 66.8445 58.4613 68.3993 56.6416C69.9447 54.8219 71.727 53.315 73.7275 52.1113C75.7279 50.9077 77.8136 50.0642 79.9752 49.5808L80.4682 50.9361C78.8755 51.5048 77.3585 52.2819 75.9364 53.2581C74.5049 54.2343 73.225 55.3811 72.1063 56.7079C70.9781 58.0348 70.0395 59.5133 69.2905 61.1529C68.5415 62.7925 68.077 64.5553 67.8874 66.4508C68.3709 65.6358 69.2241 64.8965 70.4566 64.2141C71.6891 63.5412 73.1207 63.2 74.7419 63.2C76.0313 63.2 77.2353 63.4085 78.354 63.835C79.4633 64.2615 80.4113 64.8586 81.1982 65.6358C81.9756 66.4224 82.5919 67.3796 83.047 68.5264C83.502 69.6732 83.7201 70.9811 83.7201 72.4501H83.7011ZM79.3684 72.8482C79.3684 70.6968 78.847 68.9434 77.8136 67.5881C76.7802 66.2234 75.3202 65.541 73.462 65.541C72.0494 65.541 70.8358 65.9011 69.8309 66.6025C68.8259 67.3133 68.1054 68.1094 67.6883 68.9813C67.6314 69.4078 67.5935 69.9007 67.5935 70.4788V71.8436C67.5935 72.8103 67.7167 73.8054 67.9727 74.8195C68.2287 75.8336 68.6174 76.7624 69.1483 77.6059C69.6697 78.4494 70.3334 79.1507 71.1297 79.691C71.9261 80.2312 72.8552 80.506 73.9076 80.506C74.8651 80.506 75.6994 80.288 76.3915 79.8521C77.0836 79.4161 77.643 78.8285 78.0791 78.1082C78.5152 77.3784 78.8375 76.5539 79.0461 75.6346C79.2547 74.7153 79.359 73.777 79.359 72.8387L79.3684 72.8482Z" fill="#231F20"/>
<path d="M127.663 94.656C112.456 89.6329 94.2342 82.648 74.6282 82.648C55.0221 82.648 36.8003 89.6424 21.5933 94.656C35.6815 87.0929 54.2637 80.2407 74.6282 80.2407C94.9926 80.2407 113.575 87.0929 127.663 94.656Z" fill="white"/>
<mask id="mask0_188_747" style="mask-type:luminance" maskUnits="userSpaceOnUse" x="54" y="89" width="40" height="11">
<path d="M66.3327 99.5464V99.9066C66.399 99.9066 66.4749 99.8876 66.5697 99.8781V99.717V99.4895C66.5033 99.5085 66.4275 99.5274 66.3421 99.5369M82.1369 98.0584H82.2223C82.1938 98.0584 82.1654 98.0584 82.1369 98.0584ZM70.5705 98.0679H70.5516C71.0351 98.0395 71.4333 98.03 71.8883 98.03C72.4382 98.03 74.1163 98.049 75.1402 98.0963C75.1402 98.0869 75.1402 98.0679 75.1402 98.0584C74.1447 98.03 72.789 98.011 72.2865 98.011C71.6987 98.011 71.1962 98.03 70.58 98.0679M82.3171 98.049H82.2317C82.6015 98.0395 82.9712 98.03 83.341 98.03C83.5875 98.03 84.564 98.0584 84.801 98.0679V98.03C84.4218 98.0205 83.9003 98.0016 83.7297 98.0016C83.2083 98.0016 82.7437 98.011 82.3171 98.0395M85.4457 97.6983V98.0679C85.9387 98.049 86.4317 98.03 86.9152 98.03C87.3703 98.03 87.7779 98.049 88.252 98.0679V98.03C87.9296 98.0205 87.6262 98.011 87.3039 98.011C86.8299 98.011 86.3369 98.03 85.8628 98.049H85.6638V97.6888C85.5879 97.6888 85.5026 97.6983 85.4362 97.6983M70.1628 97.7078V98.0869C70.2387 98.0869 70.3145 98.0774 70.3904 98.0774V97.6793C70.324 97.6983 70.2482 97.7078 70.1628 97.7172M81.9189 97.6983V98.0679C81.9947 98.0679 82.0706 98.0679 82.1464 98.0584V97.6699C82.0801 97.6888 82.0042 97.6983 81.9189 97.6983ZM80.9613 96.6652C81.1035 96.5325 81.2173 96.3904 81.3121 96.2577L81.2552 96.2198C81.1794 96.3525 81.0846 96.5136 80.9613 96.6747M74.979 96.0587C74.8937 96.4567 74.7799 96.741 74.6567 96.9496C74.8653 96.8074 75.0264 96.542 75.1592 96.0587H74.979ZM61.725 95.6037C61.7345 95.8691 61.744 96.144 61.744 96.4188C61.744 96.7979 61.725 97.1581 61.6966 97.5561C62.3034 97.8499 62.8912 98.1342 63.697 98.1342C63.8203 98.1342 63.9435 98.1248 64.0668 98.1058C63.2135 98.1058 62.5783 97.7931 62.0189 97.5087L61.9147 97.4613V97.3476C61.9621 96.8927 61.9715 96.561 61.9715 96.2293C61.9715 96.0302 61.9715 95.8217 61.9621 95.6037H61.725ZM72.9217 94.5802V94.5991H73.0639C73.5759 94.5991 73.6707 94.6465 73.7465 94.8645C73.775 94.9972 73.8224 95.3668 73.8508 95.6132H74.2964C74.2964 95.6132 74.2964 95.6037 74.2964 95.5943H74.1068L74.0689 95.291C74.0404 95.073 74.012 94.8076 73.9836 94.7129C73.9456 94.6086 73.9362 94.5707 73.4621 94.5707H72.9312L72.9217 94.5802ZM84.6778 94.7982C84.6778 94.7982 84.6778 94.7982 84.6778 94.8171L85.8344 97.0159C85.8723 97.0917 85.9387 97.2434 85.9671 97.3476C86.1378 97.3476 86.2136 97.3097 86.2136 97.2528C86.2136 97.2054 86.1378 97.0349 86.0809 96.9022L84.9243 94.7129C84.7915 94.4759 84.7536 94.3906 84.6683 94.3717V94.8171L84.6778 94.7982ZM73.8698 93.0732C73.8319 93.3765 73.8034 93.5945 73.7655 93.7461C73.9741 93.7177 74.0025 93.5945 74.0689 93.0732H73.8698ZM76.3822 92.2771C76.0598 92.8742 75.8987 93.6893 75.8987 94.457C75.8987 96.4472 76.8183 98.1342 78.942 98.1342C79.0747 98.1342 79.2074 98.1343 79.3307 98.1153C77.3587 98.1153 76.1357 96.6368 76.1357 94.2674C76.1357 93.4334 76.3158 92.6088 76.6381 92.0023C76.733 91.8222 76.8467 91.6516 76.97 91.4905C76.7424 91.7085 76.5433 91.9738 76.3916 92.2677M54.3965 94.3717C54.3965 96.8358 55.8281 98.1437 57.5536 98.1437C57.6768 98.1437 57.8 98.1437 57.9233 98.1153C56.2831 98.1058 54.624 96.8832 54.624 94.1821C54.624 93.2059 54.9179 92.1918 55.5247 91.4336C54.8516 92.0591 54.406 93.0353 54.406 94.3622M88.0624 94.3717C88.0624 96.8358 89.4939 98.1437 91.2194 98.1437C91.3427 98.1437 91.4659 98.1437 91.5892 98.1153C89.949 98.1058 88.2994 96.8832 88.2994 94.1821C88.2994 93.2059 88.5933 92.1918 89.1906 91.4336C88.5174 92.0591 88.0718 93.0353 88.0718 94.3622M73.1777 91.2441C73.0734 91.2441 73.0165 91.2441 72.9786 91.2725H73.1587C74.1542 91.2725 74.4291 91.4621 74.5808 92.6088H75.0264V92.5899H74.8368L74.8179 92.4477C74.6756 91.3578 74.4671 91.2536 73.5569 91.2536H73.1777V91.2441ZM62.3223 91.2251C62.0189 91.5095 61.7535 92.0023 61.7535 92.6847C61.7535 93.9831 62.5878 94.4854 63.735 95.1109C64.3796 95.4521 64.9674 95.7743 64.9674 96.4472C64.9674 96.5989 64.9295 96.8074 64.8157 96.9969C65.1002 96.7884 65.195 96.4662 65.195 96.2577C65.195 95.6701 64.6641 95.3952 64.0478 95.0635C62.986 94.4854 61.981 93.9452 61.981 92.4951C61.981 91.8696 62.1896 91.4336 62.3887 91.1588C62.3697 91.1777 62.3413 91.1967 62.3223 91.2156M79.4444 91.1588C79.8995 91.1967 80.2977 91.4241 80.5347 91.9075C80.7054 92.2582 80.7717 92.6657 80.8191 93.0543H81.3026V93.0353H81.0656L81.0467 92.8932C80.9898 92.4951 80.9329 92.116 80.7717 91.8033C80.5063 91.2536 80.0417 91.1398 79.7004 91.1398C79.6056 91.1398 79.5203 91.1493 79.4349 91.1683M64.1142 91.1493C65.1191 91.2251 65.2329 92.1729 65.2898 92.6752H65.8017V92.6562H65.5363L65.5173 92.5141C65.4415 91.8412 65.2803 91.1209 64.3796 91.1209C64.2848 91.1209 64.19 91.1303 64.1142 91.1493ZM57.7621 91.045C58.0845 91.0924 58.4258 91.3199 58.7197 91.8791C59.1084 92.6183 59.2032 93.6893 59.2032 94.5517C59.2032 95.7459 58.9851 96.6273 58.6059 97.1581C59.1273 96.7411 59.4307 95.7459 59.4307 94.3622C59.4307 93.2438 59.2696 92.3435 58.9662 91.7748C58.7007 91.2725 58.3784 91.0166 58.0086 91.0166C57.9233 91.0166 57.838 91.0356 57.7621 91.0545M91.4185 91.045C91.7409 91.0924 92.0822 91.3199 92.3761 91.8791C92.7648 92.6183 92.8596 93.6893 92.8596 94.5517C92.8596 95.7459 92.6415 96.6273 92.2623 97.1581C92.7837 96.7411 93.0871 95.7459 93.0871 94.3622C93.0871 93.2438 92.9259 92.3435 92.6226 91.7748C92.3571 91.2725 92.0348 91.0166 91.665 91.0166C91.5797 91.0166 91.4944 91.0356 91.4185 91.0545M66.6171 91.0545C67.1954 91.1209 67.366 91.3199 67.366 91.9075V97.831C67.366 98.3048 67.366 98.7219 67.1954 99.0251C67.5746 98.7882 67.5936 98.3428 67.5936 97.6414V91.718C67.5936 91.2156 67.4798 91.0924 66.9868 91.0261L66.8446 91.0071V90.7228C66.7688 90.7228 66.6929 90.7228 66.6171 90.7133V91.0545ZM70.1913 91.0924C70.6938 91.1398 70.9023 91.3483 70.9118 91.898V96.779C70.9118 96.9969 70.8834 97.1675 70.836 97.3002C71.054 97.2244 71.1299 97.0443 71.1394 96.5894V91.7085C71.1394 91.263 70.9971 91.1114 70.5705 91.064L70.4188 91.045V90.7039C70.343 90.7039 70.2766 90.7039 70.1913 90.6944V91.083V91.0924ZM85.6922 91.064C86.0525 91.083 86.3274 91.1209 86.3274 91.3768C86.3274 91.5094 86.2231 91.6516 86.1378 91.7653L84.82 93.4523C84.7726 93.5092 84.7346 93.5661 84.6967 93.604C84.7157 93.5945 84.7441 93.5661 84.7726 93.5376L84.801 93.5092C84.801 93.5092 84.8769 93.4144 84.9527 93.3102L86.3938 91.4621C86.4506 91.3862 86.5455 91.2536 86.5455 91.1777C86.5455 91.1114 86.4601 91.0545 86.0619 91.0356H85.9102V90.7133C85.8344 90.7133 85.7586 90.7039 85.6827 90.6944V91.0545L85.6922 91.064ZM81.9378 91.0545C82.5162 91.1209 82.6584 91.3578 82.6773 91.9644V96.6842C82.6773 96.959 82.6489 97.1581 82.592 97.3002C82.8195 97.2244 82.8859 97.0349 82.9049 96.4852V91.7653C82.8859 91.2156 82.7721 91.0735 82.3076 91.0261L82.1559 91.0071V90.7039C82.0801 90.7039 82.0042 90.7039 81.9284 90.6849V91.045L81.9378 91.0545ZM77.2449 89.6045L78.5343 90.3058H79.3781L79.4255 90.2868H78.8851L77.6431 89.6045H77.2449Z" fill="white"/>
</mask>
<g mask="url(#mask0_188_747)">
<path d="M73.7479 70.255L49.2454 94.7495L73.7479 119.244L98.2505 94.7494L73.7479 70.255Z" fill="url(#paint5_linear_188_747)"/>
</g>
<path d="M61.1941 94.1063C61.1941 96.7221 59.554 97.9447 57.9517 97.9447C56.2263 97.9447 54.7947 96.6368 54.7947 94.1726C54.7947 91.7085 56.3495 90.448 57.9897 90.4101C59.9711 90.3721 61.1941 92.0497 61.1941 94.0968M56.3685 94.0589C56.3685 95.3763 56.6813 97.5372 57.9897 97.5372C58.9472 97.5372 59.6014 96.3904 59.6014 94.3527C59.6014 93.4997 59.5066 92.4288 59.1179 91.68C58.7766 91.0356 58.3784 90.8365 58.0181 90.8365C56.9089 90.8365 56.3779 92.334 56.3779 94.0494" fill="#040303"/>
<path d="M62.692 95.4142C62.7015 96.0018 62.711 96.5989 63.1376 97.0064C63.4695 97.3287 63.8582 97.3571 64.1047 97.3571C65.0907 97.3571 65.3656 96.6368 65.3656 96.2577C65.3656 95.5753 64.7683 95.2531 64.1331 94.9214C62.986 94.3053 62.1517 93.7935 62.1517 92.5046C62.1517 91.8127 62.4171 91.3294 62.7205 91.045C63.2988 90.4669 64.1047 90.4669 64.3512 90.4669C65.0433 90.4669 65.6311 90.5996 66.2094 90.7228C66.2094 91.0261 66.2094 91.3199 66.2094 91.6232C66.2094 91.9265 66.2094 92.2013 66.2094 92.4951H65.6974C65.6311 91.9644 65.5173 90.9598 64.3986 90.9598C63.6591 90.9598 63.3273 91.4526 63.3273 91.9359C63.3273 92.4762 63.7634 92.7321 64.0573 92.9027C64.4839 93.1396 64.901 93.3576 65.3182 93.604C65.7353 93.8599 66.5412 94.3906 66.5412 95.6227C66.5412 97.0443 65.5078 97.9447 64.1047 97.9447C63.2988 97.9447 62.711 97.6699 62.1042 97.3666C62.1327 96.978 62.1517 96.6178 62.1517 96.2293C62.1517 95.9639 62.1422 95.6796 62.1327 95.4142H62.7015H62.692Z" fill="#040303"/>
<path d="M67.0059 90.5238C67.4989 90.5617 67.9824 90.5806 68.4659 90.5806C68.9494 90.5806 69.4614 90.5617 69.9639 90.5238V90.8839C69.3761 90.9408 69.2244 91.1303 69.2244 91.7369V95.907C69.2054 97.2813 69.2054 97.7741 68.8831 98.3996C68.2953 99.5559 67.205 99.6601 66.731 99.717V99.3568C67.7454 99.2052 67.7644 98.5228 67.7644 97.6414V91.7179C67.7644 91.1303 67.5842 90.9313 67.0154 90.865V90.5238H67.0059Z" fill="#040303"/>
<path d="M70.5896 90.5143C71.4334 90.5522 71.86 90.5807 72.8176 90.5807C74.4293 90.5807 74.6284 90.5712 75.3205 90.5143C75.3299 91.3199 75.3394 91.5 75.4247 92.4193H74.9792C74.8275 91.263 74.5525 91.083 73.5571 91.083H73.1778C72.865 91.0924 72.7607 91.1398 72.7607 91.4526V93.9167H73.5286C74.1449 93.9262 74.1543 93.803 74.2681 92.8837H74.7042C74.6758 93.3671 74.6378 93.8125 74.6378 94.2674C74.6378 94.656 74.6568 95.0541 74.6758 95.4426H74.2302C74.2017 95.1962 74.1543 94.8266 74.1259 94.6844C74.05 94.4664 73.9647 94.4191 73.4433 94.4191H72.7417V96.9496C72.7322 97.2149 72.8176 97.3002 73.1304 97.3097H73.7561C74.5525 97.2813 75.0645 97.196 75.3489 95.8691H75.804C75.6523 96.6937 75.6144 96.9116 75.5006 97.8973C74.4767 97.8594 72.7986 97.831 72.2582 97.831C71.7178 97.831 71.2058 97.8499 70.5327 97.8973V97.5182C71.0826 97.4803 71.2722 97.2718 71.2817 96.5894V91.7085C71.2722 91.1588 71.0636 90.9598 70.5612 90.9029V90.5143H70.5896Z" fill="#040303"/>
<path d="M82.0421 96.3146C81.6819 96.8832 80.9803 97.9542 79.3307 97.9542C77.207 97.9542 76.2874 96.2672 76.2874 94.2769C76.2874 93.4997 76.4485 92.6847 76.7709 92.097C77.3207 91.045 78.411 90.4385 79.5013 90.4385C79.9753 90.4385 80.4589 90.5617 80.9139 90.6754C81.2837 90.7702 81.369 90.7797 81.7008 90.8365C81.6819 91.1682 81.6724 91.5 81.6724 91.8222C81.6724 92.1729 81.6819 92.5235 81.7008 92.8647H81.2173C81.1699 92.4856 81.1035 92.0686 80.9329 91.7179C80.6769 91.1967 80.2218 90.9597 79.7194 90.9597C79.0557 90.9597 78.5438 91.3862 78.2309 91.9738C77.9749 92.4667 77.8517 93.1775 77.8517 93.8883C77.8517 95.8502 78.648 97.2907 79.8805 97.2907C80.0891 97.2907 80.3451 97.2528 80.6011 97.1201C81.1699 96.8453 81.4543 96.3619 81.6534 96.0302L82.0421 96.3146Z" fill="#040303"/>
<path d="M79.7762 90.1163H78.9229L77.6335 89.4149H78.4394L79.359 89.7277L80.2881 89.4149H81.0845L79.7762 90.1163Z" fill="#040303"/>
<path d="M82.3266 90.5048C82.8196 90.5427 83.3031 90.5617 83.7961 90.5617C84.2606 90.5617 84.7347 90.5427 85.2087 90.5048V90.8744C84.6588 90.9597 84.5451 91.1683 84.5166 91.699V93.822C84.6588 93.8125 84.7536 93.803 84.8864 93.6608C84.9148 93.6419 85.0096 93.5187 85.2087 93.2723L86.5265 91.5853C86.6118 91.4715 86.7161 91.3294 86.7161 91.1967C86.7161 90.9503 86.4412 90.9124 86.0809 90.8839V90.5238C86.4981 90.5522 86.8489 90.5901 87.2376 90.5901C87.5978 90.5901 87.9581 90.5617 88.3278 90.5238V90.8934C87.7495 90.9977 87.6832 91.083 86.9437 91.9833L85.9577 93.2438L87.778 96.6178C88.1856 97.3476 88.271 97.4708 88.6407 97.5277V97.8973C88.1667 97.8783 87.759 97.8594 87.3039 97.8594C86.8204 97.8594 86.3274 97.8783 85.8249 97.8973V97.5277C86.0335 97.5277 86.3843 97.5277 86.3843 97.2623C86.3843 97.177 86.28 96.9401 86.2326 96.8453L85.076 94.6465C84.8769 94.2864 84.8295 94.1916 84.5071 94.2011V96.7695C84.5166 97.2339 84.6209 97.5372 85.1897 97.5372V97.9068C84.9527 97.8973 83.9762 97.8689 83.7297 97.8689C83.2557 97.8689 82.7817 97.8783 82.3076 97.9068V97.5372C82.9144 97.4992 83.0471 97.2813 83.0661 96.5136V91.7938C83.0471 91.1872 82.8954 90.9503 82.3266 90.8839V90.5238V90.5048Z" fill="#040303"/>
<path d="M94.8506 94.1063C94.8506 96.7221 93.2105 97.9447 91.6082 97.9447C89.8828 97.9447 88.4512 96.6368 88.4512 94.1726C88.4512 91.7085 90.006 90.448 91.6462 90.4101C93.6276 90.3721 94.8506 92.0497 94.8506 94.0968M90.0344 94.0589C90.0344 95.3763 90.3473 97.5372 91.6556 97.5372C92.6132 97.5372 93.2674 96.3904 93.2674 94.3527C93.2674 93.4997 93.1725 92.4288 92.7838 91.68C92.4425 91.0356 92.0444 90.8365 91.6841 90.8365C90.5748 90.8365 90.0439 92.334 90.0439 94.0494" fill="#040303"/>
<path d="M127.663 94.656C112.456 89.6329 94.2342 83.2071 74.6282 83.2071C55.0221 83.2071 36.8003 89.6424 21.5933 94.656C35.6815 87.0929 54.2637 80.7998 74.6282 80.7998C94.9926 80.7998 113.575 87.0929 127.663 94.656Z" fill="url(#paint6_linear_188_747)"/>
<path d="M127.663 94.656C112.456 89.6329 94.2342 86.7138 74.6282 86.7138C55.0221 86.7138 36.8003 89.6424 21.5933 94.656C35.6815 87.0929 54.2637 82.5058 74.6282 82.5058C94.9926 82.5058 113.575 87.0929 127.663 94.656Z" fill="#231F20"/>
</g>
<path d="M134.547 74.0129C134.547 106.898 107.891 133.553 75.0002 133.553C42.1091 133.553 15.4602 106.891 15.4602 74.0129C15.4602 41.1346 42.1155 14.4729 75.0002 14.4729C107.885 14.4729 134.547 41.1346 134.547 74.0129Z" stroke="#24292D" stroke-miterlimit="10"/>
<defs>
<linearGradient id="paint0_linear_188_747" x1="1" y1="74.013" x2="149.013" y2="74.013" gradientUnits="userSpaceOnUse">
<stop stop-color="#B4832C"/>
<stop offset="0.15" stop-color="#E9D376"/>
<stop offset="0.29" stop-color="#BE9A38"/>
<stop offset="0.48" stop-color="#ECD87D"/>
<stop offset="0.68" stop-color="#DEC565"/>
<stop offset="1" stop-color="#ECD87D"/>
</linearGradient>
<linearGradient id="paint1_linear_188_747" x1="66.2208" y1="107.262" x2="90.8474" y2="-8.59701" gradientUnits="userSpaceOnUse">
<stop stop-color="#BD8B2E"/>
<stop offset="0.15" stop-color="#E8D476"/>
<stop offset="0.29" stop-color="#BF9B3A"/>
<stop offset="0.48" stop-color="#E8D370"/>
<stop offset="0.68" stop-color="#DFC667"/>
<stop offset="1" stop-color="#EDD97D"/>
</linearGradient>
<linearGradient id="paint2_linear_188_747" x1="36.8667" y1="65.8253" x2="60.7675" y2="65.8253" gradientUnits="userSpaceOnUse">
<stop stop-color="#BE8B2C"/>
<stop offset="0.15" stop-color="#E6D176"/>
<stop offset="0.29" stop-color="#BD9837"/>
<stop offset="0.48" stop-color="#DAC669"/>
<stop offset="0.68" stop-color="#DDC467"/>
<stop offset="1" stop-color="#C2983C"/>
</linearGradient>
<linearGradient id="paint3_linear_188_747" x1="86.3936" y1="65.8822" x2="111.413" y2="65.8822" gradientUnits="userSpaceOnUse">
<stop stop-color="#BE8B2C"/>
<stop offset="0.15" stop-color="#E6D176"/>
<stop offset="0.29" stop-color="#BD9837"/>
<stop offset="0.48" stop-color="#DAC669"/>
<stop offset="0.68" stop-color="#DDC467"/>
<stop offset="1" stop-color="#C2983C"/>
</linearGradient>
<linearGradient id="paint4_linear_188_747" x1="61.1182" y1="65.8917" x2="85.1991" y2="65.8917" gradientUnits="userSpaceOnUse">
<stop stop-color="#BE8B2C"/>
<stop offset="0.15" stop-color="#E6D176"/>
<stop offset="0.29" stop-color="#BD9837"/>
<stop offset="0.48" stop-color="#DAC669"/>
<stop offset="0.68" stop-color="#DDC467"/>
<stop offset="1" stop-color="#C2983C"/>
</linearGradient>
<linearGradient id="paint5_linear_188_747" x1="64.2888" y1="107.808" x2="88.4562" y2="83.6326" gradientUnits="userSpaceOnUse">
<stop stop-color="#BE8B2C"/>
<stop offset="0.15" stop-color="#E6D176"/>
<stop offset="0.29" stop-color="#BD9837"/>
<stop offset="0.48" stop-color="#DAC669"/>
<stop offset="0.68" stop-color="#DDC467"/>
<stop offset="1" stop-color="#C2983C"/>
</linearGradient>
<linearGradient id="paint6_linear_188_747" x1="21.5933" y1="87.7279" x2="127.663" y2="87.7279" gradientUnits="userSpaceOnUse">
<stop stop-color="#BE8B2C"/>
<stop offset="0.15" stop-color="#E6D176"/>
<stop offset="0.29" stop-color="#BD9837"/>
<stop offset="0.48" stop-color="#DAC669"/>
<stop offset="0.68" stop-color="#DDC467"/>
<stop offset="1" stop-color="#C2983C"/>
</linearGradient>
<clipPath id="clip0_188_747">
<rect width="106.184" height="52.1265" fill="white" transform="translate(21.5933 47.3346)"/>
</clipPath>
</defs>
</svg>
