<svg width="24" height="24" viewBox="0 0 24 24" fill="none" xmlns="http://www.w3.org/2000/svg">
<path d="M5.352 6.19199L6 8.95199L5.352 11.7L7.764 13.188L9.24 15.6L12 14.952L14.76 15.6L16.236 13.188L18.648 11.7L18 8.95199L18.648 6.19199L16.248 4.70399L14.76 2.29199L12 2.95199L9.252 2.30399L7.752 4.70399L5.352 6.19199ZM12.012 13.8C10.739 13.8 9.51806 13.2943 8.61789 12.3941C7.71771 11.4939 7.212 10.273 7.212 8.99999C7.212 7.72695 7.71771 6.50605 8.61789 5.60588C9.51806 4.70571 10.739 4.19999 12.012 4.19999C14.652 4.19999 16.8 6.34799 16.8 8.98799C16.8 11.652 14.652 13.8 12.012 13.8ZM11.988 12.6C9.996 12.6 8.4 10.992 8.4 8.99999C8.4 7.01999 9.996 5.39999 11.988 5.39999C13.98 5.39999 15.6 7.01999 15.6 8.99999C15.6 10.992 13.98 12.6 11.988 12.6ZM16.596 13.92L15.06 16.608L12.564 16.044L15.6 23.04L17.28 20.4H20.28L16.596 13.92ZM7.356 14.004L8.856 16.704L11.412 16.092L8.4 23.04L6.72 20.4H3.72L7.356 14.004Z" fill="#1D1D1B"/>
</svg>
