<svg width="32" height="32" viewBox="0 0 32 32" fill="none" xmlns="http://www.w3.org/2000/svg">
<path fill-rule="evenodd" clip-rule="evenodd" d="M22 11.5C22.5523 11.5 23 11.9477 23 12.5V27.5L23 27.503C22.9972 28.4296 22.6279 29.3175 21.9727 29.9727C21.3175 30.6279 20.4296 30.9972 19.503 31L19.5 31H8.5L8.49701 31C7.5704 30.9972 6.68253 30.6279 6.02731 29.9727C5.37209 29.3175 5.00277 28.4296 5 27.503L5 27.5V14C5 13.4477 5.44772 13 6 13C6.55228 13 7 13.4477 7 14V27.4983C7.00153 27.8961 7.16023 28.2772 7.44153 28.5585C7.72287 28.8398 8.10401 28.9985 8.50185 29H19.4981C19.896 28.9985 20.2771 28.8398 20.5585 28.5585C20.8398 28.2772 20.9984 27.8961 21 27.4984V12.5C21 11.9477 21.4477 11.5 22 11.5Z" fill="#1D1D1B"/>
<path fill-rule="evenodd" clip-rule="evenodd" d="M21 14C21 13.4477 21.4477 13 22 13H24.5014L24.5028 13C25.6945 13.0034 26.8364 13.4783 27.6791 14.3209C28.5217 15.1636 28.9966 16.3055 29 17.4972L29 17.4986V22.5014L29 22.5028C28.9966 23.6945 28.5217 24.8364 27.6791 25.6791C26.8364 26.5217 25.6945 26.9966 24.5028 27L24.5014 27H22C21.4477 27 21 26.5523 21 26C21 25.4477 21.4477 25 22 25H24.4984C25.1612 24.9978 25.7962 24.7335 26.2649 24.2649C26.7335 23.7962 26.9978 23.1612 27 22.4984V17.5016C26.9978 16.8388 26.7335 16.2038 26.2649 15.7351C25.7962 15.2665 25.1612 15.0022 24.4985 15H22C21.4477 15 21 14.5523 21 14Z" fill="#1D1D1B"/>
<path fill-rule="evenodd" clip-rule="evenodd" d="M19 7C19 6.44772 19.4477 6 20 6C21.0609 6 22.0783 6.42143 22.8284 7.17157C23.5786 7.92172 24 8.93913 24 10C24 11.0609 23.5786 12.0783 22.8284 12.8284C22.0783 13.5786 21.0609 14 20 14C19.4159 14 18.8217 13.8427 18.3097 13.6219C17.9359 13.4608 17.5685 13.2496 17.2499 13H10.6374C9.85319 14.3819 8.43611 15 7 15C5.93913 15 4.92172 14.5786 4.17157 13.8284C3.42143 13.0783 3 12.0609 3 11C3 9.93913 3.42143 8.92172 4.17157 8.17157C4.92172 7.42143 5.93913 7 7 7C7.014 7 7.028 7.00029 7.04199 7.00088C7.82238 7.03368 8.57602 7.29456 9.20968 7.75123C9.65773 8.07414 9.75917 8.69913 9.43627 9.14718C9.11336 9.59523 8.48837 9.69667 8.04032 9.37377C7.72962 9.14984 7.36115 9.0202 6.97899 9.00011C6.45615 9.0056 5.9559 9.21567 5.58579 9.58579C5.21071 9.96086 5 10.4696 5 11C5 11.5304 5.21071 12.0391 5.58579 12.4142C5.96086 12.7893 6.46957 13 7 13C7.97813 13 8.73128 12.5628 9.06021 11.6583C9.20391 11.2631 9.57949 11 10 11H17.625C17.8902 11 18.1446 11.1054 18.3321 11.2929C18.4961 11.4569 18.7692 11.6421 19.1016 11.7854C19.4342 11.9288 19.756 12 20 12C20.5304 12 21.0391 11.7893 21.4142 11.4142C21.7893 11.0391 22 10.5304 22 10C22 9.46957 21.7893 8.96086 21.4142 8.58579C21.0391 8.21071 20.5304 8 20 8C19.4477 8 19 7.55228 19 7ZM10 15C10.5523 15 11 15.4477 11 16V26C11 26.5523 10.5523 27 10 27C9.44772 27 9 26.5523 9 26V16C9 15.4477 9.44772 15 10 15ZM14 15C14.5523 15 15 15.4477 15 16V26C15 26.5523 14.5523 27 14 27C13.4477 27 13 26.5523 13 26V16C13 15.4477 13.4477 15 14 15ZM18 15C18.5523 15 19 15.4477 19 16V26C19 26.5523 18.5523 27 18 27C17.4477 27 17 26.5523 17 26V16C17 15.4477 17.4477 15 18 15Z" fill="#1D1D1B"/>
<path fill-rule="evenodd" clip-rule="evenodd" d="M8.56259 3.16586C8.34814 3.09759 8.12704 3.04998 7.90228 3.02403C7.42235 2.96862 6.93615 3.01317 6.47428 3.15487C6.01241 3.29657 5.58488 3.53235 5.21861 3.84738C4.85233 4.16241 4.55524 4.54985 4.34603 4.98532C4.13683 5.42079 4.02004 5.89486 4.00303 6.37767C3.98601 6.86049 4.06914 7.3416 4.24717 7.79071C4.4252 8.23983 4.69429 8.64722 5.03748 8.98725C5.42981 9.37596 6.06297 9.37303 6.45168 8.9807C6.84039 8.58837 6.83745 7.95521 6.44512 7.5665C6.29804 7.42077 6.18272 7.24617 6.10642 7.0537C6.03012 6.86122 5.99449 6.65503 6.00179 6.44811C6.00908 6.24119 6.05913 6.03801 6.14879 5.85138C6.23845 5.66475 6.36577 5.49871 6.52275 5.3637C6.67972 5.22868 6.86295 5.12763 7.06089 5.06691C7.25884 5.00618 7.46721 4.98708 7.67289 5.01083C7.87858 5.03458 8.07712 5.10065 8.25601 5.20489C8.4342 5.30871 8.58905 5.44815 8.71091 5.61449L8.7121 5.61616C8.71297 5.61737 8.71413 5.619 8.71557 5.62103C8.71744 5.62366 8.71978 5.62696 8.72254 5.63089C8.73234 5.64483 8.74728 5.66636 8.76562 5.69359C8.80294 5.749 8.85119 5.8234 8.89788 5.90287C8.9464 5.98545 8.98306 6.0563 9.00472 6.10726C9.00519 6.10836 9.00565 6.10944 9.00609 6.11049C9.06107 6.61078 9.48511 7 10.0001 7C10.5523 7 11.0001 6.55228 11.0001 6C11.0001 5.71215 10.9021 5.45836 10.8454 5.32496C10.777 5.16417 10.6937 5.01127 10.6222 4.88963C10.5489 4.76488 10.4772 4.65459 10.4245 4.57637C10.3978 4.53679 10.3753 4.50426 10.3588 4.48085C10.3506 4.46913 10.3438 4.45962 10.3388 4.45258C10.3363 4.44906 10.3342 4.44616 10.3325 4.4439L10.3304 4.44099L10.3292 4.43925C10.3291 4.43916 10.3291 4.43907 9.52005 5.02688L10.3291 4.43907L10.3284 4.43816L10.3277 4.43725C10.2985 4.39725 10.2685 4.35791 10.2377 4.31926C11.1139 3.49684 12.2325 3 13.5001 3C16.2048 3 18.3751 5.21297 18.3751 7.95062V7.95121C18.3752 8.26145 18.3462 8.57103 18.2883 8.87582C18.1852 9.4184 18.5414 9.94182 19.084 10.0449C19.6266 10.148 20.15 9.79176 20.2531 9.24918C20.3345 8.82093 20.3753 8.38596 20.3751 7.95004C20.3747 4.14171 17.3426 1 13.5001 1C11.5101 1 9.80215 1.86002 8.56259 3.16586ZM9.01838 6.14362C9.0182 6.14353 9.01696 6.1401 9.01521 6.13361C9.01768 6.14046 9.01856 6.14371 9.01838 6.14362Z" fill="#1D1D1B"/>
</svg>
