<svg width="40" height="40" viewBox="0 0 40 40" fill="none" xmlns="http://www.w3.org/2000/svg">
<path d="M8 12.1667C8 11.0616 8.43899 10.0018 9.22039 9.22039C10.0018 8.43899 11.0616 8 12.1667 8H15.8333C16.0543 8 16.2663 8.0878 16.4226 8.24408C16.5789 8.40036 16.6667 8.61232 16.6667 8.83333C16.6667 9.05435 16.5789 9.26631 16.4226 9.42259C16.2663 9.57887 16.0543 9.66667 15.8333 9.66667H12.1667C11.5036 9.66667 10.8677 9.93006 10.3989 10.3989C9.93006 10.8677 9.66667 11.5036 9.66667 12.1667V15.8333C9.66667 16.0543 9.57887 16.2663 9.42259 16.4226C9.26631 16.5789 9.05435 16.6667 8.83333 16.6667C8.61232 16.6667 8.40036 16.5789 8.24408 16.4226C8.0878 16.2663 8 16.0543 8 15.8333V12.1667ZM23.3333 8.83333C23.3333 8.37333 23.7067 8 24.1667 8H27.8333C28.9384 8 29.9982 8.43899 30.7796 9.22039C31.561 10.0018 32 11.0616 32 12.1667V15.8333C32 16.0543 31.9122 16.2663 31.7559 16.4226C31.5996 16.5789 31.3877 16.6667 31.1667 16.6667C30.9457 16.6667 30.7337 16.5789 30.5774 16.4226C30.4211 16.2663 30.3333 16.0543 30.3333 15.8333V12.1667C30.3333 11.5036 30.0699 10.8677 29.6011 10.3989C29.1323 9.93006 28.4964 9.66667 27.8333 9.66667H24.1667C23.7067 9.66667 23.3333 9.29333 23.3333 8.83333ZM8.83333 23.3333C9.29333 23.3333 9.66667 23.7067 9.66667 24.1667V27.8333C9.66667 28.4964 9.93006 29.1323 10.3989 29.6011C10.8677 30.0699 11.5036 30.3333 12.1667 30.3333H15.8333C16.0543 30.3333 16.2663 30.4211 16.4226 30.5774C16.5789 30.7337 16.6667 30.9457 16.6667 31.1667C16.6667 31.3877 16.5789 31.5996 16.4226 31.7559C16.2663 31.9122 16.0543 32 15.8333 32H12.1667C11.0616 32 10.0018 31.561 9.22039 30.7796C8.43899 29.9982 8 28.9384 8 27.8333V24.1667C8 23.7067 8.37333 23.3333 8.83333 23.3333ZM31.1667 23.3333C31.6267 23.3333 32 23.7067 32 24.1667V27.8333C32 28.9384 31.561 29.9982 30.7796 30.7796C29.9982 31.561 28.9384 32 27.8333 32H24.1667C23.9457 32 23.7337 31.9122 23.5774 31.7559C23.4211 31.5996 23.3333 31.3877 23.3333 31.1667C23.3333 30.9457 23.4211 30.7337 23.5774 30.5774C23.7337 30.4211 23.9457 30.3333 24.1667 30.3333H27.8333C28.4964 30.3333 29.1323 30.0699 29.6011 29.6011C30.0699 29.1323 30.3333 28.4964 30.3333 27.8333V24.1667C30.3333 23.7067 30.7067 23.3333 31.1667 23.3333ZM22 20.3333C22 19.8029 21.7893 19.2942 21.4142 18.9191C21.0391 18.544 20.5304 18.3333 20 18.3333C19.4696 18.3333 18.9609 18.544 18.5858 18.9191C18.2107 19.2942 18 19.8029 18 20.3333C18 20.8638 18.2107 21.3725 18.5858 21.7475C18.9609 22.1226 19.4696 22.3333 20 22.3333C20.5304 22.3333 21.0391 22.1226 21.4142 21.7475C21.7893 21.3725 22 20.8638 22 20.3333ZM22.5767 14.4087C22.4442 14.1833 22.2552 13.9965 22.0284 13.8667C21.8015 13.7369 21.5447 13.6686 21.2833 13.6687H18.748C18.4916 13.6687 18.2395 13.7345 18.0158 13.8598C17.792 13.985 17.6041 14.1655 17.47 14.384L16.8867 15.3333H15.5C14.9254 15.3333 14.3743 15.5616 13.9679 15.9679C13.5616 16.3743 13.3333 16.9254 13.3333 17.5V23.8333C13.3333 24.408 13.5616 24.9591 13.9679 25.3654C14.3743 25.7717 14.9254 26 15.5 26H24.5C25.0746 26 25.6257 25.7717 26.0321 25.3654C26.4384 24.9591 26.6667 24.408 26.6667 23.8333V17.5C26.6667 16.9254 26.4384 16.3743 26.0321 15.9679C25.6257 15.5616 25.0746 15.3333 24.5 15.3333H23.12L22.5767 14.4087ZM17 20.3333C17 19.5377 17.3161 18.7746 17.8787 18.212C18.4413 17.6494 19.2044 17.3333 20 17.3333C20.7956 17.3333 21.5587 17.6494 22.1213 18.212C22.6839 18.7746 23 19.5377 23 20.3333C23 21.129 22.6839 21.892 22.1213 22.4547C21.5587 23.0173 20.7956 23.3333 20 23.3333C19.2044 23.3333 18.4413 23.0173 17.8787 22.4547C17.3161 21.892 17 21.129 17 20.3333Z" fill="#1D1D1B"/>
</svg>
