<svg width="40" height="40" viewBox="0 0 40 40" fill="none" xmlns="http://www.w3.org/2000/svg">
<path d="M13.1562 13.3919C10.0359 16.5122 7.67691 19.8024 6.40066 22.5459C5.76254 23.9178 5.39854 25.1529 5.3266 26.1319C5.2546 27.1109 5.4606 27.7926 5.89223 28.2243C6.32391 28.6559 7.00566 28.8619 7.9846 28.7899C8.96354 28.7179 10.1988 28.354 11.5706 27.7159C14.3142 26.4396 17.6044 24.0807 20.7247 20.9604C23.845 17.84 26.2039 14.5498 27.4802 11.8063C28.1183 10.4345 28.4823 9.19925 28.5542 8.22032C28.6262 7.24132 28.4202 6.55963 27.9886 6.12801C27.5569 5.69632 26.8752 5.49026 25.8962 5.56226C24.9173 5.63426 23.682 5.99819 22.3102 6.63632C19.5667 7.91257 16.2765 10.2715 13.1562 13.3919ZM14.0272 14.0302C16.6267 11.4246 19.3735 9.31576 21.0205 8.40432C17.4042 11.2741 7.39991 19.8884 11.7472 25.6381C12.1412 26.1593 7.88716 27.7716 7.67423 27.1899C6.27548 23.3683 9.97191 18.0949 14.0272 14.0302ZM6.60904 29.8026C6.91823 30.3627 7.27985 30.9563 7.6191 31.5933C7.83823 31.4171 8.11323 31.2726 8.34348 31.2164C8.8476 31.0986 9.35148 31.2708 9.70348 31.5594C10.0554 31.8481 10.3034 32.2351 10.4974 32.6519C10.741 33.1754 10.9025 33.7433 10.9677 34.2771C11.1488 34.2163 11.3293 34.1538 11.5092 34.0895C11.5471 33.4876 11.4977 32.777 11.4927 32.0906C11.4894 31.6361 11.5061 31.1883 11.6171 30.7604C11.7812 30.2741 11.9697 29.8971 12.3624 29.6265C12.8233 29.3111 13.3787 29.2558 13.8439 29.3854C14.3091 29.5152 14.7027 29.7904 15.047 30.1088C15.641 30.6578 16.0944 31.3367 16.3559 31.8896C16.54 31.7878 16.7232 31.6844 16.9055 31.5793C16.7454 30.9489 16.564 30.0839 16.5274 29.2179C16.4899 28.3317 16.5802 27.375 17.1789 26.7411C17.2674 26.6489 17.364 26.565 17.4676 26.4902C17.9593 26.1411 18.5481 26.0676 19.0683 26.1691C19.5885 26.2706 20.0615 26.5209 20.4873 26.8195C21.0629 27.2231 21.5492 27.7064 21.899 28.1402C22.1124 27.967 22.3239 27.7917 22.5337 27.6142C22.2104 27.1266 21.9102 26.483 21.713 25.76C21.4251 24.7045 21.399 23.4179 22.2905 22.5263C23.1822 21.6346 24.4689 21.6608 25.5244 21.9486C26.2474 22.1458 26.8909 22.446 27.3785 22.7693C27.5561 22.5596 27.7314 22.348 27.9046 22.1347C27.4707 21.7848 26.9875 21.2984 26.5839 20.7229C26.2853 20.2971 26.0349 19.8242 25.9334 19.3039C25.8319 18.7837 25.9054 18.1949 26.2545 17.7033C26.3352 17.5914 26.4158 17.502 26.5054 17.4145C27.1394 16.8159 28.096 16.7256 28.9823 16.7631C29.8484 16.7997 30.7133 16.981 31.3437 17.1411C31.4487 16.9588 31.5522 16.7757 31.654 16.5916C31.101 16.3301 30.4222 15.8766 29.8732 15.2827C29.5548 14.9383 29.2795 14.5448 29.1499 14.0796C29.0201 13.6143 29.0755 13.0589 29.3909 12.5981C29.6485 12.2178 30.1259 11.9594 30.5247 11.8528C30.9527 11.7418 31.4005 11.7251 31.8549 11.7284C32.5414 11.7334 33.252 11.7828 33.8539 11.7449C33.9181 11.565 33.9806 11.3845 34.0414 11.2034C33.5077 11.1382 32.9398 10.9766 32.4162 10.7329C31.9995 10.539 31.6125 10.2911 31.3238 9.93907C31.0352 9.58719 30.863 9.08326 30.9809 8.57907C31.0672 8.29925 31.1897 8.04657 31.3577 7.85469C30.7206 7.5155 30.1271 7.15388 29.567 6.84469C29.6694 7.29532 29.6964 7.78682 29.6585 8.30144C29.5719 9.47938 29.1604 10.8193 28.484 12.2733C27.1312 15.1813 24.705 18.5455 21.5075 21.7431C18.31 24.9406 14.9456 27.3669 12.0376 28.7196C10.5836 29.396 9.24373 29.8074 8.06579 29.8941C7.55116 29.9319 7.0596 29.905 6.60904 29.8026ZM8.33179 32.4246C8.3217 32.4341 8.31198 32.4439 8.30266 32.4541C8.2413 32.5279 8.18979 32.6093 8.14941 32.6964C8.43973 33.3848 8.66654 34.1228 8.75304 34.9232C9.38941 34.3296 9.55273 34.6336 9.87679 34.6196C9.83916 34.1731 9.70791 33.5796 9.49354 33.1189C9.34616 32.8023 9.16179 32.547 9.00141 32.4154C8.84098 32.2839 8.75266 32.2578 8.59541 32.2946C8.48254 32.3209 8.40123 32.3596 8.33179 32.4246V32.4246ZM32.1999 8.57063C32.1309 8.64688 32.082 8.73563 32.0589 8.831C32.0222 8.98832 32.0482 9.07663 32.1798 9.237C32.3114 9.39744 32.5667 9.58182 32.8833 9.72913C33.3439 9.94351 33.9374 10.0748 34.3839 10.1124C34.2514 9.72907 34.2815 9.35163 34.6875 8.98869C33.8872 8.90219 33.1491 8.67538 32.4607 8.38501C32.3577 8.43057 32.2688 8.49438 32.1999 8.57063ZM12.9275 30.5896C12.7963 30.7148 12.7248 30.9026 12.6888 31.0384C12.6206 31.3011 12.5967 31.6676 12.5997 32.0825C12.6032 32.5645 12.6436 33.1064 12.6383 33.6609C13.3729 33.1203 13.8892 32.3442 15.3754 32.4108C15.1849 32.0106 14.7604 31.3514 14.2954 30.9218C14.0339 30.68 13.7617 30.5118 13.5465 30.4518C13.3314 30.3918 13.1915 30.4005 12.9875 30.5402C12.9663 30.5552 12.9463 30.5718 12.9275 30.5896ZM30.3519 13.168C30.3352 13.1856 30.3193 13.204 30.3044 13.2232C30.1649 13.4273 30.1561 13.567 30.2161 13.7822C30.2761 13.9974 30.4443 14.2696 30.6861 14.5312C31.1158 14.9961 31.7749 15.4206 32.1752 15.6111C32.1373 14.3167 32.7942 13.5917 33.4252 12.8739C32.8707 12.8793 32.3288 12.8389 31.8468 12.8354C31.4319 12.8324 31.0654 12.8563 30.8027 12.9244C30.6182 12.9746 30.4675 13.0464 30.3519 13.168H30.3519ZM27.2257 18.2701C27.201 18.293 27.1781 18.3179 27.1572 18.3443C26.9921 18.5768 26.962 18.7946 27.02 19.092C27.078 19.3894 27.2503 19.745 27.4903 20.0873C27.8065 20.5383 28.246 20.9653 28.5957 21.2559C28.82 20.3123 29.6185 19.2614 30.7489 18.1374C30.2051 18.0133 29.5478 17.8951 28.9355 17.8691C28.4112 17.9038 27.5987 17.9214 27.2257 18.2701ZM18.0705 27.4278C17.6864 27.8098 17.622 28.8291 17.6335 29.1712C17.6594 29.7835 17.7776 30.4408 17.9018 30.9846C18.8307 30.2018 19.577 29.2208 21.0203 28.8314C20.7297 28.4818 20.3026 28.0422 19.8517 27.726C19.5094 27.486 19.1537 27.3137 18.8564 27.2557C18.559 27.1976 18.3412 27.2278 18.1087 27.3929C18.0955 27.404 18.0827 27.4156 18.0705 27.4278ZM23.0734 23.309C22.5731 23.8093 22.547 24.6104 22.781 25.4688C22.9211 25.9824 23.1693 26.4931 23.3929 26.8679C24.2257 25.5451 25.3094 24.4613 26.6323 23.6285C26.2575 23.4049 25.7468 23.1568 25.2332 23.0166C24.3748 22.7826 23.5736 22.8088 23.0734 23.309Z" fill="#1D1D1B"/>
</svg>
