<svg width="40" height="40" viewBox="0 0 40 40" fill="none" xmlns="http://www.w3.org/2000/svg">
<path d="M13.6 18.4C14.0243 18.4 14.4313 18.2314 14.7314 17.9313C15.0314 17.6313 15.2 17.2243 15.2 16.8C15.2 16.3756 15.0314 15.9686 14.7314 15.6686C14.4313 15.3685 14.0243 15.2 13.6 15.2C13.1756 15.2 12.7687 15.3685 12.4686 15.6686C12.1686 15.9686 12 16.3756 12 16.8C12 17.2243 12.1686 17.6313 12.4686 17.9313C12.7687 18.2314 13.1756 18.4 13.6 18.4ZM20 21.6C20.4243 21.6 20.8313 21.4314 21.1314 21.1313C21.4314 20.8313 21.6 20.4243 21.6 20C21.6 19.5756 21.4314 19.1686 21.1314 18.8686C20.8313 18.5685 20.4243 18.4 20 18.4C19.5756 18.4 19.1687 18.5685 18.8686 18.8686C18.5686 19.1686 18.4 19.5756 18.4 20C18.4 20.4243 18.5686 20.8313 18.8686 21.1313C19.1687 21.4314 19.5756 21.6 20 21.6ZM24.8 26.4C24.8 26.8243 24.6314 27.2313 24.3314 27.5313C24.0313 27.8314 23.6243 28 23.2 28C22.7756 28 22.3687 27.8314 22.0686 27.5313C21.7686 27.2313 21.6 26.8243 21.6 26.4C21.6 25.9756 21.7686 25.5686 22.0686 25.2686C22.3687 24.9685 22.7756 24.8 23.2 24.8C23.6243 24.8 24.0313 24.9685 24.3314 25.2686C24.6314 25.5686 24.8 25.9756 24.8 26.4ZM15.2 26.4C15.6243 26.4 16.0313 26.2314 16.3314 25.9313C16.6314 25.6313 16.8 25.2243 16.8 24.8C16.8 24.3756 16.6314 23.9686 16.3314 23.6686C16.0313 23.3685 15.6243 23.2 15.2 23.2C14.7756 23.2 14.3687 23.3685 14.0686 23.6686C13.7686 23.9686 13.6 24.3756 13.6 24.8C13.6 25.2243 13.7686 25.6313 14.0686 25.9313C14.3687 26.2314 14.7756 26.4 15.2 26.4ZM20 7.19995C17.3697 7.20017 14.8033 8.0107 12.6501 9.52127C10.4968 11.0318 8.86113 13.1691 7.96567 15.6423C7.0702 18.1154 6.95838 20.8044 7.64543 23.3434C8.33248 25.8824 9.78503 28.148 11.8055 29.8322C13.8259 31.5163 16.3161 32.5371 18.9373 32.7557C21.5585 32.9743 24.1834 32.38 26.4549 31.0538C28.7263 29.7276 30.5341 27.7339 31.6322 25.3438C32.7303 22.9536 33.0654 20.2833 32.592 17.696C32.5648 17.5483 32.4966 17.4112 32.3952 17.3005C32.2938 17.1897 32.1633 17.1097 32.0186 17.0696C31.8739 17.0296 31.7208 17.0311 31.5769 17.0739C31.433 17.1168 31.304 17.1993 31.2048 17.312C30.7755 17.8009 30.2074 18.1474 29.5761 18.3053C28.9449 18.4631 28.2805 18.4247 27.6716 18.1953C27.0627 17.9658 26.5383 17.5562 26.1681 17.0211C25.798 16.4859 25.5998 15.8506 25.6 15.2C25.5998 14.9956 25.5299 14.7973 25.4019 14.6379C25.274 14.4786 25.0955 14.3675 24.896 14.3232C24.3334 14.1965 23.8155 13.9202 23.3971 13.5234C22.9786 13.1266 22.6751 12.6242 22.5188 12.0691C22.3624 11.5141 22.3589 10.9271 22.5086 10.3702C22.6584 9.81333 22.9559 9.30728 23.3696 8.90555C23.4724 8.80575 23.5465 8.68019 23.5841 8.54197C23.6218 8.40375 23.6217 8.25795 23.5837 8.1198C23.5458 7.98165 23.4715 7.85622 23.3685 7.75661C23.2655 7.65701 23.1377 7.58688 22.9984 7.55355C22.0163 7.31811 21.0099 7.19942 20 7.19995ZM8.79998 20C8.79989 18.4114 9.13771 16.8411 9.79102 15.3931C10.4443 13.9452 11.3982 12.6527 12.5892 11.6017C13.7803 10.5506 15.1813 9.76488 16.6993 9.29673C18.2172 8.82859 19.8174 8.6887 21.3936 8.88635C21.0564 9.4988 20.857 10.1775 20.8095 10.8751C20.762 11.5726 20.8674 12.2721 21.1184 12.9246C21.3693 13.5771 21.7599 14.167 22.2626 14.6529C22.7653 15.1387 23.3681 15.5089 24.0288 15.7376C24.1176 16.5281 24.4015 17.2841 24.8549 17.9377C25.3084 18.5913 25.9172 19.122 26.6265 19.482C27.3359 19.842 28.1236 20.02 28.9188 20.0001C29.7141 19.9802 30.4919 19.763 31.1824 19.368C31.2663 20.8626 31.0497 22.359 30.5454 23.7685C30.041 25.1781 29.2593 26.4722 28.2462 27.5744C27.2332 28.6767 26.0095 29.5646 24.6474 30.1858C23.2853 30.807 21.8126 31.1489 20.3161 31.1911C18.8197 31.2334 17.3299 30.9752 15.935 30.4318C14.54 29.8885 13.2681 29.071 12.1945 28.0277C11.1209 26.9844 10.2674 25.7364 9.68432 24.3576C9.10127 22.9787 8.80057 21.497 8.79998 20Z" fill="#1D1D1B"/>
</svg>
