<svg width="24" height="24" viewBox="0 0 24 24" fill="none" xmlns="http://www.w3.org/2000/svg">
<rect x="3" y="3.41418" width="1" height="24" transform="rotate(-45 3 3.41418)" fill="#383737"/>
<path fill-rule="evenodd" clip-rule="evenodd" d="M6.42715 5.42727C6.07797 5.62304 5.73559 5.83895 5.4 6.075C3.43333 7.45833 1.96667 9.26667 1 11.5C1.96667 13.7333 3.43333 15.5417 5.4 16.925C7.36667 18.3083 9.56667 19 12 19C14.2683 19 16.3339 18.3989 18.1967 17.1969L17.1284 16.1286C15.5551 17.0429 13.8456 17.5 12 17.5C9.98333 17.5 8.12917 16.9542 6.4375 15.8625C4.74583 14.7708 3.45 13.3167 2.55 11.5C3.45 9.68333 4.74583 8.22917 6.4375 7.1375C6.79212 6.90865 7.15389 6.70379 7.5228 6.52292L6.42715 5.42727ZM9.24676 8.24688C9.15846 8.32276 9.07204 8.40296 8.9875 8.4875C8.1625 9.3125 7.75 10.3167 7.75 11.5C7.75 12.6833 8.1625 13.6875 8.9875 14.5125C9.8125 15.3375 10.8167 15.75 12 15.75C13.1833 15.75 14.1875 15.3375 15.0125 14.5125C15.097 14.428 15.1772 14.3415 15.2531 14.2532L14.2229 13.223C14.1511 13.3142 14.0727 13.4023 13.9875 13.4875C13.4458 14.0292 12.7833 14.3 12 14.3C11.2167 14.3 10.5542 14.0292 10.0125 13.4875C9.47083 12.9458 9.2 12.2833 9.2 11.5C9.2 10.7167 9.47083 10.0542 10.0125 9.5125C10.0977 9.42733 10.1858 9.34886 10.277 9.27708L9.24676 8.24688ZM11.2154 8.80131L10.0941 7.68002C10.6671 7.39334 11.3024 7.25 12 7.25C13.1833 7.25 14.1875 7.6625 15.0125 8.4875C15.8375 9.3125 16.25 10.3167 16.25 11.5C16.25 12.1976 16.1067 12.8329 15.82 13.4059L14.6987 12.2846C14.7662 12.0381 14.8 11.7766 14.8 11.5C14.8 10.7167 14.5292 10.0542 13.9875 9.5125C13.4458 8.97083 12.7833 8.7 12 8.7C11.7234 8.7 11.4619 8.73377 11.2154 8.80131ZM17.9882 15.5741C19.4717 14.5191 20.6173 13.1611 21.425 11.5C20.5417 9.68333 19.2542 8.22917 17.5625 7.1375C15.8708 6.04583 14.0167 5.5 12 5.5C10.7786 5.5 9.61687 5.70021 8.51472 6.10063L7.3693 4.95521C8.80545 4.3184 10.349 4 12 4C14.4333 4 16.6333 4.69167 18.6 6.075C20.5667 7.45833 22.0333 9.26667 23 11.5C22.1045 13.5688 20.78 15.2729 19.0265 16.6124L17.9882 15.5741Z" fill="#383737"/>
</svg>
