<svg width="34" height="34" viewBox="0 0 34 34" fill="none" xmlns="http://www.w3.org/2000/svg">
<path d="M32.64 0H1.36C0.60775 0 0 0.60775 0 1.36V32.64C0 33.3923 0.60775 34 1.36 34H32.64C33.3923 34 34 33.3923 34 32.64V1.36C34 0.60775 33.3923 0 32.64 0ZM28.713 9.92375H25.9973C23.868 9.92375 23.4558 10.9352 23.4558 12.4227V15.6995H28.5387L27.8758 20.8292H23.4558V34H18.156V20.8335H13.7232V15.6995H18.156V11.917C18.156 7.52675 20.8377 5.134 24.7563 5.134C26.6348 5.134 28.2455 5.27425 28.7173 5.338V9.92375H28.713Z" fill="white"/>
</svg>
