<svg width="35" height="35" viewBox="0 0 35 35" fill="none" xmlns="http://www.w3.org/2000/svg">
<path fill-rule="evenodd" clip-rule="evenodd" d="M7.68573 0.248535C5.71301 0.248535 3.82105 1.032 2.42586 2.42665C1.03067 3.8213 0.246485 5.71296 0.245728 7.68568V27.5257C0.245728 29.4989 1.02958 31.3913 2.42485 32.7866C3.82012 34.1818 5.71252 34.9657 7.68573 34.9657H27.5257C29.4984 34.9649 31.3901 34.1807 32.7848 32.7855C34.1794 31.3904 34.9629 29.4984 34.9629 27.5257V7.68568C34.9621 5.71346 34.1783 3.82223 32.7837 2.42766C31.3892 1.03309 29.4979 0.249292 27.5257 0.248535H7.68573ZM29.6657 7.69711C29.6657 8.26543 29.44 8.81047 29.0381 9.21234C28.6362 9.6142 28.0912 9.83996 27.5229 9.83996C26.9545 9.83996 26.4095 9.6142 26.0076 9.21234C25.6058 8.81047 25.38 8.26543 25.38 7.69711C25.38 7.12879 25.6058 6.58374 26.0076 6.18188C26.4095 5.78001 26.9545 5.55425 27.5229 5.55425C28.0912 5.55425 28.6362 5.78001 29.0381 6.18188C29.44 6.58374 29.6657 7.12879 29.6657 7.69711ZM17.6086 11.6628C16.0324 11.6628 14.5209 12.2889 13.4064 13.4034C12.2919 14.5179 11.6657 16.0295 11.6657 17.6057C11.6657 19.1818 12.2919 20.6934 13.4064 21.8079C14.5209 22.9224 16.0324 23.5485 17.6086 23.5485C19.1847 23.5485 20.6963 22.9224 21.8108 21.8079C22.9253 20.6934 23.5514 19.1818 23.5514 17.6057C23.5514 16.0295 22.9253 14.5179 21.8108 13.4034C20.6963 12.2889 19.1847 11.6628 17.6086 11.6628ZM8.80573 17.6057C8.80573 15.2718 9.73287 13.0335 11.3832 11.3831C13.0335 9.73282 15.2718 8.80568 17.6057 8.80568C19.9396 8.80568 22.1779 9.73282 23.8283 11.3831C25.4786 13.0335 26.4057 15.2718 26.4057 17.6057C26.4057 19.9396 25.4786 22.1779 23.8283 23.8282C22.1779 25.4785 19.9396 26.4057 17.6057 26.4057C15.2718 26.4057 13.0335 25.4785 11.3832 23.8282C9.73287 22.1779 8.80573 19.9396 8.80573 17.6057Z" fill="white"/>
</svg>
