<svg width="40" height="40" viewBox="0 0 40 40" fill="none" xmlns="http://www.w3.org/2000/svg">
<path d="M17.3334 11.1111H25.3334V12.8889H17.3334V11.1111Z" fill="#1D1D1B"/>
<path d="M17.3334 14.6667H25.3334V16.4444H17.3334V14.6667Z" fill="#1D1D1B"/>
<path d="M17.3334 18.2222H25.3334V20H17.3334V18.2222Z" fill="#1D1D1B"/>
<path d="M17.3334 21.7778H25.3334V23.5556H17.3334V21.7778Z" fill="#1D1D1B"/>
<path d="M17.3334 25.3333H25.3334V27.1111H17.3334V25.3333Z" fill="#1D1D1B"/>
<path d="M13.7778 11.1111H15.5556V12.8889H13.7778V11.1111Z" fill="#1D1D1B"/>
<path d="M13.7778 14.6667H15.5556V16.4444H13.7778V14.6667Z" fill="#1D1D1B"/>
<path d="M13.7778 18.2222H15.5556V20H13.7778V18.2222Z" fill="#1D1D1B"/>
<path d="M13.7778 21.7778H15.5556V23.5556H13.7778V21.7778Z" fill="#1D1D1B"/>
<path d="M13.7778 25.3333H15.5556V27.1111H13.7778V25.3333Z" fill="#1D1D1B"/>
<path d="M28.8889 5.77778H11.1112C10.6397 5.77778 10.1875 5.96508 9.85407 6.29848C9.52068 6.63188 9.33337 7.08406 9.33337 7.55556V32.4444C9.33337 32.9159 9.52068 33.3681 9.85407 33.7015C10.1875 34.0349 10.6397 34.2222 11.1112 34.2222H28.8889C29.3604 34.2222 29.8126 34.0349 30.146 33.7015C30.4794 33.3681 30.6667 32.9159 30.6667 32.4444V7.55556C30.6667 7.08406 30.4794 6.63188 30.146 6.29848C29.8126 5.96508 29.3604 5.77778 28.8889 5.77778ZM28.8889 32.4444H11.1112V7.55556H28.8889V32.4444Z" fill="#1D1D1B"/>
</svg>
