<svg width="20" height="20" viewBox="0 0 20 20" fill="none" xmlns="http://www.w3.org/2000/svg">
<path d="M9.99999 14.1666C10.442 14.1666 10.8659 13.9911 11.1785 13.6785C11.4911 13.3659 11.6667 12.942 11.6667 12.5C11.6667 12.058 11.4911 11.634 11.1785 11.3215C10.8659 11.0089 10.442 10.8333 9.99999 10.8333C9.55797 10.8333 9.13404 11.0089 8.82148 11.3215C8.50892 11.634 8.33333 12.058 8.33333 12.5C8.33333 12.942 8.50892 13.3659 8.82148 13.6785C9.13404 13.9911 9.55797 14.1666 9.99999 14.1666ZM15 6.66665C15.442 6.66665 15.8659 6.84224 16.1785 7.1548C16.4911 7.46736 16.6667 7.89129 16.6667 8.33331V16.6666C16.6667 17.1087 16.4911 17.5326 16.1785 17.8452C15.8659 18.1577 15.442 18.3333 15 18.3333H4.99999C4.55797 18.3333 4.13404 18.1577 3.82148 17.8452C3.50892 17.5326 3.33333 17.1087 3.33333 16.6666V8.33331C3.33333 7.89129 3.50892 7.46736 3.82148 7.1548C4.13404 6.84224 4.55797 6.66665 4.99999 6.66665H5.83333V4.99998C5.83333 3.89491 6.27232 2.8351 7.05372 2.0537C7.83512 1.2723 8.89493 0.833313 9.99999 0.833313C10.5472 0.833313 11.089 0.941087 11.5945 1.15048C12.1 1.35988 12.5594 1.66679 12.9463 2.0537C13.3332 2.44061 13.6401 2.89994 13.8495 3.40547C14.0589 3.91099 14.1667 4.45281 14.1667 4.99998V6.66665H15ZM9.99999 2.49998C9.33695 2.49998 8.70107 2.76337 8.23223 3.23221C7.76339 3.70105 7.49999 4.33694 7.49999 4.99998V6.66665H12.5V4.99998C12.5 4.33694 12.2366 3.70105 11.7678 3.23221C11.2989 2.76337 10.663 2.49998 9.99999 2.49998Z" fill="#AAAAAA"/>
</svg>
