<svg width="24" height="24" viewBox="0 0 24 24" fill="none" xmlns="http://www.w3.org/2000/svg">
<path d="M11.4407 21.388C11.3822 21.388 11.3247 21.3726 11.274 21.3433L3.71069 16.8994C3.66002 16.8701 3.61794 16.828 3.58869 16.7773C3.55943 16.7267 3.54403 16.6692 3.54403 16.6107L3.46069 7.47268C3.46069 7.41417 3.4761 7.35669 3.50535 7.30602C3.53461 7.25535 3.57669 7.21327 3.62736 7.18402L11.6907 2.40668C11.794 2.34735 11.9207 2.34735 12.024 2.40668L19.5874 6.76735C19.638 6.79654 19.6801 6.83854 19.7094 6.88912C19.7387 6.93971 19.7541 6.99711 19.7542 7.05556C19.7543 7.11401 19.7391 7.17147 19.7099 7.22215C19.6808 7.27284 19.6389 7.31498 19.5884 7.34435L11.8574 12.011L11.774 21.0554C11.7738 21.1436 11.7387 21.2283 11.6762 21.2906C11.6137 21.353 11.529 21.388 11.4407 21.388Z" fill="#DEAA54"/>
<path d="M12.0001 21.524L20.2531 16.8213L20.1378 7.32935L11.8574 12.011L12.0001 21.524Z" fill="#DEAA54"/>
<path d="M14.8141 12.6593C14.6868 12.587 14.5811 12.4821 14.5079 12.3554C14.4346 12.2286 14.3965 12.0847 14.3974 11.9383V10.5476L6.77075 5.37098C7.00142 5.21898 8.84342 4.16031 8.95742 4.13031L17.6741 8.46431C17.7248 8.49357 17.7668 8.53564 17.7961 8.58632C17.8253 8.63699 17.8408 8.69447 17.8408 8.75298V10.761C17.8404 10.9529 17.7898 11.1413 17.6939 11.3075C17.5979 11.4736 17.4601 11.6117 17.2941 11.708L15.6458 12.6593C15.3891 12.8093 15.0711 12.8093 14.8141 12.6593ZM14.9461 19.825V18.713C14.9464 18.5393 14.9923 18.3687 15.0792 18.2183C15.166 18.0678 15.2908 17.9428 15.4411 17.8556L17.4654 16.6866C17.559 16.6326 17.6652 16.6042 17.7732 16.6043C17.8813 16.6043 17.9875 16.6328 18.081 16.6868C18.1746 16.7409 18.2523 16.8186 18.3063 16.9122C18.3603 17.0058 18.3888 17.1119 18.3888 17.22C18.3888 17.22 18.3814 17.755 18.2788 17.8356C17.5988 18.3723 14.9461 19.9286 14.9461 19.825Z" fill="#EBEBEB"/>
<path d="M14.8091 15.3153V15.605C14.8091 15.6926 14.8322 15.7786 14.876 15.8545C14.9198 15.9304 14.9828 15.9933 15.0587 16.0371C15.1346 16.0809 15.2206 16.1039 15.3082 16.1039C15.3958 16.1039 15.4819 16.0808 15.5577 16.037L17.8257 14.7836C17.9413 14.7169 18.0373 14.621 18.104 14.5054C18.1707 14.3898 18.2058 14.2587 18.2057 14.1253V13.7526C18.2057 13.6682 18.1835 13.5852 18.1412 13.512C18.0989 13.4389 18.0382 13.3782 17.965 13.3359C17.8918 13.2937 17.8088 13.2715 17.7244 13.2715C17.6399 13.2715 17.5569 13.2937 17.4837 13.336L15.2354 14.5773C15.1059 14.6522 14.9983 14.7597 14.9235 14.8893C14.8487 15.0188 14.8092 15.1657 14.8091 15.3153Z" fill="#383737"/>
<path d="M10.361 12.9723L7.59497 11.4213V13.902L10.361 15.453V12.9723Z" fill="white"/>
<path d="M11.8573 21.888L3.29395 16.944V7.056L11.8573 2.112L20.4206 7.056V16.944L11.8573 21.888ZM11.8573 21.888V12.011L14.7293 10.353M11.8766 12.011L3.31328 7.067M17.5056 8.75L20.4206 7.067" stroke="#1D1D1B" stroke-width="0.666667" stroke-linecap="round" stroke-linejoin="round"/>
<path d="M8.96134 3.81897L17.5073 8.75264V10.761C17.5074 10.8944 17.4723 11.0255 17.4056 11.1411C17.3389 11.2566 17.2429 11.3526 17.1273 11.4193L15.4793 12.3706C15.4035 12.4145 15.3174 12.4376 15.2298 12.4376C15.1422 12.4376 15.0562 12.4146 14.9803 12.3708C14.9044 12.327 14.8414 12.264 14.7976 12.1882C14.7538 12.1123 14.7307 12.0262 14.7307 11.9386V10.3556L6.20801 5.41664M18.0557 18.222V17.22C18.0557 17.1704 18.0427 17.1216 18.0179 17.0787C17.9931 17.0357 17.9575 17 17.9145 16.9752C17.8716 16.9504 17.8229 16.9374 17.7733 16.9374C17.7237 16.9374 17.6749 16.9505 17.632 16.9753L15.6077 18.144C15.5078 18.2016 15.4249 18.2846 15.3672 18.3845C15.3096 18.4843 15.2793 18.5976 15.2793 18.713V19.825M10.361 12.9723L7.59501 11.4213V13.902L10.361 15.453V12.9723ZM14.809 15.3153V15.605C14.809 15.6926 14.8321 15.7786 14.8759 15.8545C14.9197 15.9304 14.9827 15.9933 15.0586 16.0371C15.1345 16.0809 15.2206 16.1039 15.3082 16.1039C15.3958 16.1039 15.4818 16.0808 15.5577 16.037L17.8257 14.7836C17.9412 14.7169 18.0372 14.621 18.1039 14.5054C18.1706 14.3898 18.2057 14.2587 18.2057 14.1253V13.7526C18.2056 13.6682 18.1834 13.5852 18.1411 13.512C18.0989 13.4389 18.0381 13.3782 17.9649 13.3359C17.8918 13.2937 17.8088 13.2715 17.7243 13.2715C17.6398 13.2715 17.5568 13.2937 17.4837 13.336L15.2353 14.5773C15.1058 14.6522 14.9983 14.7597 14.9234 14.8893C14.8486 15.0188 14.8092 15.1657 14.809 15.3153Z" stroke="#1D1D1B" stroke-width="0.666667" stroke-linecap="round" stroke-linejoin="round"/>
</svg>
