<svg width="32" height="32" viewBox="0 0 32 32" fill="none" xmlns="http://www.w3.org/2000/svg">
<path d="M4 8.16667C4 7.0616 4.43899 6.00179 5.22039 5.22039C6.00179 4.43899 7.0616 4 8.16667 4H11.8333C12.0543 4 12.2663 4.0878 12.4226 4.24408C12.5789 4.40036 12.6667 4.61232 12.6667 4.83333C12.6667 5.05435 12.5789 5.26631 12.4226 5.42259C12.2663 5.57887 12.0543 5.66667 11.8333 5.66667H8.16667C7.50363 5.66667 6.86774 5.93006 6.3989 6.3989C5.93006 6.86774 5.66667 7.50363 5.66667 8.16667V11.8333C5.66667 12.0543 5.57887 12.2663 5.42259 12.4226C5.26631 12.5789 5.05435 12.6667 4.83333 12.6667C4.61232 12.6667 4.40036 12.5789 4.24408 12.4226C4.0878 12.2663 4 12.0543 4 11.8333V8.16667ZM19.3333 4.83333C19.3333 4.37333 19.7067 4 20.1667 4H23.8333C24.9384 4 25.9982 4.43899 26.7796 5.22039C27.561 6.00179 28 7.0616 28 8.16667V11.8333C28 12.0543 27.9122 12.2663 27.7559 12.4226C27.5996 12.5789 27.3877 12.6667 27.1667 12.6667C26.9457 12.6667 26.7337 12.5789 26.5774 12.4226C26.4211 12.2663 26.3333 12.0543 26.3333 11.8333V8.16667C26.3333 7.50363 26.0699 6.86774 25.6011 6.3989C25.1323 5.93006 24.4964 5.66667 23.8333 5.66667H20.1667C19.7067 5.66667 19.3333 5.29333 19.3333 4.83333ZM4.83333 19.3333C5.29333 19.3333 5.66667 19.7067 5.66667 20.1667V23.8333C5.66667 24.4964 5.93006 25.1323 6.3989 25.6011C6.86774 26.0699 7.50363 26.3333 8.16667 26.3333H11.8333C12.0543 26.3333 12.2663 26.4211 12.4226 26.5774C12.5789 26.7337 12.6667 26.9457 12.6667 27.1667C12.6667 27.3877 12.5789 27.5996 12.4226 27.7559C12.2663 27.9122 12.0543 28 11.8333 28H8.16667C7.0616 28 6.00179 27.561 5.22039 26.7796C4.43899 25.9982 4 24.9384 4 23.8333V20.1667C4 19.7067 4.37333 19.3333 4.83333 19.3333ZM27.1667 19.3333C27.6267 19.3333 28 19.7067 28 20.1667V23.8333C28 24.9384 27.561 25.9982 26.7796 26.7796C25.9982 27.561 24.9384 28 23.8333 28H20.1667C19.9457 28 19.7337 27.9122 19.5774 27.7559C19.4211 27.5996 19.3333 27.3877 19.3333 27.1667C19.3333 26.9457 19.4211 26.7337 19.5774 26.5774C19.7337 26.4211 19.9457 26.3333 20.1667 26.3333H23.8333C24.4964 26.3333 25.1323 26.0699 25.6011 25.6011C26.0699 25.1323 26.3333 24.4964 26.3333 23.8333V20.1667C26.3333 19.7067 26.7067 19.3333 27.1667 19.3333ZM18 16.3333C18 15.8029 17.7893 15.2942 17.4142 14.9191C17.0391 14.544 16.5304 14.3333 16 14.3333C15.4696 14.3333 14.9609 14.544 14.5858 14.9191C14.2107 15.2942 14 15.8029 14 16.3333C14 16.8638 14.2107 17.3725 14.5858 17.7475C14.9609 18.1226 15.4696 18.3333 16 18.3333C16.5304 18.3333 17.0391 18.1226 17.4142 17.7475C17.7893 17.3725 18 16.8638 18 16.3333ZM18.5767 10.4087C18.4442 10.1833 18.2552 9.99651 18.0284 9.86672C17.8015 9.73692 17.5447 9.66865 17.2833 9.66867H14.748C14.4916 9.66874 14.2395 9.73453 14.0158 9.85976C13.792 9.98499 13.6041 10.1655 13.47 10.384L12.8867 11.3333H11.5C10.9254 11.3333 10.3743 11.5616 9.96794 11.9679C9.56161 12.3743 9.33333 12.9254 9.33333 13.5V19.8333C9.33333 20.408 9.56161 20.9591 9.96794 21.3654C10.3743 21.7717 10.9254 22 11.5 22H20.5C21.0746 22 21.6257 21.7717 22.0321 21.3654C22.4384 20.9591 22.6667 20.408 22.6667 19.8333V13.5C22.6667 12.9254 22.4384 12.3743 22.0321 11.9679C21.6257 11.5616 21.0746 11.3333 20.5 11.3333H19.12L18.5767 10.4087ZM13 16.3333C13 15.5377 13.3161 14.7746 13.8787 14.212C14.4413 13.6494 15.2044 13.3333 16 13.3333C16.7956 13.3333 17.5587 13.6494 18.1213 14.212C18.6839 14.7746 19 15.5377 19 16.3333C19 17.129 18.6839 17.892 18.1213 18.4547C17.5587 19.0173 16.7956 19.3333 16 19.3333C15.2044 19.3333 14.4413 19.0173 13.8787 18.4547C13.3161 17.892 13 17.129 13 16.3333Z" fill="url(#paint0_linear_192_224)"/>
<defs>
<linearGradient id="paint0_linear_192_224" x1="9.29663" y1="15.6867" x2="32.3976" y2="15.6867" gradientUnits="userSpaceOnUse">
<stop stop-color="#BD8B2E"/>
<stop offset="0.15" stop-color="#E8D476"/>
<stop offset="0.29" stop-color="#BF9B3A"/>
<stop offset="0.48" stop-color="#E8D370"/>
<stop offset="0.68" stop-color="#DFC667"/>
<stop offset="1" stop-color="#EDD97D"/>
</linearGradient>
</defs>
</svg>
